<svg width="24" height="37" viewBox="0 0 24 37" fill="none" xmlns="http://www.w3.org/2000/svg">
<path d="M7.01583 2.99525C3.65406 2.21878 0.924746 5.16857 1.73692 8.80692C0.530753 9.35371 0 10.3154 0 11.3907C0 12.8874 1.1405 14.1074 2.54219 14.1074H12V0C10.1001 0 8.26199 0.938491 7.01583 2.99525Z" fill="#6ACDF0"/>
<path d="M8.21859 7.9277V20.1502H6.88158V10.759H5.50409L8.21859 7.9277Z" fill="#2591CF"/>
<path d="M19.2203 25.5786V32.9097C19.2201 32.9897 19.1883 33.0663 19.1318 33.1229C19.0752 33.1795 18.9986 33.2113 18.9186 33.2114H5.80477C5.72536 33.2113 5.6492 33.1799 5.59282 33.1239C5.53644 33.068 5.50438 32.9921 5.5036 32.9126V25.5791C5.50398 25.5242 5.51916 25.4705 5.54754 25.4235C5.57397 25.3787 5.61156 25.3415 5.65664 25.3155C5.70172 25.2895 5.75275 25.2757 5.80477 25.2753H18.9181C18.9579 25.2753 18.9973 25.2831 19.034 25.2983C19.0708 25.3135 19.1042 25.3359 19.1323 25.3641C19.1603 25.3923 19.1826 25.4257 19.1977 25.4626C19.2128 25.4994 19.2204 25.5388 19.2203 25.5786Z" fill="#6ACDF0"/>
<path d="M18.919 24.5487H5.8047C5.53141 24.5491 5.26943 24.6579 5.07618 24.8513C4.88293 25.0446 4.7742 25.3067 4.7738 25.5801V34.3722C4.77485 34.6452 4.88387 34.9067 5.07705 35.0994C5.27022 35.2922 5.53184 35.4007 5.8047 35.4011H18.919C19.1923 35.4007 19.4543 35.2919 19.6475 35.0986C19.8408 34.9052 19.9495 34.6431 19.9499 34.3697V25.5776C19.9489 25.3046 19.8398 25.0432 19.6467 24.8504C19.4535 24.6576 19.1919 24.5491 18.919 24.5487ZM5.50402 25.5801C5.50415 25.5255 5.51936 25.472 5.54796 25.4255C5.57432 25.3806 5.61189 25.3433 5.65699 25.3174C5.70209 25.2914 5.75316 25.2776 5.80519 25.2773H18.919C18.9988 25.2774 19.0754 25.3092 19.1318 25.3657C19.1883 25.4222 19.2201 25.4987 19.2202 25.5786V32.9096C19.2202 32.9896 19.1885 33.0663 19.132 33.1229C19.0755 33.1795 18.9989 33.2113 18.919 33.2114H5.8047C5.72529 33.2113 5.64913 33.1799 5.59275 33.1239C5.53637 33.068 5.50431 32.9921 5.50353 32.9126V25.5786L5.50402 25.5801Z" fill="#353535"/>
<path d="M3.89702 35.7962C3.89598 35.8007 3.89598 35.8052 3.89702 35.8097V35.7962Z" fill="#828383"/>
<path d="M15.3544 35.7962V35.8097C15.3552 35.8052 15.3552 35.8007 15.3544 35.7962Z" fill="#828383"/>
<path d="M12.8492 34.3036C12.8492 34.3851 12.8251 34.4649 12.7798 34.5327C12.7345 34.6005 12.6701 34.6534 12.5947 34.6846C12.5194 34.7158 12.4365 34.724 12.3566 34.7081C12.2766 34.6922 12.2031 34.6529 12.1455 34.5952C12.0878 34.5375 12.0485 34.464 12.0326 34.384C12.0167 34.304 12.0249 34.2211 12.0561 34.1457C12.0873 34.0703 12.1401 34.0059 12.2079 33.9606C12.2757 33.9153 12.3554 33.8911 12.437 33.8911C12.5463 33.8911 12.6512 33.9345 12.7285 34.0119C12.8058 34.0892 12.8492 34.1942 12.8492 34.3036Z" fill="#4DC2F0"/>
<path d="M18.7926 34.3036C18.7926 34.3516 18.7784 34.3986 18.7517 34.4386C18.725 34.4785 18.6871 34.5097 18.6427 34.5281C18.5983 34.5465 18.5495 34.5513 18.5023 34.5419C18.4552 34.5325 18.4119 34.5094 18.378 34.4754C18.344 34.4414 18.3209 34.3981 18.3115 34.3509C18.3021 34.3038 18.3069 34.255 18.3253 34.2106C18.3437 34.1661 18.3748 34.1282 18.4148 34.1015C18.4547 34.0748 18.5017 34.0605 18.5497 34.0605C18.5817 34.0605 18.6133 34.0667 18.6428 34.0789C18.6723 34.0911 18.6991 34.109 18.7216 34.1316C18.7442 34.1541 18.7621 34.1809 18.7743 34.2105C18.7865 34.24 18.7927 34.2716 18.7926 34.3036Z" fill="#FCC10F"/>
<path d="M21.3807 34.9576V35.4569C21.3807 35.8975 20.805 36.2551 20.097 36.2551H4.62817C3.91918 36.2551 3.34448 35.8975 3.34448 35.4569V34.9576H21.3807Z" fill="#353535"/>
<path d="M17.4527 25.2773L8.68363 33.2115H5.87878L14.6478 25.2773H17.4527Z" fill="#A3DCED"/>
<path d="M21.3808 34.9576H3.34406V35.4564H21.3808V34.9576Z" fill="#5F6060"/>
<path d="M12.4118 23.1292V14.0387H11.6371V23.9041H11.6658H21.0865V26.7685H19.95V27.5435H21.8612V23.1292H12.4118Z" fill="#A3DCED"/>
<path d="M24 11.3907C24 12.8874 22.8595 14.1074 21.4578 14.1074H12V0C13.8929 0 15.7331 0.934046 16.9837 2.99525C20.2882 2.2336 23.0881 5.10732 22.2631 8.80692C23.4712 9.3547 24 10.3204 24 11.3907Z" fill="#2591CF"/>
<path d="M10.9331 10.759H9.55557V20.1502H8.21857V7.9277L10.9331 10.759Z" fill="#386BB3"/>
<path d="M15.8352 22.1808V9.95779H17.1722V19.3491H18.5497L15.8352 22.1808Z" fill="#ED2424"/>
<path d="M13.1208 19.3491H14.4983V9.95779H15.8353V22.1808L13.1208 19.3491Z" fill="#EE4234"/>
</svg>
