<svg width="24" height="23" viewBox="0 0 24 23" fill="none" xmlns="http://www.w3.org/2000/svg">
<path d="M20.1774 17.3337C19.8273 17.3326 19.4802 17.3986 19.155 17.5282C19.2056 17.3547 19.2313 17.1749 19.2313 16.9941C19.2016 16.3737 18.9279 15.7902 18.4698 15.3708C18.0118 14.9513 17.4065 14.7299 16.7859 14.7548C16.5271 14.7555 16.2698 14.7954 16.0229 14.873C15.8499 14.2015 15.4534 13.609 14.8986 13.1929C14.3439 12.7768 13.664 12.5621 12.9709 12.584C12.347 12.5684 11.7329 12.7424 11.2098 13.0829C10.6868 13.4235 10.2792 13.9146 10.041 14.4915C9.76984 13.6794 9.2449 12.976 8.54361 12.4849C7.84232 11.9938 7.00178 11.741 6.14593 11.7638C3.91417 11.7638 2.10587 13.4195 2.10587 15.4567C2.10767 16.0465 2.2614 16.626 2.55222 17.1391C1.89442 17.1375 1.26148 17.3903 0.785801 17.8447C0.310123 18.299 0.0285553 18.9197 0 19.5769C0 20.9274 1.1979 22.0223 2.67048 22.0223H20.1774C20.8283 22.0502 21.4637 21.8189 21.9442 21.3791C22.4248 20.9393 22.7114 20.3269 22.7411 19.6761C22.7411 18.3828 21.5928 17.3337 20.1774 17.3337Z" fill="#BCBBBD"/>
<g style="mix-blend-mode:multiply" opacity="0.65">
<path d="M22.0583 18.0547C21.7147 17.7459 21.3008 17.5259 20.8527 17.4138C20.826 17.4138 20.8527 17.555 20.8146 17.5511C20.3452 18.6978 19.7971 19.8106 19.1741 20.8816C19.0442 20.914 18.9244 20.9785 18.8257 21.0691C18.7271 21.1597 18.6528 21.2737 18.6095 21.4004L18.228 21.0189H18.2051C19.0741 19.8822 19.8511 18.678 20.5285 17.4176C20.0145 17.3385 19.4888 17.3937 19.0025 17.5778C18.4244 18.7089 17.7771 19.8034 17.0645 20.8549C16.5456 20.9274 16.3015 21.5836 16.248 22.0299C16.4617 22.007 16.7287 22.0299 16.9462 22.0299L17.0034 21.6484L17.2476 22.0299C17.6596 22.0299 18.0831 22.0299 18.4569 22.0299H19.1551L19.0597 21.885L19.1169 21.6561L19.3649 22.0375C19.9325 22.0701 20.5018 22.02 21.0549 21.8888L20.2919 21.0571C20.6009 20.5802 21.4555 19.2488 22.0583 18.0547Z" fill="#BABABD"/>
</g>
<path d="M17.1025 1.26118C17.1025 1.26118 16.309 6.72041 16.576 8.08235C16.8431 9.4443 13.3829 12.5611 8.82781 10.688C7.35523 10.0852 6.97754 8.9331 7.48494 7.6856C7.99233 6.4381 9.77392 6.72041 9.85404 7.54063C9.93415 8.36085 8.97278 8.0938 8.89648 8.03276C8.89648 8.03276 9.42676 7.92976 9.03763 7.60167C8.6485 7.27358 7.71383 8.2197 9.14827 8.91402C10.5827 9.60835 10.7734 7.63982 10.823 4.54206C10.8726 1.44429 12.3223 -1.87092 17.1025 1.26118Z" fill="#343643"/>
<path d="M18.659 13.0075C18.659 13.0075 16.0648 13.1563 15.752 11.0466C15.5785 9.7534 15.5223 8.44717 15.5842 7.14386C15.8832 7.29207 16.1445 7.50656 16.3481 7.771C16.5517 8.03544 16.6923 8.34286 16.7592 8.66985C16.9194 9.47481 17.0644 11.1687 17.9037 11.7485C17.9685 11.7943 18.9375 11.9622 18.9375 11.9622L18.659 13.0075Z" fill="#15BAAC"/>
<path d="M15.3095 1.43284C14.3138 1.43284 13.4822 0.978856 13.2762 3.01987C13.0708 3.01987 12.8738 3.10146 12.7285 3.24669C12.5833 3.39193 12.5017 3.58891 12.5017 3.79431C12.5017 3.9997 12.5833 4.19668 12.7285 4.34192C12.8738 4.48716 13.0708 4.56875 13.2762 4.56875C13.3553 5.05573 13.6023 5.49968 13.9743 5.82368C14.3464 6.14767 14.8201 6.33129 15.3133 6.34271C15.8817 6.32477 16.4198 6.08216 16.8095 5.66808C17.1993 5.254 17.409 4.70226 17.3925 4.13384C17.3887 1.28024 16.4578 1.43284 15.3095 1.43284Z" fill="#FFAA27"/>
<path d="M18.9947 15.945C18.9947 15.945 20.021 16.0175 19.5899 17.1506C19.0736 18.4903 18.4457 19.7843 17.7129 21.0189L18.823 21.2135C18.823 21.2135 20.6771 18.3942 21.196 16.8644C21.2611 16.692 21.2836 16.5064 21.2616 16.3234C21.2396 16.1404 21.1738 15.9655 21.0696 15.8134C20.9655 15.6613 20.8262 15.5366 20.6635 15.45C20.5009 15.3633 20.3197 15.3172 20.1354 15.3156L18.9947 15.945Z" fill="#E29800"/>
<path d="M17.1024 16.4066C17.1024 16.4066 17.8654 16.7194 17.7967 17.0895C17.7013 17.7724 16.7476 19.1916 15.6985 20.8663L16.8086 21.0418C17.712 19.9074 18.5101 18.693 19.193 17.4138C19.6661 16.4066 19.5745 15.9145 18.0943 15.7237L17.1024 16.4066Z" fill="#FFAA27"/>
<path d="M13.5967 0.612626C13.5967 0.612626 14.024 3.20681 18.457 3.20681C18.457 3.20681 19.5175 -0.92481 13.5967 0.612626Z" fill="#343643"/>
<path d="M13.261 9.50152C13.3945 9.54348 14.0965 9.69608 14.8709 9.81816C15.0023 9.75479 15.1297 9.68345 15.2524 9.60452C15.6339 9.34129 16.0459 9.06661 16.4541 8.84153C16.0776 8.33304 15.7876 7.76589 15.5957 7.16293C15.5957 7.16293 14.7908 7.13623 15.3783 5.49961C15.125 5.36957 14.8492 5.28928 14.5657 5.26308C14.5657 5.26308 14.7145 6.83866 13.9591 7.0523C13.2038 7.26594 12.3225 7.47576 12.189 8.61263C12.1534 8.83087 12.1024 9.04632 12.0364 9.25736C12.4515 9.29917 12.8616 9.38093 13.261 9.50152Z" fill="#FFAA27"/>
<path d="M10.2242 13.946C10.2242 13.946 8.48453 16.3189 11.3687 16.8644C12.269 17.0323 13.4669 16.7614 14.3825 16.7957C15.4084 16.8318 16.4209 17.0408 17.3772 17.4138C18.4504 16.5595 19.6482 15.875 20.929 15.3842C20.929 15.3842 20.0706 14.5945 14.9395 13.8582C14.9509 13.862 11.7349 12.3589 10.2242 13.946Z" fill="#737075"/>
<path d="M15.5842 7.14767H15.5308C15.6185 7.52917 16.1946 8.67366 15.3934 8.70799C14.6724 8.73851 14.0009 7.86107 13.8064 7.06755C13.5393 7.10189 13.0739 7.09808 12.8488 7.12097C12.4673 7.1553 12.3987 7.35368 12.1774 8.59736C11.7959 10.7566 11.2656 11.4815 11.2656 11.4815C11.2656 11.4815 10.7277 12.8434 10.2241 13.946C10.2241 13.946 13.093 15.1858 15.6376 14.419C15.6376 14.419 15.2065 11.8477 15.7635 10.688C15.7635 10.688 16.8469 10.5888 16.8698 9.8563C16.8927 9.12383 15.9428 8.4295 15.5842 7.14767Z" fill="#00B0CC"/>
<path d="M18.8498 11.9584C18.8498 11.9584 20.0744 12.0118 19.8226 12.7862C19.6356 13.3737 18.804 13.1219 18.5293 13.0113L18.8498 11.9584Z" fill="#FFAA27"/>
<path d="M15.4468 22.4534H14.8784C14.8784 22.4534 14.8784 20.9274 15.7444 20.8435L16.8546 21.019L18.2661 22.4534H16.3052L15.6414 21.6484L15.4468 22.4534Z" fill="#343643"/>
<path d="M17.5488 22.4267H17.0186C17.0186 22.4267 17.0186 20.9388 17.8578 20.8663L18.9337 21.038L20.2994 22.4267H18.3919L17.7587 21.6637L17.5488 22.4267Z" fill="#343643"/>
<path d="M14.6725 0.959786L13.2381 3.75616C13.2381 3.75616 11.8762 0.20442 14.6725 0.959786Z" fill="#343643"/>
<path d="M10.3957 12.1644C10.3957 12.1644 11.2655 6.30456 13.1921 7.25068C13.1921 7.25068 14.2832 7.46431 12.1773 10.9665C12.1773 10.9665 12.7534 11.3174 14.9508 11.8477L14.3251 12.8816C14.3251 12.8816 10.3003 12.8129 10.3957 12.1644Z" fill="#15BAAC"/>
<path d="M14.1572 12.7862C14.1572 12.7862 15.7633 13.4119 15.874 12.5802C15.9846 11.7486 15.111 11.7066 14.7295 11.7905L14.1572 12.7862Z" fill="#FFAA27"/>
<path d="M24.0001 9.65794L21.5089 13.8659H14.9509L17.2628 9.65794H24.0001Z" fill="#343643"/>
<path d="M21.4554 13.8658H13.093V14.6212H21.4554V13.8658Z" fill="#272937"/>
</svg>
