<svg width="17" height="23" viewBox="0 0 17 23" fill="none" xmlns="http://www.w3.org/2000/svg">
<path d="M16 0H1C0.45 0 0 0.470455 0 1.04545V21.9545C0 22.5295 0.45 23 1 23H16C16.55 23 17 22.5295 17 21.9545V1.04545C17 0.470455 16.55 0 16 0ZM15 20.9091H2V2.09091H15V20.9091ZM4.125 16.4659C4.125 15.8909 4.575 15.4205 5.125 15.4205H11.875C12.425 15.4205 12.875 15.8909 12.875 16.4659C12.875 17.0409 12.425 17.5114 11.875 17.5114H5.125C4.575 17.5114 4.125 17.0409 4.125 16.4659ZM4.275 11.5C4.275 10.925 4.725 10.4545 5.275 10.4545H11.85C12.4 10.4545 12.85 10.925 12.85 11.5C12.85 12.075 12.4 12.5455 11.85 12.5455H5.275C4.725 12.5455 4.275 12.075 4.275 11.5ZM4.275 6.53409C4.275 5.95909 4.725 5.48864 5.275 5.48864H11.85C12.4 5.48864 12.85 5.95909 12.85 6.53409C12.85 7.10909 12.4 7.57955 11.85 7.57955H5.275C4.725 7.57955 4.275 7.10909 4.275 6.53409Z" fill="white"/>
</svg>
