<svg width="24" height="24" viewBox="0 0 24 24" fill="none" xmlns="http://www.w3.org/2000/svg">
<path d="M8.77906 2.48416H5.06787V21.3024H8.77906C9.13862 21.3016 9.48323 21.1584 9.73748 20.9042C9.99173 20.6499 10.1349 20.3053 10.1357 19.9458V3.84081C10.1357 3.48101 9.99278 3.13593 9.73836 2.88151C9.48394 2.62709 9.13887 2.48416 8.77906 2.48416Z" fill="#0F303F"/>
<path d="M1.35966 2.48416C1.18125 2.48377 1.00452 2.51856 0.839572 2.58656C0.674627 2.65457 0.524715 2.75443 0.398419 2.88045C0.272123 3.00646 0.171922 3.15615 0.103556 3.32095C0.0351895 3.48574 -4.40519e-07 3.6624 0 3.84081V19.9458C0.000798412 20.3058 0.144401 20.6509 0.399301 20.9052C0.654201 21.1596 0.999581 21.3024 1.35966 21.3024H5.06784V2.48416H1.35966Z" fill="#2C5871"/>
<path d="M7.12682 3.23486H3.00562V3.57252H7.12682V3.23486Z" fill="white"/>
<path d="M5.06787 20.7778C4.84593 20.7784 4.62881 20.7132 4.44398 20.5903C4.25916 20.4674 4.11494 20.2925 4.0296 20.0876C3.94425 19.8827 3.92161 19.6572 3.96454 19.4394C4.00748 19.2217 4.11405 19.0215 4.27077 18.8644C4.4275 18.7073 4.62732 18.6001 4.84495 18.5566C5.06258 18.5131 5.28823 18.5351 5.49334 18.6199C5.69844 18.7047 5.87377 18.8485 5.99714 19.033C6.1205 19.2175 6.18635 19.4344 6.18635 19.6563C6.18636 19.9533 6.06861 20.2381 5.85894 20.4483C5.64927 20.6585 5.36479 20.777 5.06787 20.7778ZM5.06787 18.7821C4.89423 18.7821 4.72449 18.8336 4.58016 18.9301C4.43582 19.0267 4.32338 19.1638 4.25707 19.3243C4.19076 19.4848 4.17356 19.6614 4.20766 19.8316C4.24175 20.0019 4.32561 20.1582 4.4486 20.2808C4.5716 20.4033 4.7282 20.4867 4.89858 20.5202C5.06895 20.5537 5.24544 20.5359 5.40569 20.469C5.56595 20.4021 5.70275 20.2892 5.79879 20.1446C5.89482 19.9999 5.94577 19.83 5.94517 19.6563C5.94517 19.5413 5.92246 19.4273 5.87833 19.3211C5.83421 19.2148 5.76954 19.1183 5.68803 19.0371C5.60653 18.9558 5.50979 18.8915 5.40337 18.8477C5.29695 18.804 5.18294 18.7817 5.06787 18.7821Z" fill="white"/>
<path d="M5.11612 4.52216H0.491455V17.8595H5.11612V4.52216Z" fill="#FDC63A"/>
<path d="M9.64115 4.52216H5.11597V17.8595H9.64115V4.52216Z" fill="#FDA014"/>
<path d="M7.81122 16.1321C6.13971 13.2003 5.32886 9.85656 5.47175 6.48479C7.07692 6.02127 8.63769 5.41593 10.1356 4.67592C12.1706 3.65089 13.9825 1.77269 13.9825 1.77269V0C13.9825 0 11.854 2.20983 9.4603 3.41273C7.69787 4.27586 5.86281 4.98204 3.97642 5.52308C3.81082 9.48323 4.7648 13.4099 6.72892 16.8526C9.87936 22.4149 13.9644 23.7534 13.9644 23.7534V21.9838C13.9644 21.9838 10.4944 20.8623 7.81122 16.1321Z" fill="#2C5871"/>
<path d="M23.9825 5.54416C22.0972 5.00282 20.2632 4.29665 18.5017 3.43381C16.1109 2.2279 13.9795 0.0210876 13.9795 0.0210876V1.79377C13.9795 1.79377 15.7884 3.67198 17.8233 4.69701C19.3224 5.43676 20.8842 6.04209 22.4902 6.50587C22.6312 9.87784 21.8194 13.2213 20.1477 16.1532C17.4585 20.8622 13.9825 22.0049 13.9825 22.0049V23.7745C13.9825 23.7745 18.0796 22.436 21.218 16.8737C23.1854 13.4318 24.1435 9.50538 23.9825 5.54416Z" fill="#0F303F"/>
<path d="M20.1509 16.1321C21.8225 13.2003 22.6344 9.85677 22.4934 6.4848C20.8873 6.02101 19.3256 5.41569 17.8265 4.67593C15.7945 3.65091 13.9827 1.77271 13.9827 1.77271V21.9958C13.9827 21.9958 17.4587 20.8623 20.1509 16.1321Z" fill="#03AAB6"/>
<path d="M10.1358 4.68497C8.63784 5.42498 7.07707 6.03032 5.47191 6.49383C5.32901 9.86561 6.13986 13.2093 7.81137 16.1411C10.4945 20.8713 13.9826 22.0139 13.9826 22.0139V1.78174C13.9826 1.78174 12.1707 3.65994 10.1358 4.68497Z" fill="#4BCDD6"/>
<path d="M18.0615 8.09769C17.9223 8.00776 17.7531 7.97662 17.591 8.01108C17.4288 8.04554 17.2869 8.1428 17.1963 8.28159L14.0911 13.048V15.303V15.3211L18.2334 8.96293C18.2793 8.89495 18.3112 8.81855 18.3274 8.73815C18.3436 8.65775 18.3437 8.57494 18.3278 8.49449C18.3118 8.41405 18.28 8.33757 18.2343 8.26946C18.1886 8.20136 18.1299 8.14297 18.0615 8.09769Z" fill="white"/>
<path d="M14.067 13.066L12.0682 10.1417C11.9718 10.0105 11.8283 9.92184 11.6678 9.89453C11.5073 9.86723 11.3425 9.90341 11.2082 9.99542C11.0739 10.0874 10.9807 10.2281 10.9482 10.3876C10.9157 10.5471 10.9465 10.713 11.0341 10.8502L14.079 15.3V13.0449L14.067 13.066Z" fill="white"/>
</svg>
