<svg width="24" height="24" viewBox="0 0 24 24" fill="none" xmlns="http://www.w3.org/2000/svg">
<path d="M9.12675 1.32507C8.17473 1.32507 7.24408 1.60738 6.4525 2.1363C5.66092 2.66521 5.04396 3.41698 4.67964 4.29654C4.31532 5.17609 4.21999 6.14393 4.40573 7.07766C4.59146 8.01139 5.04989 8.86908 5.72307 9.54226C6.39626 10.2154 7.25395 10.6739 8.18768 10.8596C9.12141 11.0454 10.0892 10.95 10.9688 10.5857C11.8484 10.2214 12.6001 9.60442 13.129 8.81284C13.658 8.02126 13.9403 7.09062 13.9403 6.13859C13.9385 4.86252 13.4308 3.63922 12.5284 2.7369C11.6261 1.83458 10.4028 1.32686 9.12675 1.32507Z" fill="#C5F4F9"/>
<path d="M9.12678 9.33851e-07C7.91536 9.33851e-07 6.73114 0.35923 5.72388 1.03226C4.71662 1.70529 3.93155 2.6619 3.46796 3.78111C3.00437 4.90032 2.88307 6.13186 3.1194 7.32001C3.35574 8.50815 3.9391 9.59954 4.7957 10.4561C5.65231 11.3127 6.74369 11.8961 7.93184 12.1324C9.11999 12.3688 10.3515 12.2475 11.4707 11.7839C12.59 11.3203 13.5466 10.5352 14.2196 9.52797C14.8926 8.52071 15.2518 7.33649 15.2518 6.12507C15.2523 5.32059 15.0942 4.52391 14.7865 3.78058C14.4789 3.03725 14.0277 2.36185 13.4588 1.793C12.89 1.22415 12.2146 0.772997 11.4713 0.465341C10.7279 0.157685 9.93126 -0.000443408 9.12678 9.33851e-07ZM9.12678 10.9352C8.17461 10.9352 7.24384 10.6528 6.45218 10.1237C5.66053 9.59468 5.04357 8.84271 4.67934 7.96296C4.31512 7.08321 4.22 6.1152 4.406 5.18137C4.59201 4.24755 5.05078 3.38987 5.7243 2.71682C6.39782 2.04377 7.25583 1.5856 8.18979 1.40025C9.12374 1.2149 10.0917 1.31071 10.9712 1.67555C11.8507 2.04039 12.6022 2.65788 13.1307 3.4499C13.6592 4.24193 13.941 5.1729 13.9403 6.12507C13.9412 6.75792 13.8174 7.38474 13.5759 7.96971C13.3344 8.55468 12.9801 9.08635 12.533 9.53431C12.086 9.98227 11.5551 10.3378 10.9707 10.5804C10.3862 10.8231 9.75963 10.9483 9.12678 10.9487V10.9352Z" fill="#51C4CE"/>
<path d="M9.64749 5.06366H8.59961V8.91042H9.64749V5.06366Z" fill="#FF4800"/>
<path d="M8.61649 5.28336H9.65085V4.69519H8.16016V4.82702C8.28118 4.82702 8.39725 4.8751 8.48283 4.96068C8.56841 5.04626 8.61649 5.16233 8.61649 5.28336Z" fill="#FF4800"/>
<path d="M9.13025 3.03549H9.11673C8.76762 3.03549 8.48462 3.3185 8.48462 3.66761V3.68113C8.48462 4.03023 8.76762 4.31324 9.11673 4.31324H9.13025C9.47935 4.31324 9.76236 4.03023 9.76236 3.68113V3.66761C9.76236 3.3185 9.47935 3.03549 9.13025 3.03549Z" fill="#FF4800"/>
<path d="M10.1882 9.23832H8.06201V8.95099C8.21442 8.95099 8.36058 8.89045 8.46835 8.78268C8.57612 8.67491 8.63665 8.52875 8.63665 8.37634H9.61356C9.61356 8.52875 9.6741 8.67491 9.78187 8.78268C9.88964 8.89045 10.0358 8.95099 10.1882 8.95099V9.23832Z" fill="#FF4800"/>
<path d="M16.4586 18.2535L8.80901 20.6197L3.32282 19.44L0 15.8569C0 15.8569 0.733519 14.738 1.77803 15.5865C2.82253 16.4349 3.86366 17.4997 3.86366 17.4997C3.86366 17.4997 6.95324 18.311 7.07155 18.3482C7.18986 18.3853 10.2389 15.982 10.2389 15.982L15.1842 15.2789L16.4586 18.2535Z" fill="#F9C172"/>
<path d="M24.0001 23.8546L18.6626 14.9442C18.149 14.1045 17.358 13.4709 16.4265 13.153C15.495 12.8351 14.4816 12.8529 13.5618 13.2034L10.6514 14.3121L8.21758 14.5453L5.72293 13.8591C5.52682 13.8056 5.31815 13.8222 5.13298 13.9061C4.94782 13.99 4.7978 14.136 4.70885 14.3189C4.60982 14.523 4.59395 14.7577 4.66457 14.9734C4.7352 15.189 4.88681 15.3689 5.08744 15.4749L7.27448 16.6107L11.3579 16.5634L15.0762 16.6242L18.9804 23.8648L24.0001 23.8546Z" fill="#FACB88"/>
</svg>
