<svg width="24" height="24" viewBox="0 0 24 24" fill="none" xmlns="http://www.w3.org/2000/svg">
<rect width="24" height="24" rx="6" fill="#20A0DC"/>
<g clip-path="url(#clip0_73_2)">
<path d="M10.8224 15.6224L8.84956 17.5968C8.18396 18.2624 7.10556 18.2624 6.43836 17.5968L6.43676 17.5952C5.77116 16.9296 5.77116 15.8496 6.43676 15.1856L9.71676 11.9056C10.3824 11.24 11.456 11.2448 12.12 11.9104C12.2288 12.0192 12.4336 12.224 12.4544 12.2032C12.752 12.3648 13.1312 12.32 13.3808 12.0688C13.6288 11.8192 13.6768 11.4448 13.52 11.1472L13.5216 11.1456C13.5184 11.1408 13.5136 11.136 13.5104 11.1296C13.4768 11.0688 13.4336 11.0128 13.3824 10.9616C13.3648 10.9424 13.3472 10.928 13.3264 10.9104C13.2944 10.8752 13.2608 10.8384 13.2256 10.8048C11.9504 9.5312 9.87676 9.5312 8.60316 10.8032L5.33276 14.08C4.05916 15.3536 4.05916 17.4272 5.33276 18.7008C6.60796 19.976 8.68156 19.976 9.95516 18.7024L13.0064 15.6512C12.3152 15.9696 11.5088 15.9584 10.8224 15.6224ZM17.9184 6.1168C16.6416 4.8416 14.5696 4.8416 13.2944 6.1152L10.2448 9.1664C10.936 8.848 11.744 8.8608 12.4272 9.1952L14.4016 7.2208C15.0672 6.5552 16.1472 6.5552 16.8112 7.2208V7.2224C17.4768 7.888 17.4768 8.9664 16.8112 9.6336L13.5328 12.9136C12.8672 13.5792 11.7936 13.5744 11.1296 12.9088L11.128 12.9072C11.0192 12.7984 10.8144 12.5936 10.7936 12.6144C10.496 12.4528 10.1168 12.4992 9.86716 12.7488C9.61756 12.9984 9.57116 13.3728 9.72796 13.6704C9.72636 13.6704 9.72636 13.672 9.72636 13.672C9.72956 13.6768 9.73436 13.6816 9.73756 13.688C9.77116 13.7488 9.81436 13.8048 9.86716 13.856C9.88476 13.8752 9.90236 13.8896 9.92316 13.9072C9.95516 13.9424 9.98876 13.9792 10.024 14.0128C11.2976 15.2896 13.3712 15.2896 14.6448 14.016L17.9184 10.7424C19.192 9.464 19.192 7.392 17.9184 6.1168Z" fill="white"/>
</g>
<defs>
<clipPath id="clip0_73_2">
<rect width="16" height="16" fill="white" transform="translate(4 5)"/>
</clipPath>
</defs>
</svg>
