<svg width="24" height="25" viewBox="0 0 24 25" fill="none" xmlns="http://www.w3.org/2000/svg">
<path d="M24 12.006C24 12.1815 23.9959 12.3558 23.9878 12.5286C23.8922 14.8287 23.1336 17.052 21.8034 18.9306C21.5945 19.2261 21.3714 19.5135 21.1355 19.7879C20.0314 21.086 18.6637 22.1342 17.1234 22.8627C16.5967 23.113 16.0518 23.3229 15.4933 23.4907C14.5288 23.7855 13.5305 23.9556 12.5228 23.9968C12.3497 24.0049 12.1758 24.0097 12 24.0097C11.8242 24.0097 11.65 24.0049 11.4775 23.9968C10.4698 23.9557 9.47157 23.7856 8.50708 23.4907C7.94851 23.3232 7.40354 23.1133 6.87692 22.8627C5.33653 22.1342 3.96876 21.0861 2.86449 19.7879C2.62855 19.5135 2.40554 19.2264 2.19692 18.9306C0.866382 17.052 0.107737 14.8283 0.0125537 12.5279C0.00369217 12.355 0 12.1807 0 12.0052C0 11.8298 0.00369217 11.655 0.0125537 11.4822C0.107463 9.18137 0.866123 6.95725 2.19692 5.07839C2.40542 4.78288 2.62794 4.49709 2.86449 4.22103C3.96864 2.92287 5.33645 1.87481 6.87692 1.14659C7.40361 0.896225 7.94857 0.686297 8.50708 0.518627C9.47158 0.223838 10.4699 0.053891 11.4775 0.0129323C11.65 0.00406691 11.8246 0 12 0C12.1754 0 12.3497 0.00406691 12.5228 0.0129323C13.5305 0.0539557 14.5288 0.223901 15.4933 0.518627C16.0517 0.686549 16.5967 0.896469 17.1234 1.14659C18.6638 1.87486 20.0315 2.92291 21.1355 4.22103C21.3713 4.49709 21.594 4.78288 21.8034 5.07839C23.1339 6.95717 23.8925 9.18093 23.9878 11.4814C23.9959 11.6553 24 11.8301 24 12.006Z" fill="#72CEEF"/>
<path d="M23.9878 12.5286C23.9959 12.3563 24 12.182 24 12.006C24 11.8299 23.9959 11.6555 23.9878 11.4829H19.3846C19.3554 9.38623 19.1516 7.5969 18.8433 6.07538C19.8576 5.82992 20.8486 5.49683 21.8053 5.07987C21.5963 4.78436 21.3737 4.49857 21.1374 4.22251C20.3169 4.56193 19.4717 4.8383 18.6092 5.04921C18.1968 3.41687 17.664 2.13619 17.1242 1.14807C16.5974 0.897948 16.0525 0.688028 15.494 0.520106C15.761 0.892609 16.0039 1.28174 16.2214 1.68516C16.68 2.53476 17.1814 3.71201 17.5817 5.28008C16.1701 5.55897 14.4956 5.75105 12.5232 5.77912V0H11.4775V5.77765C9.50511 5.74957 7.83065 5.55601 6.41908 5.2786C6.81932 3.71053 7.32037 2.53403 7.77895 1.68369C7.99641 1.28018 8.2395 0.891029 8.50671 0.518627C7.9482 0.686298 7.40324 0.896225 6.87655 1.14659C6.33637 2.13471 5.80357 3.41539 5.39114 5.04773C4.52904 4.83676 3.68425 4.5604 2.86412 4.22104C2.62855 4.49709 2.40615 4.78288 2.19692 5.07839C3.15338 5.49604 4.14431 5.82975 5.15852 6.07575C4.85022 7.59727 4.6464 9.3866 4.61723 11.4833H0.0125537C0.00369217 11.6561 0 11.8305 0 12.0063C0 12.1822 0.00369217 12.3561 0.0125537 12.529H4.61723C4.6464 14.6253 4.85022 16.4146 5.15852 17.9354C4.1445 18.1821 3.15363 18.5158 2.19692 18.9328C2.40554 19.2283 2.62855 19.5157 2.86449 19.7901C3.68454 19.4509 4.52904 19.1742 5.39077 18.9623C5.8032 20.5943 6.336 21.875 6.87618 22.8635C7.4028 23.114 7.94777 23.3239 8.50634 23.4914C8.23939 23.1199 7.99656 22.7316 7.77932 22.329C7.32074 21.4794 6.81932 20.3021 6.41945 18.7344C7.83065 18.4555 9.50511 18.2645 11.4779 18.235V24.013H12.5232V18.2335C14.4953 18.2631 16.1697 18.4552 17.5817 18.7329C17.181 20.3006 16.68 21.4786 16.2214 22.3275C16.004 22.731 15.7611 23.1201 15.494 23.4925C16.0525 23.3248 16.5975 23.1149 17.1242 22.8646C17.664 21.8761 18.195 20.5954 18.6092 18.9634C19.4712 19.1748 20.3159 19.451 21.1362 19.7898C21.3722 19.5153 21.5952 19.2283 21.8042 18.9324C20.8473 18.5155 19.8563 18.1818 18.8422 17.9351C19.1505 16.4143 19.3543 14.6249 19.3835 12.5286H23.9878ZM6.18535 6.30329C7.68148 6.5988 9.43458 6.79421 11.4775 6.82303V11.4829H5.66215C5.69095 9.45457 5.89403 7.74059 6.18535 6.30329ZM6.18535 17.7079C5.89403 16.2709 5.69095 14.557 5.66215 12.5286H11.4775V17.1881C9.43348 17.217 7.68 17.412 6.18535 17.7079ZM17.8161 17.7079C16.3196 17.4124 14.5669 17.217 12.5239 17.1881V12.5286H18.3393C18.3087 14.557 18.1063 16.2709 17.815 17.7079H17.8161ZM12.5228 11.4829V6.82303C14.5669 6.79421 16.3185 6.59917 17.815 6.30329C18.1063 7.74059 18.3087 9.45457 18.3382 11.4829H12.5228Z" fill="#008EC0"/>
<path d="M12.0001 8.55067V16.483H3.34202C3.17658 16.4826 3.01803 16.4166 2.90108 16.2996C2.78414 16.1825 2.71831 16.0239 2.71802 15.8583V9.17531C2.71831 9.0098 2.78414 8.85115 2.90108 8.73408C3.01803 8.61701 3.17658 8.55106 3.34202 8.55067H12.0001Z" fill="#F8EA6D"/>
<path d="M21.2817 9.17531V15.8583C21.2814 16.024 21.2155 16.1827 21.0984 16.2998C20.9813 16.4169 20.8226 16.4828 20.657 16.483H12V8.55067H20.6559C20.8216 8.55058 20.9807 8.61631 21.098 8.73343C21.2154 8.85055 21.2814 9.00948 21.2817 9.17531Z" fill="#F8E132"/>
<path d="M4.50879 10.999H5.45107L5.96023 13.0905L6.47162 10.999H7.28171L7.79088 13.0676L8.30227 10.999H9.24491L8.4459 14.0332H7.38694L6.87556 11.9491L6.36639 14.035H5.30744L4.50879 10.999Z" fill="#4F4F4F"/>
<path d="M9.63184 10.999H10.5741L11.0837 13.0905L11.5939 10.999H12.4062L12.9158 13.0676L13.4272 10.999H14.3698L13.5708 14.0332H12.5107L12.0001 11.9491L11.4909 14.035H10.4309L9.63184 10.999Z" fill="#4F4F4F"/>
<path d="M14.7551 10.999H15.6974L16.2066 13.0905L16.7187 10.999H17.528L18.0372 13.0676L18.549 10.999H19.4913L18.6926 14.0332H17.6337L17.1219 11.9491L16.6127 14.035H15.5541L14.7551 10.999Z" fill="#4F4F4F"/>
</svg>
