<svg width="24" height="19" viewBox="0 0 24 19" fill="none" xmlns="http://www.w3.org/2000/svg">
<path d="M21.4218 6.48106C21.0473 6.48097 20.6767 6.55756 20.3329 6.70611C20.3825 6.50414 20.4081 6.29701 20.4091 6.08903C20.4091 5.39939 20.1354 4.73794 19.6481 4.24996C19.1608 3.76197 18.4997 3.48734 17.8101 3.48638C17.5299 3.48581 17.2515 3.53117 16.9861 3.62068C16.8629 2.89872 16.5008 2.23908 15.9577 1.74766C15.4147 1.25623 14.7223 0.961526 13.9916 0.910863C13.261 0.8602 12.5345 1.05652 11.9289 1.46829C11.3232 1.88006 10.8735 2.48341 10.6519 3.18147C10.4962 2.5996 10.2197 2.05703 9.84044 1.58908C9.46119 1.12113 8.98766 0.738277 8.45066 0.465432C7.91366 0.192587 7.32523 0.0358636 6.72366 0.00546684C6.12209 -0.0249299 5.52085 0.071684 4.95909 0.28901C4.39732 0.506335 3.88761 0.839502 3.46312 1.26684C3.03863 1.69418 2.70887 2.20611 2.49531 2.76932C2.28175 3.33253 2.18917 3.93439 2.22359 4.53575C2.25801 5.1371 2.41866 5.72448 2.6951 6.25964C1.95548 6.29707 1.25979 6.62207 0.756446 7.16528C0.253107 7.70849 -0.0180159 8.4269 0.000930133 9.16721C0.0198762 9.90753 0.327385 10.6111 0.857851 11.1279C1.38832 11.6446 2.09973 11.9336 2.84029 11.9332H21.4146C22.1123 11.8971 22.7695 11.5946 23.2507 11.088C23.7318 10.5814 24 9.9094 24 9.21075C24 8.5121 23.7318 7.84012 23.2507 7.33351C22.7695 6.82691 22.1123 6.52435 21.4146 6.48831L21.4218 6.48106Z" fill="#BCBBBD"/>
<g style="mix-blend-mode:multiply" opacity="0.5">
<path d="M20.2785 11.8969C20.492 10.4928 20.5347 9.06793 20.4056 7.65353C17.5016 7.17801 13.9153 4.216 13.9153 4.216C13.9153 4.216 10.3362 7.17801 7.42497 7.65353C7.29365 9.06786 7.33632 10.493 7.55202 11.8969H20.2785Z" fill="#C1C1C1"/>
</g>
<path d="M18.057 7.65353C15.153 7.17801 11.5667 4.216 11.5667 4.216C11.5667 4.216 7.98394 7.17801 5.07275 7.65353C5.07275 7.65353 3.83132 18.3473 11.5667 18.3473C19.302 18.3473 18.057 7.65353 18.057 7.65353Z" fill="#343643"/>
<path d="M16.2638 11.7118C16.4185 10.6834 16.4489 9.6402 16.3545 8.60457C14.2056 8.24158 11.5667 6.06363 11.5667 6.06363V11.7045L16.2638 11.7118Z" fill="#F5EAD4"/>
<path d="M11.5666 6.07089C11.5666 6.07089 8.92406 8.24884 6.77878 8.61183C6.68409 9.64735 6.71334 10.6905 6.8659 11.719H11.5666V6.07089Z" fill="#BF2430"/>
<path d="M11.5667 11.7118V16.4924C14.8336 16.4924 15.9225 13.9188 16.2638 11.7118H11.5667Z" fill="#BF2430"/>
<path d="M6.86591 11.7118C7.21075 13.9188 8.31788 16.4924 11.5667 16.4924V11.7118H6.86591Z" fill="#F5EAD4"/>
</svg>
