<svg width="24" height="21" viewBox="0 0 24 21" fill="none" xmlns="http://www.w3.org/2000/svg">
<path d="M24 11.3356C24 9.78951 23.3861 8.30674 22.2931 7.21324C21.2002 6.11974 19.7177 5.50502 18.1717 5.50424H13.9551C13.1894 5.50424 12.4313 5.6551 11.724 5.94818C11.0167 6.24127 10.374 6.67085 9.83276 7.21238C9.2915 7.7539 8.86226 8.39676 8.56953 9.10424C8.2768 9.81171 8.12632 10.5699 8.12671 11.3356C8.12671 12.8813 8.74077 14.3638 9.8338 15.4568C10.9268 16.5499 12.4093 17.1639 13.9551 17.1639H16.4302C17.9595 19.5212 20.2991 20.7853 22.3735 20.7941C21.7999 20.2672 21.3435 19.6255 21.0338 18.9108C20.7241 18.1961 20.5682 17.4242 20.5761 16.6453C21.5966 16.1828 22.4623 15.436 23.0695 14.4943C23.6767 13.5527 23.9998 12.456 24 11.3356Z" fill="#3BCEE2"/>
<path d="M13.7104 15.2722L16.3329 7.95877H17.379L20.0014 15.2722H18.9583L18.257 13.298H15.4578L14.7565 15.2722H13.7104ZM15.7731 12.3993H17.9477L16.8604 9.34662L15.7731 12.3993Z" fill="#E23A00"/>
<path d="M10.045 0H5.83132C4.28527 -1.97367e-07 2.8025 0.613963 1.709 1.70691C0.615497 2.79986 0.000781229 4.28232 0 5.82837C0.00140606 6.94783 0.325002 8.04322 0.932151 8.98373C1.5393 9.92424 2.40434 10.6701 3.42395 11.1323C3.43183 11.9111 3.27589 12.683 2.96624 13.3977C2.65659 14.1125 2.20015 14.7541 1.62652 15.2811C3.68914 15.2811 6.04642 14.0052 7.56981 11.6509H10.045C10.8107 11.6509 11.569 11.5 12.2765 11.207C12.984 10.9139 13.6268 10.4844 14.1683 9.9429C14.7098 9.40141 15.1393 8.75857 15.4324 8.05108C15.7254 7.34359 15.8763 6.58531 15.8763 5.81953C15.8732 4.27501 15.2574 2.79482 14.1642 1.70379C13.0709 0.612749 11.5895 -3.15494e-06 10.045 0Z" fill="#74ACDF"/>
<path d="M10.8581 9.74735L10.1804 9.18455C9.52937 9.67204 8.73658 9.93286 7.92328 9.92709C5.83415 9.92709 4.31665 8.45379 4.31665 6.12303C4.31665 3.79227 5.83415 2.31897 7.92328 2.31897C10.0124 2.31897 11.527 3.79227 11.527 6.12303C11.5355 7.01501 11.2657 7.88745 10.755 8.6188L11.3826 9.13151L10.8581 9.74735ZM5.40395 6.12303C5.40395 7.7525 6.22899 9.02838 7.92328 9.02838C8.47919 9.05346 9.02942 8.90742 9.49972 8.60996L8.42421 7.72598L8.94576 7.08657L10.0448 8.05895C10.4086 7.47907 10.5837 6.80064 10.5458 6.11714C10.5458 4.48472 9.61463 3.21179 7.92328 3.21179C6.23194 3.21179 5.40395 4.49061 5.40395 6.12303Z" fill="#FF4800"/>
</svg>
