<svg width="24" height="29" viewBox="0 0 24 29" fill="none" xmlns="http://www.w3.org/2000/svg">
<path d="M4.59654 19.5943C2.59532 16.085 1.62318 12.0829 1.79151 8.04655C3.71461 7.48975 5.58501 6.76488 7.38109 5.88033C9.07713 4.94739 10.63 3.77513 11.992 2.39963V0.266174C11.992 0.266174 9.44084 2.9115 6.57439 4.36111C4.46913 5.40014 2.27676 6.25243 0.0224921 6.90816C-0.177953 11.6544 0.96462 16.3609 3.31892 20.487C7.09445 27.1494 12.0084 28.7546 12.0084 28.7546V26.6335C12.0084 26.6335 7.81106 25.2658 4.59654 19.5943Z" fill="#2C5871"/>
<path d="M7.38113 5.87625C5.58518 6.76221 3.71478 7.48844 1.79154 8.04656C1.62244 12.0842 2.59461 16.0879 4.59658 19.5984C7.8111 25.2699 11.992 26.6376 11.992 26.6376V2.39555C10.6301 3.77105 9.07717 4.94331 7.38113 5.87625Z" fill="#C12106"/>
<path d="M14.8912 4.84024L15.4563 3.20226C14.2188 2.33464 13.0596 1.36042 11.9919 0.290756V2.41193C12.8871 3.30283 13.857 4.11526 14.8912 4.84024Z" fill="#0F303F"/>
<path d="M23.9778 6.90816C21.7235 6.25243 19.5312 5.40015 17.4259 4.36111L16.7257 5.93767C18.4829 6.79569 20.3104 7.50124 22.1883 8.04656C22.3574 12.0842 21.3853 16.0879 19.3833 19.5984C16.1688 25.2699 11.9919 26.6376 11.9919 26.6376V28.7587C11.9919 28.7587 16.9059 27.1535 20.6814 20.4911C23.0342 16.3629 24.1766 11.6555 23.9778 6.90816Z" fill="#0F303F"/>
<path d="M19.3835 19.5943C21.3847 16.085 22.3568 12.0829 22.1885 8.04657C20.3106 7.50125 18.483 6.7957 16.7259 5.93768L15.9478 7.71488L19.4367 8.12437L14.3917 14.5084L16.3573 9.63541H13.2656L14.9036 4.83614C13.8683 4.10205 12.8984 3.28001 12.0044 2.37918V26.6171C12.0044 26.6171 16.1689 25.2658 19.3835 19.5943Z" fill="#A81D05"/>
<path d="M15.4564 1.94509C15.3858 1.94509 15.3181 1.91704 15.2681 1.86713C15.2182 1.81721 15.1902 1.74952 15.1902 1.67893V0.266168C15.1902 0.195575 15.2182 0.127871 15.2681 0.0779547C15.3181 0.028038 15.3858 0 15.4564 0C15.5269 0 15.5947 0.028038 15.6446 0.0779547C15.6945 0.127871 15.7225 0.195575 15.7225 0.266168V1.67073C15.7236 1.70637 15.7175 1.74186 15.7047 1.7751C15.6918 1.80835 15.6724 1.83868 15.6475 1.86427C15.6227 1.88986 15.593 1.91019 15.5601 1.92407C15.5273 1.93796 15.492 1.94511 15.4564 1.94509Z" fill="#C12106"/>
<path d="M17.2989 2.199C17.2675 2.18418 17.2395 2.16318 17.2164 2.13726C17.1933 2.11135 17.1757 2.08104 17.1646 2.04816C17.1536 2.01528 17.1492 1.98051 17.1519 1.94591C17.1546 1.91132 17.1642 1.87762 17.1802 1.84682L17.7944 0.581491C17.8253 0.517958 17.8803 0.469327 17.9471 0.446289C18.0139 0.42325 18.0871 0.427696 18.1507 0.458648C18.2142 0.489601 18.2628 0.544522 18.2859 0.611334C18.3089 0.678145 18.3045 0.751372 18.2735 0.814906L17.6552 2.08024C17.6235 2.14311 17.5683 2.1909 17.5016 2.21315C17.4348 2.23541 17.3619 2.23032 17.2989 2.199Z" fill="#C12106"/>
<path d="M18.0687 3.54214C18.0563 3.50963 18.0505 3.47498 18.0517 3.4402C18.0528 3.40542 18.0608 3.37121 18.0753 3.33958C18.0898 3.30794 18.1104 3.2795 18.136 3.25592C18.1616 3.23235 18.1916 3.21411 18.2244 3.20226L19.5388 2.70268C19.5721 2.6864 19.6083 2.67723 19.6453 2.67576C19.6823 2.67429 19.7192 2.68055 19.7536 2.69414C19.7881 2.70774 19.8193 2.72837 19.8453 2.75472C19.8713 2.78106 19.8915 2.81253 19.9047 2.84713C19.9178 2.88173 19.9236 2.9187 19.9217 2.95566C19.9198 2.99263 19.9101 3.02879 19.8934 3.06182C19.8767 3.09486 19.8533 3.12405 19.8247 3.14753C19.7961 3.171 19.7629 3.18825 19.7272 3.19816L18.4127 3.69775C18.3464 3.72183 18.2733 3.71904 18.2091 3.68996C18.1448 3.66089 18.0944 3.60783 18.0687 3.54214Z" fill="#C12106"/>
<path d="M10.7144 14.9056C10.7139 14.7697 10.7402 14.6351 10.7918 14.5094C10.8434 14.3837 10.9193 14.2695 11.0152 14.1732C11.1111 14.077 11.225 14.0006 11.3505 13.9485C11.476 13.8964 11.6105 13.8695 11.7463 13.8695H12.2213C12.3572 13.8695 12.4917 13.8964 12.6172 13.9485C12.7427 14.0006 12.8566 14.077 12.9525 14.1732C13.0484 14.2695 13.1243 14.3837 13.1759 14.5094C13.2275 14.6351 13.2538 14.7697 13.2533 14.9056V15.4788H14.1214V14.9056C14.1214 14.4013 13.9213 13.9176 13.5651 13.5606C13.2089 13.2036 12.7256 13.0025 12.2213 13.0014H11.734C11.2297 13.0025 10.7465 13.2036 10.3903 13.5606C10.0341 13.9176 9.834 14.4013 9.83401 14.9056V16.6459H9.15015V20.8227H14.8053V16.6459H10.7103L10.7144 14.9056Z" fill="white"/>
</svg>
