<svg width="58" height="126" viewBox="0 0 58 126" fill="none" xmlns="http://www.w3.org/2000/svg">
<path d="M35.5274 55.4303H11.2959V70.5805H35.5274V55.4303Z" fill="#D4935A"/>
<path d="M11.2956 39.6395L12.9725 58.8002C8.9885 59.0065 1.43722 60.848 2.6814 38.9871C2.6814 38.9871 1.76611 32.5763 0.902058 25.9475C0.578951 23.4274 0.258783 20.8765 0.00292969 18.6343C0.34802 18.519 0.703544 18.4377 1.06439 18.3915C9.78827 17.2681 11.1304 39.9905 11.1304 39.9905L11.2956 39.6395Z" fill="#D4935A"/>
<path d="M0.900627 25.9358C0.576059 23.4157 0.255854 20.8648 0 18.6226C0.345334 18.5079 0.700758 18.4261 1.06146 18.3783C1.52984 19.1135 1.87087 19.9225 2.07024 20.7712C2.65505 23.1422 2.1258 25.3142 0.900627 25.9358Z" fill="#FCD9C1"/>
<path d="M9.00539 3.58791L8.98926 54.2192C8.98868 54.691 9.0812 55.1584 9.26146 55.5944C9.44173 56.0304 9.70624 56.4265 10.0398 56.7601C10.3734 57.0937 10.7695 57.3581 11.2053 57.5383C11.6412 57.7184 12.1084 57.8108 12.58 57.81H24.6022L24.6197 7.46232e-06H12.5961C12.1247 -0.000954848 11.6576 0.0911636 11.2218 0.271077C10.786 0.450991 10.3901 0.715169 10.0565 1.04847C9.72294 1.38177 9.45839 1.77764 9.27802 2.2134C9.09766 2.64916 9.00501 3.11626 9.00539 3.58791Z" fill="#595A5A"/>
<path d="M24.6191 0.00153334L24.6016 57.8115H36.6238C37.0953 57.8117 37.5624 57.7189 37.9981 57.5385C38.4338 57.358 38.8298 57.0934 39.1632 56.7598C39.4967 56.4262 39.7612 56.0301 39.9416 55.5942C40.1219 55.1583 40.2147 54.6911 40.2145 54.2193L40.2291 3.58797C40.2295 3.11651 40.1369 2.64962 39.9566 2.21403C39.7763 1.77845 39.5119 1.38273 39.1784 1.04957C38.845 0.716402 38.4491 0.452336 38.0135 0.272496C37.5779 0.0926558 37.1111 0.000571033 36.6399 0.00153334H24.6191Z" fill="#686868"/>
<path d="M24.6162 2.20569L24.6016 52.4289H37.4556C37.5884 52.4291 37.72 52.4031 37.8427 52.3524C37.9654 52.3017 38.077 52.2273 38.1709 52.1334C38.2649 52.0395 38.3394 51.928 38.3903 51.8053C38.4412 51.6826 38.4674 51.5511 38.4674 51.4182L38.4747 3.21932C38.4745 3.08659 38.4482 2.95521 38.3972 2.83266C38.3463 2.71011 38.2717 2.59879 38.1778 2.50508C38.0838 2.41136 37.9723 2.33708 37.8497 2.28646C37.727 2.23585 37.5957 2.20989 37.463 2.21008L24.6162 2.20569Z" fill="#D8EEEC"/>
<path d="M23.3911 54.9198C23.3908 55.1596 23.4616 55.3942 23.5946 55.5937C23.7275 55.7933 23.9166 55.9489 24.138 56.041C24.3593 56.133 24.603 56.1573 24.8381 56.1108C25.0733 56.0643 25.2894 55.9491 25.4591 55.7797C25.6288 55.6104 25.7445 55.3944 25.7915 55.1593C25.8386 54.9241 25.8149 54.6803 25.7234 54.4586C25.632 54.2369 25.4768 54.0474 25.2777 53.9139C25.0785 53.7804 24.8443 53.709 24.6046 53.7087C24.4454 53.7085 24.2878 53.7397 24.1407 53.8005C23.9936 53.8613 23.8598 53.9504 23.7471 54.0629C23.6344 54.1753 23.545 54.3089 23.4839 54.4559C23.4228 54.603 23.3913 54.7606 23.3911 54.9198Z" fill="#F9EF75"/>
<path d="M23.7173 54.9198C23.7156 55.0959 23.7663 55.2684 23.863 55.4155C23.9596 55.5626 24.0979 55.6776 24.2602 55.7458C24.4224 55.8139 24.6013 55.8322 24.7739 55.7983C24.9466 55.7644 25.1053 55.6798 25.2297 55.5553C25.3542 55.4308 25.4387 55.2721 25.4726 55.0993C25.5065 54.9266 25.4883 54.7476 25.4201 54.5853C25.352 54.423 25.2371 54.2847 25.09 54.1879C24.943 54.0912 24.7705 54.0405 24.5945 54.0422C24.3619 54.0422 24.1388 54.1347 23.9743 54.2993C23.8097 54.4639 23.7173 54.6871 23.7173 54.9198Z" fill="#FBBB1F"/>
<path d="M18.9604 0.922908C18.9612 1.01214 18.9971 1.09748 19.0603 1.16045C19.1235 1.22341 19.209 1.25893 19.2982 1.25931H29.9315C29.9758 1.25989 30.0199 1.2516 30.0611 1.23492C30.1022 1.21824 30.1396 1.19352 30.1711 1.16218C30.2026 1.13084 30.2274 1.09353 30.2443 1.05244C30.2611 1.01135 30.2696 0.967319 30.2692 0.922908C30.2694 0.878676 30.2608 0.834828 30.244 0.793926C30.2272 0.753023 30.2024 0.715861 30.1712 0.684584C30.1399 0.653306 30.1028 0.628539 30.0619 0.611701C30.021 0.594863 29.9772 0.586296 29.933 0.58649H19.2997C19.2102 0.586487 19.1243 0.621845 19.0608 0.684851C18.9973 0.747858 18.9612 0.833418 18.9604 0.922908Z" fill="white"/>
<path d="M10.7564 3.2076L10.7417 51.4138C10.7408 51.5463 10.766 51.6777 10.8161 51.8004C10.8662 51.923 10.94 52.0346 11.0334 52.1286C11.1268 52.2225 11.2378 52.2971 11.3602 52.3479C11.4825 52.3986 11.6137 52.4247 11.7462 52.4245H24.6016L24.6163 2.20129H11.7607C11.4943 2.20207 11.2391 2.30837 11.0508 2.49697C10.8626 2.68556 10.7567 2.94108 10.7564 3.2076Z" fill="#A8DAD0"/>
<path d="M30.3243 39.3659L33.2483 37.4791C32.7082 37.5098 32.1695 37.3973 31.6868 37.1527C31.2041 36.9082 30.7946 36.5404 30.4998 36.0866C29.4763 34.5084 30.0085 32.6552 31.377 31.7747L41.8932 24.9822C42.5771 24.5419 43.4076 24.3911 44.2025 24.5628C44.9974 24.7344 45.6917 25.2146 46.1331 25.8978L46.1755 25.9563C46.6155 26.6404 46.7663 27.4713 46.5948 28.2665C46.4232 29.0617 45.9432 29.7564 45.2603 30.198L42.5994 31.9283C43.9664 31.8771 44.7047 32.569 45.367 33.5957C45.5734 33.9149 45.7148 34.2717 45.7833 34.6456C45.8518 35.0195 45.8459 35.4032 45.7661 35.7749C45.6862 36.1465 45.534 36.4988 45.318 36.8115C45.102 37.1243 44.8265 37.3914 44.5073 37.5976L41.6418 39.4434C42.9576 39.5034 43.5789 40.1748 44.2018 41.1343C44.4076 41.4531 44.5486 41.8094 44.6167 42.1828C44.6847 42.5563 44.6785 42.9394 44.5984 43.3105C44.5183 43.6815 44.3658 44.033 44.1497 44.345C43.9337 44.6571 43.6582 44.9234 43.3392 45.1288L41.3655 46.4086C42.7237 46.4232 43.4123 47.1399 44.0366 48.1638C44.233 48.4892 44.3633 48.8502 44.4201 49.2261C44.4768 49.602 44.4588 49.9854 44.3671 50.3543C44.2754 50.7232 44.1119 51.0704 43.8858 51.376C43.6597 51.6815 43.3756 51.9394 43.0497 52.1349L32.0246 58.7724C28.6795 60.7836 25.523 55.4215 28.8082 53.4381L30.3536 52.5152C28.086 52.0384 26.6503 48.4929 29.1445 46.884L32.0027 45.0352C29.4105 44.9372 27.7073 41.0494 30.3243 39.3659Z" fill="#F9AC6F"/>
<path d="M30.963 35.2237C30.2159 33.7888 31.6209 32.3072 34.5552 31.2248L36.5348 34.5538C33.8388 36.8604 31.8417 36.9145 30.963 35.2237Z" fill="#FCD9C1"/>
<path d="M30.0953 42.496C29.5529 40.9719 30.7386 39.7711 33.6875 38.4956L35.6686 41.8276C32.9726 44.1312 30.7386 44.2994 30.0953 42.496Z" fill="#FCD9C1"/>
<path d="M28.8251 49.9321C28.0941 48.4914 29.7418 47.3417 32.4188 45.9303L34.3998 49.2622C31.7023 51.5659 29.8734 51.9798 28.8251 49.9321Z" fill="#FCD9C1"/>
<path d="M28.5668 56.8578C27.9221 55.3747 28.9425 54.0978 32.1619 52.856L34.1415 56.188C31.2745 58.224 29.5054 59.0109 28.5668 56.8578Z" fill="#FCD9C1"/>
<path d="M32.4152 70.4971H8.98926V92.0581H32.4152V70.4971Z" fill="#EE3A24"/>
<path d="M51.8991 110.745L30.9177 112.541L29.5302 103.411C24.7128 104.425 19.5636 98.836 15.3325 89.3244C15.3325 89.3244 11.0532 84.464 6.69934 79.3959C5.0458 77.4666 3.38051 75.5096 1.9375 73.7749C7.05457 67.3392 18.1016 79.0083 22.9468 85.5288L21.3078 73.6315L17.9452 54.5483C17.7723 53.7308 17.931 52.878 18.3866 52.1775C18.8421 51.4771 19.5571 50.9864 20.3743 50.8134C21.1915 50.6404 22.044 50.7992 22.7441 51.255C23.4442 51.7107 23.9347 52.4261 24.1076 53.2436L27.3006 70.7955L29.1326 70.7501L28.3562 67.0935C28.1985 66.2825 28.3656 65.442 28.8216 64.7531C29.2776 64.0643 29.9859 63.5823 30.7938 63.4111C31.6018 63.2399 32.4446 63.3933 33.1406 63.8381C33.8365 64.2828 34.3299 64.9834 34.5143 65.7888L35.5303 70.5819L37.3579 70.5366L36.9368 68.5459C36.8513 68.1415 36.8462 67.7242 36.9219 67.3178C36.9976 66.9114 37.1525 66.5239 37.3778 66.1774C37.6032 65.8309 37.8946 65.5323 38.2354 65.2985C38.5761 65.0646 38.9595 64.9002 39.3638 64.8147C39.768 64.7291 40.1852 64.724 40.5914 64.7997C40.9976 64.8754 41.3849 65.0304 41.7312 65.2559C42.0775 65.4814 42.3761 65.7729 42.6098 66.1138C42.8435 66.4546 43.0078 66.8382 43.0934 67.2427L43.7571 70.3771L45.5847 70.3289L45.4517 69.6853C45.3185 68.9599 45.4737 68.2111 45.8841 67.5985C46.2946 66.9858 46.9278 66.5576 47.6491 66.4051C48.3704 66.2526 49.1227 66.3878 49.7458 66.7819C50.369 67.176 50.8137 67.7979 50.9853 68.5152L54.0849 89.3112C55.2077 95.0551 53.2574 98.9194 50.5205 102.883L51.8991 110.745Z" fill="#F0AE6C"/>
<path d="M20.8839 51.7341C22.4746 51.4416 23.3986 53.3547 23.4117 56.4848L19.6017 57.2074C18.3604 53.8798 18.7654 52.1246 20.8839 51.7341Z" fill="#FCD9C1"/>
<path d="M57.9999 125.936H28.8414L27.3677 115.017L30.3604 114.614L53.0115 111.557L56.0042 111.154L57.9999 125.936Z" fill="#EE3A24"/>
<path d="M52.429 107.375L29.7769 110.431L30.346 114.654L52.9982 111.598L52.429 107.375Z" fill="#A8DAD0"/>
<path d="M6.69935 79.3959C5.0458 77.4667 3.38051 75.5096 1.9375 73.7749C2.16241 73.4888 2.41463 73.2253 2.6905 72.988C3.4871 73.3462 4.2176 73.8362 4.85133 74.4375C6.62769 76.1005 7.38211 78.2053 6.69935 79.3959Z" fill="#FCD9C1"/>
<path d="M31.9587 12.336C28.5266 11.7733 24.3058 8.28568 24.3058 8.28568C24.3058 8.28568 20.089 11.7733 16.6568 12.336C16.5065 13.9898 16.5544 15.6556 16.7995 17.2979C17.3464 20.8212 19.1021 26.0407 24.3058 26.0407C29.5094 26.0407 31.2532 20.8371 31.8001 17.2979C32.0516 15.6563 32.1048 13.9904 31.9587 12.336Z" fill="#F4A200"/>
<path d="M25.2568 20.6984H23.3346L22.3042 12.986H26.2832L25.2568 20.6984Z" fill="#1F2225"/>
<path d="M25.2567 22.4223C25.2567 22.6128 25.2002 22.799 25.0944 22.9574C24.9885 23.1158 24.8381 23.2392 24.6622 23.3121C24.4862 23.385 24.2926 23.4041 24.1057 23.3669C23.9189 23.3297 23.7473 23.238 23.6126 23.1033C23.478 22.9686 23.3862 22.797 23.3491 22.6102C23.3119 22.4234 23.331 22.2298 23.4039 22.0538C23.4768 21.8778 23.6002 21.7274 23.7586 21.6216C23.9169 21.5158 24.1031 21.4593 24.2936 21.4593C24.4202 21.4588 24.5457 21.4833 24.6628 21.5315C24.7799 21.5797 24.8862 21.6507 24.9758 21.7402C25.0653 21.8297 25.1362 21.9361 25.1844 22.0532C25.2326 22.1703 25.2572 22.2957 25.2567 22.4223Z" fill="#1F2225"/>
</svg>
