<svg width="24" height="27" viewBox="0 0 24 27" fill="none" xmlns="http://www.w3.org/2000/svg">
<path d="M0.285649 16.5472L1.97039 16.1471C1.43509 13.414 1.99098 10.58 3.51906 8.25161C4.28306 7.05683 5.2901 6.03633 6.47462 5.25653C7.65914 4.47673 8.99461 3.95511 10.3941 3.72563C10.8983 3.6536 11.4385 3.60158 11.4385 3.60158V5.51841L15.8765 2.71719L11.4385 0V1.8408C9.57183 1.92298 7.75177 2.44994 6.12992 3.37781C4.50807 4.30567 3.13137 5.60759 2.11445 7.17514C-1.06694 12.0573 0.285649 16.5472 0.285649 16.5472Z" fill="#FF4800"/>
<path d="M1.79419 20.2569L3.29085 19.3805C3.29085 19.3805 5.33174 22.854 8.38507 23.8505C11.4384 24.8469 12.4429 24.6988 14.0996 24.3587C15.7563 24.0185 15.9684 23.8104 15.9684 23.8104L16.6847 25.4111C13.9852 26.5165 10.9743 26.5948 8.221 25.6312C3.35887 23.8585 1.79419 20.2569 1.79419 20.2569Z" fill="#FF6317"/>
<path d="M21.9551 16.7993L23.6158 17.2315C23.3354 18.3698 22.8862 19.4596 22.2833 20.465C21.6809 21.3381 21.0289 22.1758 20.3304 22.9741L19.1299 21.6935C19.1299 21.6935 20.0063 20.677 20.6065 19.8887C21.1917 18.9236 21.6452 17.8846 21.9551 16.7993Z" fill="#FF7E2D"/>
<path d="M22.2712 13.3498L24 13.2258C23.9396 12.3994 23.8206 11.5783 23.6438 10.7687C23.4461 10.0313 23.1599 9.32047 22.7915 8.65179L21.2388 9.45214C21.5404 10.1125 21.7789 10.7998 21.9511 11.505C22.1552 12.4415 22.2712 13.3498 22.2712 13.3498Z" fill="#FF9944"/>
<path d="M20.2262 7.74738L21.6148 6.68291C21.6148 6.68291 21.1506 6.07064 20.7865 5.68648C20.4223 5.30231 19.722 4.65002 19.722 4.65002L18.6135 6.01062C18.6135 6.01062 18.9737 6.31475 19.4699 6.81097C19.753 7.09676 20.0064 7.41049 20.2262 7.74738Z" fill="#FFB45A"/>
<path d="M6.02808 22.5018C7.06053 23.29 8.23609 23.8703 9.48959 24.2106C10.1141 24.3978 10.7592 24.508 11.4104 24.5387C12.0517 24.5914 12.6967 24.578 13.3353 24.4987C13.5033 24.4747 13.6634 24.4387 13.8275 24.4067C13.2247 24.5084 12.614 24.5567 12.0027 24.5507C9.30878 24.504 6.74314 23.3917 4.86757 21.4574C4.39521 20.9743 3.97288 20.4447 3.60702 19.8767L3.30688 19.4005C3.99782 20.6056 4.92308 21.6601 6.02808 22.5018Z" fill="#F27729"/>
<path d="M3.75104 22.81L3.83908 22.89L3.68701 22.7419L3.75104 22.81Z" fill="#F27729"/>
<path d="M4.72359 23.6904C4.60353 23.5903 4.48348 23.4943 4.36743 23.3902C4.48348 23.4943 4.60353 23.5903 4.72359 23.6904Z" fill="#F27729"/>
<path d="M2.45469 21.2853C2.55473 21.4214 2.65477 21.5574 2.75882 21.6855C2.62276 21.5134 2.4947 21.3293 2.35864 21.1493L2.45469 21.2853Z" fill="#F27729"/>
<path d="M3.2148 22.2297C3.12676 22.1257 3.03472 22.0256 2.95068 21.9176C3.03472 22.0256 3.12276 22.1257 3.2148 22.2297Z" fill="#F27729"/>
<path d="M15.6563 25.7833C15.5563 25.8193 15.4522 25.8433 15.3562 25.8753C15.4562 25.8593 15.5563 25.8193 15.6563 25.7833Z" fill="#F27729"/>
<path d="M5.53982 24.2946C5.39976 24.2026 5.2637 24.1106 5.13965 24.0105C5.2637 24.1106 5.39976 24.2026 5.53982 24.2946Z" fill="#F27729"/>
<path d="M6.30424 24.7749L6.01611 24.6068L6.30424 24.7749Z" fill="#F27729"/>
<path d="M16.5649 25.4591C16.3328 25.5472 16.1007 25.6312 15.8726 25.7072C16.1207 25.6392 16.3328 25.5552 16.5649 25.4591Z" fill="#F27729"/>
<path d="M6.01625 24.6068C5.85218 24.5067 5.69611 24.4027 5.54004 24.2946C5.71612 24.4027 5.85218 24.5067 6.01625 24.6068Z" fill="#F27729"/>
<path d="M15.8723 25.7153L15.6562 25.7833L15.8723 25.7153Z" fill="#F27729"/>
<path d="M2.95087 21.9176L2.75879 21.6895C2.81882 21.7695 2.88684 21.8576 2.95087 21.9176Z" fill="#F27729"/>
<path d="M16.6848 25.4231L16.5647 25.4711L16.6848 25.4231Z" fill="#F27729"/>
<path d="M13.8276 24.4067L14.0998 24.3507L13.8276 24.4067Z" fill="#F27729"/>
<path d="M3.68705 22.742C3.52698 22.5739 3.36691 22.4018 3.21484 22.2297C3.36691 22.4018 3.52298 22.5739 3.68705 22.742Z" fill="#F27729"/>
<path d="M5.13162 24.0105C4.99156 23.9065 4.8555 23.7984 4.73145 23.6904C4.8555 23.7984 4.99156 23.9065 5.13162 24.0105Z" fill="#F27729"/>
<path d="M14.844 26.0234C15.0161 25.9794 15.1841 25.9234 15.3562 25.8753L14.956 25.9834C12.3051 26.6198 9.51626 26.3304 7.05258 25.163C6.80047 25.047 6.55636 24.9149 6.31226 24.7628C6.73164 25.0086 7.16602 25.2278 7.61283 25.4191L14.844 26.0234Z" fill="#F27729"/>
<path d="M4.36735 23.3902C4.18326 23.2262 4.00718 23.0621 3.83911 22.89C4.01119 23.0581 4.18326 23.2302 4.36735 23.3902Z" fill="#F27729"/>
<path d="M10.3019 15.5108C10.7256 15.1954 11.1207 14.8432 11.4824 14.4583C12.0284 13.8864 12.3299 13.1241 12.3228 12.3334C12.3253 11.743 12.1521 11.1651 11.8251 10.6735C11.498 10.1819 11.032 9.7988 10.4865 9.57302C9.94089 9.34724 9.34045 9.289 8.76166 9.40573C8.18287 9.52247 7.65194 9.80888 7.23653 10.2285C6.94019 10.5439 6.70941 10.915 6.5576 11.3203C6.40578 11.7256 6.33595 12.157 6.35214 12.5895V12.8056H7.90883L7.92883 12.6095C7.93308 12.1548 8.08788 11.7143 8.36903 11.357C8.56211 11.1638 8.80814 11.0322 9.076 10.9789C9.34387 10.9256 9.62152 10.953 9.87384 11.0575C10.1262 11.162 10.3418 11.3391 10.4935 11.5662C10.6452 11.7933 10.7261 12.0603 10.7261 12.3334C10.7233 12.732 10.5654 13.1138 10.2859 13.3978C9.95149 13.7618 9.58298 14.0928 9.18538 14.3863L7.65672 15.5268C7.21287 15.8756 6.86246 16.3291 6.63688 16.8466C6.4113 17.3641 6.31759 17.9295 6.36415 18.4921V18.7002H12.3108V17.0995H8.59713C9.07042 16.4764 9.64703 15.9391 10.3019 15.5108Z" fill="#3BCEE2"/>
<path d="M17.2812 14.7064V9.3681H15.7205L12.1189 16.2991H15.6404V18.7002H17.2772V16.2991H18.5217V14.6984L17.2812 14.7064ZM14.9081 14.7064L15.6444 13.1738V14.7064H14.9081Z" fill="#3BCEE2"/>
</svg>
