<svg width="24" height="18" viewBox="0 0 24 18" fill="none" xmlns="http://www.w3.org/2000/svg">
<path d="M23.8686 4.82513H0V9.23191H23.8686V4.82513Z" fill="#BFBFBF"/>
<path d="M2.64675 7.04041C2.64742 7.22416 2.59351 7.40396 2.49184 7.55702C2.39018 7.71007 2.24535 7.82948 2.07572 7.90011C1.90609 7.97074 1.71931 7.98939 1.53906 7.95371C1.35882 7.91803 1.19323 7.82962 1.0633 7.69969C0.933379 7.56976 0.844965 7.40418 0.809284 7.22393C0.773602 7.04369 0.79226 6.8569 0.862885 6.68728C0.933511 6.51765 1.05292 6.37282 1.20598 6.27115C1.35904 6.16949 1.53884 6.11558 1.72258 6.11625C1.96769 6.11625 2.20275 6.21361 2.37606 6.38693C2.54938 6.56024 2.64675 6.79531 2.64675 7.04041Z" fill="#1F2225"/>
<path d="M5.58235 7.04041C5.58302 7.22416 5.52911 7.40396 5.42745 7.55702C5.32578 7.71007 5.18095 7.82948 5.01132 7.90011C4.8417 7.97074 4.65491 7.98939 4.47467 7.95371C4.29442 7.91803 4.12884 7.82962 3.99891 7.69969C3.86898 7.56976 3.78057 7.40418 3.74489 7.22393C3.70921 7.04369 3.72786 6.8569 3.79849 6.68728C3.86912 6.51765 3.98853 6.37282 4.14158 6.27115C4.29464 6.16949 4.47444 6.11558 4.65819 6.11625C4.90329 6.11625 5.13835 6.21361 5.31167 6.38693C5.48498 6.56024 5.58235 6.79531 5.58235 7.04041Z" fill="#1F2225"/>
<path d="M8.5179 7.04041C8.51857 7.22416 8.46466 7.40396 8.36299 7.55702C8.26133 7.71007 8.1165 7.82948 7.94687 7.90011C7.77724 7.97074 7.59046 7.98939 7.41022 7.95371C7.22997 7.91803 7.06438 7.82962 6.93446 7.69969C6.80453 7.56976 6.71612 7.40418 6.68044 7.22393C6.64476 7.04369 6.66341 6.8569 6.73404 6.68728C6.80466 6.51765 6.92407 6.37282 7.07713 6.27115C7.23019 6.16949 7.40999 6.11558 7.59373 6.11625C7.83884 6.11625 8.0739 6.21361 8.24721 6.38693C8.42053 6.56024 8.5179 6.79531 8.5179 7.04041Z" fill="#1F2225"/>
<path d="M20.2603 7.04041C20.2609 7.22416 20.207 7.40396 20.1054 7.55702C20.0037 7.71007 19.8589 7.82948 19.6892 7.90011C19.5196 7.97074 19.3328 7.98939 19.1526 7.95371C18.9723 7.91803 18.8068 7.82962 18.6768 7.69969C18.5469 7.56976 18.4585 7.40418 18.4228 7.22393C18.3871 7.04369 18.4058 6.8569 18.4764 6.68728C18.547 6.51765 18.6664 6.37282 18.8195 6.27115C18.9726 6.16949 19.1524 6.11558 19.3361 6.11625C19.5812 6.11625 19.8163 6.21361 19.9896 6.38693C20.1629 6.56024 20.2603 6.79531 20.2603 7.04041Z" fill="#1F2225"/>
<path d="M23.1958 7.04041C23.1965 7.22416 23.1426 7.40396 23.0409 7.55702C22.9392 7.71007 22.7944 7.82948 22.6248 7.90011C22.4552 7.97074 22.2684 7.98939 22.0881 7.95371C21.9079 7.91803 21.7423 7.82962 21.6124 7.69969C21.4824 7.56976 21.394 7.40418 21.3584 7.22393C21.3227 7.04369 21.3413 6.8569 21.412 6.68728C21.4826 6.51765 21.602 6.37282 21.7551 6.27115C21.9081 6.16949 22.0879 6.11558 22.2717 6.11625C22.5168 6.11625 22.7518 6.21361 22.9251 6.38693C23.0985 6.56024 23.1958 6.79531 23.1958 7.04041Z" fill="#1F2225"/>
<path d="M10.8012 8.62713V6.10945C10.7573 6.16331 10.698 6.20244 10.6313 6.22158C10.563 6.24816 10.4905 6.26198 10.4172 6.26235V5.92258C10.5212 5.90675 10.6195 5.86465 10.7026 5.80027C10.7916 5.73028 10.8617 5.63919 10.9065 5.53525H11.2734V8.63732L10.8012 8.62713Z" fill="black"/>
<path d="M12.9552 8.44025C12.8854 8.51124 12.8021 8.56761 12.7102 8.60609C12.6183 8.64457 12.5197 8.66439 12.4201 8.66439C12.3205 8.66439 12.2219 8.64457 12.13 8.60609C12.0382 8.56761 11.9549 8.51124 11.885 8.44025C11.7616 8.24599 11.7033 8.01751 11.7185 7.7879V6.29632C11.7029 6.07897 11.7629 5.8629 11.8884 5.68474C12.0333 5.55127 12.2231 5.47717 12.4201 5.47717C12.6171 5.47717 12.8069 5.55127 12.9518 5.68474C13.0773 5.8629 13.1373 6.07897 13.1217 6.29632V7.77771C13.1409 8.01087 13.0823 8.24382 12.9552 8.44025ZM12.415 8.25678C12.449 8.25797 12.4828 8.25048 12.5131 8.23503C12.5434 8.21957 12.5693 8.19666 12.5883 8.16843C12.6407 8.05247 12.6618 7.92476 12.6495 7.79809V6.29632C12.6495 6.06528 12.5951 5.95656 12.4898 5.90899H12.3878C12.3622 5.91021 12.3371 5.91691 12.3142 5.92863C12.2914 5.94035 12.2713 5.95682 12.2553 5.97694C12.1992 6.07461 12.1765 6.18796 12.1908 6.29972V7.81168C12.1787 7.93882 12.1974 8.06698 12.2451 8.18542C12.2662 8.21208 12.294 8.23271 12.3256 8.24523C12.3572 8.25776 12.3916 8.26174 12.4252 8.25678H12.415Z" fill="black"/>
<path d="M13.7843 8.62713V6.10945C13.7405 6.16331 13.6812 6.20244 13.6144 6.22158C13.5462 6.24816 13.4736 6.26198 13.4004 6.26235V5.92258C13.5045 5.90734 13.6029 5.86518 13.6858 5.80027C13.7748 5.73028 13.8448 5.63919 13.8897 5.53525H14.2566V8.63732L13.7843 8.62713Z" fill="black"/>
<path d="M15.9248 8.44025C15.8549 8.51124 15.7716 8.56761 15.6797 8.60609C15.5879 8.64457 15.4893 8.66439 15.3897 8.66439C15.2901 8.66439 15.1914 8.64457 15.0996 8.60609C15.0077 8.56761 14.9244 8.51124 14.8545 8.44025C14.7312 8.24599 14.6729 8.01751 14.688 7.7879V6.29632C14.6724 6.07897 14.7324 5.8629 14.8579 5.68474C15.0028 5.55127 15.1926 5.47717 15.3897 5.47717C15.5867 5.47717 15.7765 5.55127 15.9214 5.68474C16.0469 5.8629 16.1069 6.07897 16.0913 6.29632V7.77771C16.1104 8.01087 16.0519 8.24382 15.9248 8.44025ZM15.3846 8.25678C15.4186 8.25797 15.4523 8.25048 15.4826 8.23503C15.5129 8.21957 15.5388 8.19666 15.5578 8.16843C15.6103 8.05247 15.6314 7.92476 15.619 7.79809V6.29632C15.619 6.06528 15.5646 5.95656 15.4593 5.90899H15.3574C15.3317 5.91021 15.3066 5.91691 15.2838 5.92863C15.2609 5.94035 15.2408 5.95682 15.2249 5.97694C15.1687 6.07461 15.146 6.18796 15.1603 6.29972V7.81168C15.1471 7.93916 15.167 8.0679 15.2181 8.18542C15.2373 8.21071 15.2627 8.23057 15.2919 8.24308C15.3211 8.25558 15.353 8.26031 15.3846 8.25678Z" fill="black"/>
<path d="M17.7052 8.44024C17.6428 8.51801 17.5628 8.57983 17.4719 8.62059C17.3809 8.66136 17.2815 8.6799 17.182 8.67468C17.0815 8.68364 16.9804 8.66789 16.8874 8.6288C16.7944 8.58971 16.7124 8.52848 16.6485 8.45043C16.5236 8.25685 16.4652 8.02784 16.482 7.79808V6.29631C16.4654 6.07936 16.5242 5.86333 16.6485 5.68473C16.7943 5.55174 16.9846 5.47803 17.182 5.47803C17.3793 5.47803 17.5696 5.55174 17.7154 5.68473C17.8325 5.86592 17.8841 6.08175 17.8615 6.29631V7.77769C17.8816 8.00958 17.8269 8.24181 17.7052 8.44024ZM17.165 8.25677C17.199 8.25796 17.2327 8.25047 17.263 8.23502C17.2934 8.21956 17.3192 8.19664 17.3382 8.16842C17.3907 8.05246 17.4118 7.92475 17.3994 7.79808V6.29631C17.3994 6.06527 17.345 5.95654 17.2363 5.90898H17.1378C17.1117 5.91056 17.0862 5.91739 17.0629 5.92907C17.0395 5.94075 17.0188 5.95703 17.0019 5.97693C16.9473 6.07519 16.9247 6.18802 16.9373 6.29971V7.81167C16.9258 7.9391 16.9456 8.0674 16.9951 8.18541C17.0163 8.21379 17.0451 8.23556 17.0782 8.2482C17.1112 8.26083 17.1472 8.2638 17.182 8.25677H17.165Z" fill="black"/>
<path d="M18.5207 8.62713V6.10945C18.4768 6.16331 18.4175 6.20244 18.3508 6.22158C18.2825 6.24816 18.21 6.26198 18.1367 6.26235V5.92258C18.2407 5.90675 18.3389 5.86465 18.4221 5.80027C18.5111 5.73028 18.5812 5.63919 18.626 5.53525H18.9929V8.63732L18.5207 8.62713Z" fill="black"/>
<path d="M0 3.27241V0.0446238H0.842625C0.951157 0.0328344 1.06093 0.0473654 1.16265 0.0869909C1.26438 0.126616 1.35506 0.190169 1.42702 0.272267C1.54452 0.478812 1.60106 0.714428 1.59011 0.9518V1.02315C1.6054 1.27485 1.55259 1.52602 1.43722 1.75025C1.37142 1.83891 1.28331 1.90857 1.18185 1.95214C1.0804 1.99571 0.969218 2.01163 0.859614 1.99828H0.557222V3.27241H0ZM0.557222 1.59396H0.747491C0.793582 1.60058 0.840589 1.59268 0.88199 1.57138C0.923392 1.55007 0.957132 1.51639 0.97853 1.47504C1.02467 1.32678 1.0431 1.17129 1.03289 1.01636V0.9518C1.0389 0.813497 1.01932 0.675275 0.975134 0.544081C0.955233 0.503568 0.923395 0.470121 0.883909 0.448252C0.844423 0.426383 0.799182 0.417141 0.754282 0.421765H0.557222V1.59396Z" fill="#00B3EB"/>
<path d="M1.73956 3.2724L2.2628 0.0446167H3.00009L3.55731 3.2724H3.03407L2.94574 2.69819H2.35454L2.27639 3.2724H1.73956ZM2.88797 2.30406L2.64334 0.679979L2.4157 2.30406H2.88797Z" fill="#00B3EB"/>
<path d="M3.86646 2.36523V2.07643H4.39649V2.41619C4.38837 2.54404 4.40569 2.67223 4.44746 2.79334C4.46417 2.82977 4.49177 2.86012 4.52646 2.8802C4.56115 2.90028 4.60121 2.90911 4.64112 2.90546C4.67881 2.91048 4.71715 2.90449 4.75152 2.88822C4.78588 2.87194 4.8148 2.84607 4.83479 2.81372C4.87077 2.72074 4.88585 2.62098 4.87896 2.52152C4.879 2.40341 4.85106 2.28698 4.79742 2.18175C4.72816 2.0618 4.63847 1.95486 4.5324 1.86577L4.26059 1.62114C4.14453 1.51532 4.04491 1.39279 3.96499 1.25759C3.88909 1.09567 3.85581 0.917058 3.8683 0.738674C3.88078 0.56029 3.93862 0.38805 4.03634 0.238289C4.11746 0.165745 4.2129 0.111024 4.31649 0.0776648C4.42008 0.0443055 4.52952 0.0330524 4.63773 0.0446244C4.74542 0.0303203 4.85498 0.0437157 4.95605 0.0835491C5.05712 0.123382 5.14636 0.188337 5.21533 0.272267C5.33026 0.473308 5.38343 0.70374 5.36822 0.934811V1.13527H4.85178V0.860062C4.85911 0.745018 4.84411 0.629642 4.80761 0.520296C4.79273 0.486804 4.7676 0.458895 4.73586 0.44058C4.70411 0.422265 4.66738 0.414487 4.63093 0.418365C4.59581 0.415538 4.56052 0.421158 4.52801 0.434753C4.4955 0.448347 4.46671 0.46952 4.44406 0.496509C4.40123 0.565636 4.38104 0.646406 4.3863 0.727553C4.38282 0.813927 4.40278 0.89963 4.44406 0.975582C4.50536 1.0613 4.57602 1.13993 4.65472 1.21002L4.95711 1.49883C5.09436 1.62464 5.20925 1.77284 5.29688 1.93712C5.37453 2.08598 5.41421 2.25171 5.41239 2.41959C5.4334 2.6592 5.3723 2.89883 5.23912 3.09912C5.16171 3.17929 5.06691 3.24059 4.96205 3.2783C4.85719 3.316 4.74506 3.3291 4.63433 3.31657C4.52193 3.32961 4.40805 3.31438 4.30303 3.27225C4.19801 3.23012 4.10517 3.16244 4.03294 3.07534C3.90486 2.86175 3.84666 2.61349 3.86646 2.36523Z" fill="#00B3EB"/>
<path d="M5.75224 2.36523V2.07643H6.27887V2.41619C6.27147 2.54428 6.28996 2.67255 6.33324 2.79334C6.34995 2.82977 6.37755 2.86012 6.41223 2.8802C6.44692 2.90028 6.48699 2.90911 6.5269 2.90546C6.56459 2.91048 6.60293 2.90449 6.63729 2.88822C6.67166 2.87194 6.70058 2.84607 6.72057 2.81372C6.75655 2.72074 6.77163 2.62098 6.76474 2.52152C6.76478 2.40341 6.73684 2.28698 6.6832 2.18175C6.6118 2.06331 6.52239 1.9567 6.41818 1.86577L6.14637 1.62114C6.03031 1.51532 5.93068 1.39279 5.85077 1.25759C5.7719 1.09644 5.73697 0.917328 5.7495 0.738353C5.76203 0.559378 5.82157 0.38688 5.92212 0.238289C6.00324 0.165745 6.09868 0.111024 6.20227 0.0776648C6.30586 0.0443055 6.4153 0.0330524 6.52351 0.0446244C6.6312 0.0303203 6.74076 0.0437157 6.84183 0.0835491C6.9429 0.123382 7.03214 0.188337 7.10111 0.272267C7.21604 0.473308 7.26921 0.70374 7.254 0.934811V1.13527H6.73756V0.860062C6.74489 0.745018 6.72989 0.629642 6.69339 0.520296C6.6785 0.486804 6.65338 0.458895 6.62164 0.44058C6.58989 0.422265 6.55315 0.414487 6.51671 0.418365C6.48153 0.41495 6.44605 0.420303 6.41345 0.433939C6.38084 0.447575 6.35211 0.469068 6.32984 0.496509C6.28701 0.565636 6.26682 0.646406 6.27208 0.727553C6.2686 0.813927 6.28856 0.89963 6.32984 0.975582C6.39114 1.0613 6.46179 1.13993 6.54049 1.21002L6.84289 1.49883C6.98014 1.62464 7.09503 1.77284 7.18266 1.93712C7.26031 2.08598 7.29999 2.25171 7.29817 2.41959C7.31918 2.6592 7.25807 2.89883 7.12489 3.09912C7.04749 3.17929 6.95269 3.24059 6.84783 3.2783C6.74297 3.316 6.63084 3.3291 6.52011 3.31657C6.40771 3.32961 6.29383 3.31438 6.18881 3.27225C6.08379 3.23012 5.99095 3.16244 5.91872 3.07534C5.79064 2.86175 5.73244 2.61349 5.75224 2.36523Z" fill="#00B3EB"/>
<path d="M8.00831 3.2724L7.55981 0.0446167H8.05927L8.32769 2.34483L8.66746 0.0446167H9.11595L9.45571 2.34483L9.69355 0.0446167H10.1964L9.77509 3.2724H9.22128L8.88151 1.12507L8.54174 3.2724H8.00831Z" fill="#00B3EB"/>
<path d="M11.9767 3.07873C11.8062 3.22852 11.587 3.31114 11.3601 3.31114C11.1331 3.31114 10.9139 3.22852 10.7434 3.07873C10.5983 2.87415 10.5287 2.62559 10.5463 2.37541V0.894032C10.5463 0.29944 10.8215 0.00383985 11.3686 0.00383985C11.4811 -0.0076944 11.5949 0.00683998 11.7009 0.0463159C11.807 0.0857917 11.9025 0.149149 11.9801 0.231483C12.1174 0.423978 12.1834 0.658195 12.167 0.894032V2.37201C12.1852 2.62231 12.1182 2.87141 11.9767 3.07873ZM11.1579 2.77294C11.1754 2.81024 11.2042 2.84111 11.2401 2.86123C11.2761 2.88134 11.3174 2.88968 11.3584 2.88506C11.3998 2.89052 11.4419 2.88215 11.4782 2.86127C11.5144 2.84039 11.5428 2.80815 11.5588 2.76954C11.599 2.64225 11.6151 2.5086 11.6064 2.37541V0.860053C11.6132 0.744766 11.597 0.629282 11.5588 0.520287C11.5411 0.485119 11.5131 0.456196 11.4785 0.437377C11.4438 0.418558 11.4043 0.410739 11.3652 0.41496C11.3256 0.410975 11.2857 0.418864 11.2506 0.437621C11.2155 0.456378 11.1868 0.485154 11.1681 0.520287C11.12 0.626697 11.1001 0.743716 11.1103 0.860053V2.36522C11.102 2.50287 11.1181 2.6409 11.1579 2.77294Z" fill="#00B3EB"/>
<path d="M13.4105 1.75704H13.2338V3.28259H12.6732V0.0548105H13.5974C13.7471 0.0444142 13.8965 0.0799712 14.0255 0.156736C14.1207 0.224208 14.1873 0.324762 14.2124 0.438743C14.2459 0.59613 14.2608 0.756941 14.2565 0.917815C14.2642 1.07065 14.2399 1.2234 14.1852 1.36631C14.16 1.41832 14.1234 1.46397 14.0781 1.49986C14.0328 1.53574 13.98 1.56094 13.9236 1.57357C13.9838 1.58367 14.0402 1.60982 14.0869 1.64929C14.1335 1.68875 14.1686 1.74006 14.1886 1.79781C14.254 2.06554 14.2791 2.34151 14.2633 2.61665C14.2539 2.84336 14.2607 3.07045 14.2837 3.29618H13.7265C13.7265 3.2724 13.7061 2.88846 13.7061 2.14098C13.7167 2.04216 13.6965 1.94248 13.6484 1.85557C13.6183 1.82284 13.5814 1.79708 13.5403 1.78006C13.4992 1.76304 13.4549 1.75518 13.4105 1.75704ZM13.2338 1.36631H13.4445C13.4997 1.37081 13.5548 1.35643 13.6008 1.32553C13.6397 1.28579 13.6647 1.23455 13.6721 1.17944C13.6883 1.07606 13.6951 0.971448 13.6925 0.866853V0.860056C13.7028 0.744359 13.6853 0.627882 13.6416 0.520289C13.6076 0.465926 13.5328 0.438743 13.4105 0.438743H13.2202L13.2338 1.36631Z" fill="#00B3EB"/>
<path d="M14.7764 3.27239V0.0446079H15.5987C15.7058 0.0345998 15.8138 0.0479431 15.9153 0.0837244C16.0168 0.119506 16.1093 0.176874 16.1865 0.251866C16.3181 0.431312 16.3819 0.651604 16.3665 0.873634V2.33124C16.3875 2.58295 16.3228 2.83436 16.1831 3.04474C16.1066 3.12674 16.0123 3.18996 15.9073 3.22945C15.8024 3.26894 15.6898 3.28364 15.5783 3.27239H14.7764ZM15.3336 2.89185H15.5171C15.5588 2.8951 15.6006 2.88884 15.6394 2.87353C15.6783 2.85823 15.7131 2.83428 15.7414 2.80351C15.7989 2.70628 15.824 2.59318 15.8127 2.48073V0.887228C15.8224 0.762904 15.7977 0.638306 15.7414 0.527076C15.7146 0.490044 15.6785 0.460779 15.6367 0.442274C15.5949 0.42377 15.5489 0.41669 15.5035 0.421749H15.337L15.3336 2.89185Z" fill="#00B3EB"/>
<path d="M16.8796 1.3697V0.860046H17.4708V1.35611L16.8796 1.3697ZM16.8796 2.77973V2.28367H17.4708V2.77973H16.8796Z" fill="#00B3EB"/>
<path d="M23.6375 15.2934L19.088 11.5559C19.8078 10.1769 19.984 8.57806 19.5816 7.07547C19.1793 5.57287 18.2277 4.27595 16.9152 3.44117C15.6026 2.60638 14.0246 2.29451 12.4931 2.56722C10.9617 2.83994 9.58835 3.67738 8.64465 4.91395C7.70095 6.15053 7.25562 7.6962 7.39671 9.24532C7.5378 10.7944 8.25505 12.2342 9.40662 13.28C10.5582 14.3257 12.0602 14.9012 13.6157 14.8928C15.1713 14.8844 16.667 14.2925 17.8071 13.2344L22.2785 16.9208C22.4922 17.0971 22.7671 17.1814 23.0428 17.1552C23.3186 17.1291 23.5728 16.9947 23.7496 16.7815V16.7645C23.9291 16.5542 24.018 16.2815 23.997 16.0058C23.976 15.7302 23.8467 15.474 23.6375 15.2934ZM13.594 12.8946C12.7619 12.8946 11.9486 12.6478 11.2568 12.1855C10.565 11.7231 10.0258 11.066 9.70757 10.2972C9.3893 9.52839 9.3062 8.68247 9.46878 7.86643C9.63136 7.05039 10.0323 6.3009 10.6209 5.71278C11.2095 5.12465 11.9593 4.72431 12.7755 4.56239C13.5917 4.40047 14.4375 4.48425 15.2061 4.80314C15.9746 5.12202 16.6313 5.66168 17.0931 6.35386C17.5549 7.04603 17.801 7.85961 17.8003 8.69169C17.8003 9.24448 17.6913 9.79184 17.4794 10.3024C17.2676 10.813 16.9571 11.2768 16.5657 11.6672C16.1744 12.0576 15.7098 12.367 15.1987 12.5776C14.6876 12.7882 14.14 12.8959 13.5872 12.8946H13.594Z" fill="#484B4D"/>
</svg>
