<svg width="24" height="24" viewBox="0 0 24 24" fill="none" xmlns="http://www.w3.org/2000/svg">
<g clip-path="url(#clip0_27_2423)">
<path d="M11.5371 3.13476C12.3828 2.97656 13.293 3.26172 13.8965 3.87305C14.5215 4.48437 14.8086 5.41406 14.6367 6.26953C14.4727 7.21094 13.7539 8.02539 12.8438 8.31641C11.9609 8.61328 10.9258 8.4082 10.2324 7.78125C9.5293 7.17383 9.18946 6.18164 9.37305 5.26953C9.56055 4.20312 10.4668 3.30664 11.5371 3.13476Z" fill="white"/>
<path d="M5.06456 8.89258C5.85753 7.27344 7.23839 5.94336 8.89659 5.23242C8.11534 6.12305 7.39659 7.0918 6.96691 8.20508C6.37902 9.63867 6.1837 11.2246 6.38488 12.7598C5.65831 12.7285 4.94542 12.9336 4.33605 13.3262C4.13683 11.8184 4.38878 10.2559 5.06456 8.89258Z" fill="white"/>
<path d="M15.1485 5.23438C16.7559 5.95703 18.1153 7.22852 18.9063 8.81055C19.6133 10.1914 19.877 11.7891 19.6797 13.3262C19.2501 11.9004 18.5704 10.5293 17.5352 9.44141C16.7657 8.5957 15.8184 7.92578 14.8028 7.41211C14.7676 7.24414 14.9258 7.08789 14.9668 6.92578C15.1895 6.39453 15.2227 5.80273 15.1485 5.23438Z" fill="white"/>
<path d="M5.50198 13.3555C6.293 13.1523 7.17385 13.332 7.81448 13.8437C8.52542 14.3926 8.9219 15.3184 8.82424 16.2129C8.74612 17.0801 8.20706 17.8887 7.43948 18.2988C6.58792 18.7695 5.48245 18.7207 4.67971 18.1719C3.87893 17.6484 3.40628 16.6699 3.50198 15.7168C3.5762 14.6094 4.42581 13.6152 5.50198 13.3555Z" fill="white"/>
<path d="M17.3535 13.3262C18.1445 13.166 19.0039 13.3789 19.6152 13.9082C20.3379 14.5098 20.6934 15.5098 20.5117 16.4317C20.3535 17.3594 19.6563 18.168 18.7656 18.4707C17.9688 18.7559 17.043 18.627 16.3516 18.1387C15.5059 17.5625 15.0566 16.4727 15.252 15.4668C15.4297 14.4121 16.3047 13.5254 17.3535 13.3262Z" fill="white"/>
<path d="M7.69531 18.7383C10.1914 19.2578 12.8906 18.709 14.9414 17.1836C15.2285 17.834 15.7188 18.377 16.3281 18.7402C13.8008 20.4805 10.2207 20.4922 7.69531 18.7383Z" fill="white"/>
<path d="M4.89264 0.0136775C9.56451 -0.00976002 14.2364 0.00586498 18.9083 0.00586498C21.5704 0.0195369 23.9278 2.39063 23.9883 5.04102C23.9962 9.68946 24.002 14.3359 23.9962 18.9863C23.8887 21.5723 21.6212 23.8633 19.0294 23.957C14.3008 23.9512 9.57037 23.9609 4.8399 23.9512C2.25787 23.7734 0.0625578 21.4512 0.00201092 18.8672C-0.00775471 14.3828 0.00201092 9.89649 0.00591717 5.41407C5.77918e-05 4.83985 0.0742765 4.26368 0.252011 3.7168C0.869198 1.70118 2.77935 0.130865 4.89264 0.0136775ZM11.5372 3.13477C10.4669 3.30665 9.56061 4.20313 9.37506 5.27149C9.19146 6.1836 9.53131 7.17383 10.2344 7.78321C10.9278 8.41016 11.961 8.61524 12.8458 8.31837C13.7559 8.02735 14.4727 7.2129 14.6387 6.27149C14.8106 5.41602 14.5215 4.48438 13.8985 3.87501C13.293 3.26172 12.3829 2.97657 11.5372 3.13477ZM5.06451 8.89258C4.38873 10.2539 4.13678 11.8184 4.33404 13.3262C4.94342 12.9356 5.65826 12.7285 6.38287 12.7598C6.18365 11.2246 6.37896 9.63868 6.9649 8.20508C7.39654 7.0918 8.11334 6.12305 8.89459 5.23243C7.23639 5.94336 5.85748 7.27344 5.06451 8.89258ZM15.1485 5.23438C15.2227 5.80079 15.1895 6.39258 14.9649 6.92383C14.9219 7.08594 14.7657 7.24219 14.8008 7.41016C15.8184 7.92579 16.7637 8.59376 17.5333 9.43946C18.5684 10.5273 19.2481 11.8984 19.6778 13.3242C19.8751 11.7871 19.6114 10.1895 18.9044 8.8086C18.1153 7.23047 16.7559 5.95899 15.1485 5.23438ZM5.50201 13.3555C4.42584 13.6152 3.57623 14.6094 3.50201 15.7168C3.40631 16.6699 3.87701 17.6484 4.67975 18.1719C5.48248 18.7207 6.58795 18.7715 7.43951 18.2988C8.20709 17.8887 8.74615 17.0801 8.82428 16.2129C8.92193 15.3184 8.52545 14.3926 7.81451 13.8438C7.17389 13.332 6.29303 13.1523 5.50201 13.3555ZM17.3536 13.3262C16.3047 13.5254 15.4297 14.4121 15.254 15.4688C15.0587 16.4746 15.5079 17.5625 16.3536 18.1406C17.043 18.6289 17.9708 18.7578 18.7676 18.4727C19.6583 18.1699 20.3536 17.3613 20.5137 16.4336C20.6934 15.5117 20.3399 14.5117 19.6172 13.9102C19.002 13.3789 18.1446 13.166 17.3536 13.3262ZM7.69537 18.7383C10.2208 20.4922 13.8008 20.4785 16.3301 18.7402C15.7208 18.377 15.2305 17.834 14.9434 17.1836C12.8907 18.709 10.1915 19.2598 7.69537 18.7383Z" fill="#2B9BFF"/>
</g>
<defs>
<clipPath id="clip0_27_2423">
<rect width="24" height="23.9551" fill="white"/>
</clipPath>
</defs>
</svg>
