<svg width="26" height="22" viewBox="0 0 26 22" fill="none" xmlns="http://www.w3.org/2000/svg">
<path d="M9.44557 19.7927C8.69492 19.7927 8.82965 19.5039 8.56018 18.7918L6.36597 11.5547L19.9932 3.04731L21.5908 3.47075L20.2627 7.08929L9.44557 19.7927Z" fill="#C8DAEA"/>
<path d="M9.44556 19.7927C10.023 19.7927 10.2732 19.5232 10.6004 19.2153C11.1008 18.7341 17.5295 12.4786 17.5295 12.4786L13.5838 11.5163L9.92674 13.826L9.44556 19.6002V19.7927Z" fill="#A9C9DD"/>
<path d="M9.8304 13.903L19.1462 20.7743C20.2048 21.3518 20.9747 21.063 21.2442 19.7927L25.0359 1.931C25.4209 0.371953 24.4393 -0.320957 23.4192 0.140983L1.16902 8.72538C-0.351537 9.3413 -0.33229 10.1882 0.899552 10.5539L6.61607 12.3439L19.8391 4.00974C20.455 3.62478 21.0325 3.83651 20.5705 4.25995L9.8304 13.903Z" fill="url(#paint0_linear_30_88)"/>
<defs>
<linearGradient id="paint0_linear_30_88" x1="15.4105" y1="9.92931" x2="20.2223" y2="17.6283" gradientUnits="userSpaceOnUse">
<stop stop-color="#EFF7FC"/>
<stop offset="1" stop-color="white"/>
</linearGradient>
</defs>
</svg>
