<svg width="24" height="20" viewBox="0 0 24 20" fill="none" xmlns="http://www.w3.org/2000/svg">
<path d="M12 3.4756C7.6678 3.4756 4.14349 7.00144 4.14349 11.3355C4.14349 15.6696 7.6678 19.1954 12 19.1954C16.3322 19.1954 19.8565 15.6696 19.8565 11.3355C19.8565 7.00144 16.3322 3.4756 12 3.4756ZM12 18.399C8.10645 18.399 4.93845 15.2296 4.93845 11.3344C4.93845 7.43917 8.10645 4.26979 12 4.26979C16.5785 4.26979 19.0615 8.16133 19.0615 11.3344C19.0615 15.2296 15.8935 18.4001 12 18.4001V18.399Z" fill="#42BEB6"/>
<path d="M13.0464 5.4282H10.9536L11.4059 4.53575H12.5941L13.0464 5.4282Z" fill="#606060"/>
<path d="M13.365 5.42859H10.6349V5.6746H13.365V5.42859Z" fill="#C1D73B"/>
<path d="M14.7401 0H9.2603C9.14602 9.76373e-05 9.03643 0.0455356 8.95559 0.126347C8.87474 0.207158 8.82924 0.316744 8.82904 0.431077V4.10468C8.82924 4.21902 8.87474 4.3286 8.95559 4.40941C9.03643 4.49022 9.14602 4.53566 9.2603 4.53576H14.7401C14.8543 4.53566 14.9638 4.49022 15.0446 4.40939C15.1254 4.32857 15.1708 4.21898 15.1709 4.10468V0.431077C15.1707 0.316807 15.1253 0.207274 15.0445 0.126473C14.9638 0.0456724 14.8543 0.000195333 14.7401 0Z" fill="#5A5B5C"/>
<path d="M14.8184 0.328028C14.7962 0.310126 14.7686 0.30035 14.7401 0.300323H9.25995C9.22671 0.300611 9.1949 0.313917 9.17136 0.337398C9.14782 0.360879 9.13442 0.392659 9.13403 0.425913V3.48964C9.13419 3.50834 9.13851 3.52676 9.14669 3.54356C9.15487 3.56037 9.16669 3.57514 9.1813 3.5868C9.20378 3.60434 9.23143 3.61395 9.25995 3.61413H14.7401C14.7734 3.61404 14.8054 3.60073 14.829 3.57713C14.8526 3.55353 14.8659 3.52154 14.866 3.48816V0.424434C14.8658 0.405819 14.8614 0.387491 14.8531 0.370802C14.8449 0.354113 14.833 0.339496 14.8184 0.328028Z" fill="#42BEB6"/>
<path d="M21.8754 14.5086H19.783L20.235 13.6158H21.4231L21.8754 14.5086Z" fill="#606060"/>
<path d="M22.1941 14.509H19.464V14.755H22.1941V14.509Z" fill="#C1D73B"/>
<path d="M23.5691 9.0804H18.0893C17.9751 9.0805 17.8655 9.12594 17.7848 9.20676C17.704 9.28759 17.6585 9.39718 17.6584 9.51148V13.1851C17.6585 13.2993 17.704 13.4089 17.7848 13.4897C17.8656 13.5704 17.9751 13.6158 18.0893 13.6158H23.5691C23.6833 13.6157 23.7928 13.5703 23.8735 13.4895C23.9543 13.4088 23.9998 13.2993 24 13.1851V9.51148C23.9999 9.39718 23.9545 9.28759 23.8737 9.20676C23.7929 9.12594 23.6833 9.0805 23.5691 9.0804Z" fill="#5A5B5C"/>
<path d="M23.6474 9.40803C23.625 9.39023 23.5973 9.38059 23.5687 9.38069H18.0893C18.056 9.38088 18.0241 9.39416 18.0005 9.41765C17.9769 9.44114 17.9635 9.47297 17.9631 9.50629V12.57C17.9634 12.5887 17.9677 12.6071 17.9759 12.6239C17.9841 12.6406 17.9958 12.6554 18.0103 12.6672C18.0326 12.685 18.0601 12.6947 18.0886 12.6949H23.5687C23.6022 12.6948 23.6342 12.6814 23.6578 12.6577C23.6814 12.6341 23.6946 12.602 23.6946 12.5685V9.50518C23.6946 9.48647 23.6904 9.468 23.6822 9.45117C23.674 9.43434 23.6621 9.41959 23.6474 9.40803Z" fill="#42BEB6"/>
<path d="M4.217 14.5211H2.12457L2.57688 13.6283H3.76506L4.217 14.5211Z" fill="#606060"/>
<path d="M4.53601 14.5215H1.80591V14.7675H4.53601V14.5215Z" fill="#C1D73B"/>
<path d="M5.91102 9.09296H0.43089C0.31664 9.09305 0.207097 9.1385 0.12631 9.21932C0.0455233 9.30014 9.77748e-05 9.40973 0 9.52403V13.198C9.77748e-05 13.3123 0.0455233 13.4219 0.12631 13.5027C0.207097 13.5835 0.31664 13.629 0.43089 13.6291H5.91102C6.02524 13.629 6.13474 13.5835 6.21547 13.5027C6.29619 13.4219 6.34154 13.3123 6.34154 13.198V9.5244C6.34154 9.41014 6.29619 9.30054 6.21547 9.21971C6.13474 9.13888 6.02524 9.09342 5.91102 9.09332V9.09296Z" fill="#5A5B5C"/>
<path d="M5.9893 9.42097C5.96707 9.40322 5.93947 9.39358 5.91103 9.39363H0.430897C0.397657 9.39392 0.365861 9.40723 0.342321 9.43071C0.318782 9.4542 0.305378 9.48597 0.304993 9.51922V12.583C0.305132 12.6016 0.309411 12.6199 0.317523 12.6366C0.325634 12.6534 0.337374 12.6681 0.351886 12.6797C0.374139 12.6975 0.4017 12.7072 0.430158 12.7074H5.91029C5.94369 12.7073 5.97569 12.6941 5.99934 12.6705C6.02299 12.6469 6.03637 12.6149 6.03656 12.5815V9.51885C6.03663 9.50002 6.0324 9.48142 6.02421 9.46446C6.01603 9.4475 6.00409 9.43263 5.9893 9.42097Z" fill="#42BEB6"/>
<path d="M15.4102 14.7474C17.2937 12.8632 17.2937 9.80814 15.4102 7.92386C13.5268 6.03958 10.4731 6.03958 8.58963 7.92386C6.70617 9.80814 6.70617 12.8632 8.58963 14.7474C10.4731 16.6317 13.5268 16.6317 15.4102 14.7474Z" fill="#42BEB6"/>
<path d="M12.0368 14.7168C13.8987 14.6918 15.3877 13.1615 15.3627 11.2989C15.3376 9.43625 13.8081 7.94658 11.9462 7.97161C10.0844 7.99664 8.59536 9.52691 8.62038 11.3895C8.6454 13.2522 10.175 14.7419 12.0368 14.7168Z" fill="#00AE9C"/>
<path d="M9.57931 7.37049C9.29648 7.18579 9.11187 7.86326 8.85377 7.6793C8.12059 8.30985 7.5939 9.14643 7.34215 10.0803C7.30707 11.7795 8.01119 11.2521 8.30215 11.5176C8.4842 11.6946 8.60403 11.9258 8.64368 12.1766C8.69353 12.5313 8.57722 12.8977 8.66104 13.2427C8.73488 13.5497 8.90916 13.707 9.17796 13.8023C9.36479 13.8685 9.41501 14.0118 9.47335 14.2087C9.5313 14.4116 9.61284 14.6069 9.71629 14.7908C10.0586 15.411 10.557 15.462 10.7978 15.3479C10.6272 15.2422 10.4459 15.1894 10.3178 15.0213C10.1797 14.8429 10.2417 14.6216 10.3831 14.4894C10.4315 14.4447 10.4821 14.3993 10.5009 14.3339C10.5197 14.2685 10.5009 14.2131 10.5378 14.1606C10.6139 14.052 10.7405 14.1097 10.7442 13.802C10.7442 13.7502 10.7487 13.703 10.7904 13.6723C10.8587 13.6206 10.9658 13.6819 10.9226 13.4691C10.8993 13.3546 10.9669 13.2748 11.0297 13.1899C11.1164 13.072 11.1736 12.983 11.1109 12.8275C10.989 12.5235 10.7188 12.6797 10.4939 12.7237C10.3861 12.7444 10.2495 12.7924 10.1413 12.7606C9.98214 12.713 10.015 12.5486 9.97218 12.402C9.89538 12.1434 9.71815 12.0045 9.46448 11.9628C9.23778 11.9258 8.93021 12.0684 8.82608 11.8324C8.77439 11.7149 8.75962 11.5398 8.65771 11.4571C8.61525 11.4227 8.44282 11.4512 8.42325 11.2114C8.41291 11.0773 8.38632 10.9986 8.3494 10.9528C8.29771 10.8889 8.22682 10.8952 8.15888 10.9052C8.06916 10.9189 7.9846 10.9395 7.95469 10.8151C7.93882 10.7508 8.00935 10.6211 8.1179 10.5325C8.24048 10.4324 8.41328 10.3847 8.56098 10.5417C8.7851 10.7766 8.68614 11.2347 9.01107 11.3374C9.33599 11.4401 9.57156 11.0899 9.32528 10.8114C9.21895 10.6906 9.0694 10.6485 8.97045 10.5258C8.84786 10.3733 8.85968 10.1465 8.9446 9.97543C9.2459 9.36557 10.3193 9.83469 10.4902 9.05823C10.5936 8.58837 9.87322 8.03206 9.35039 8.6785C9.2459 8.80741 9.17574 8.9452 8.99888 8.99285C8.81242 9.04309 8.72232 8.9271 8.70091 8.74906C8.69554 8.66319 8.71078 8.57729 8.74533 8.49851C8.77989 8.41973 8.83276 8.35036 8.89956 8.29618C9.03137 8.19719 9.32934 8.21639 9.63802 7.72141C9.65997 7.72459 9.68106 7.73211 9.70008 7.74352C9.71909 7.75493 9.73566 7.77002 9.74879 7.7879C9.87581 7.93196 9.6683 8.19202 9.84295 8.25112C10.2089 8.37523 10.2905 7.28738 9.88762 7.40152C9.92233 7.22753 10.4164 7.06906 10.591 7.14811C10.9233 7.30067 10.4895 7.75502 10.4769 7.97776C10.4537 8.39813 10.9292 8.35639 11.1552 8.1451C12.2123 7.15735 10.5419 6.20025 9.57931 7.37049Z" fill="#C1D73B"/>
<path d="M12.0125 7.84182C12.0125 7.87834 12.0017 7.91405 11.9814 7.94443C11.9611 7.9748 11.9323 7.99847 11.8986 8.01245C11.8648 8.02643 11.8277 8.03008 11.7919 8.02296C11.7561 8.01583 11.7232 7.99825 11.6974 7.97242C11.6716 7.94659 11.654 7.91367 11.6469 7.87784C11.6397 7.84202 11.6434 7.80489 11.6574 7.77114C11.6713 7.73739 11.695 7.70855 11.7254 7.68825C11.7557 7.66796 11.7914 7.65712 11.8279 7.65712C11.8769 7.65712 11.9238 7.67657 11.9585 7.71121C11.9931 7.74585 12.0125 7.79283 12.0125 7.84182Z" fill="#C1D73B"/>
<path d="M12.5058 7.01031C12.5058 7.03822 12.4976 7.0655 12.4821 7.08871C12.4666 7.11191 12.4446 7.13 12.4188 7.14068C12.393 7.15136 12.3646 7.15415 12.3373 7.14871C12.3099 7.14326 12.2848 7.12982 12.2651 7.11009C12.2453 7.09036 12.2319 7.06522 12.2265 7.03784C12.221 7.01047 12.2238 6.98209 12.2345 6.95631C12.2452 6.93053 12.2633 6.90849 12.2864 6.89298C12.3096 6.87748 12.3369 6.8692 12.3648 6.8692C12.4022 6.8692 12.4381 6.88407 12.4645 6.91053C12.491 6.937 12.5058 6.97289 12.5058 7.01031Z" fill="#C1D73B"/>
<path d="M12.5058 8.50671C12.5058 8.53462 12.4976 8.5619 12.4821 8.58511C12.4666 8.60831 12.4446 8.6264 12.4188 8.63708C12.393 8.64776 12.3646 8.65055 12.3373 8.64511C12.3099 8.63966 12.2848 8.62622 12.2651 8.60649C12.2453 8.58676 12.2319 8.56162 12.2265 8.53424C12.221 8.50687 12.2238 8.47849 12.2345 8.45271C12.2452 8.42692 12.2633 8.40489 12.2864 8.38938C12.3096 8.37388 12.3369 8.3656 12.3648 8.3656C12.4022 8.3656 12.4381 8.38047 12.4645 8.40693C12.491 8.43339 12.5058 8.46929 12.5058 8.50671Z" fill="#C1D73B"/>
<path d="M16.7501 10.4978C16.7306 10.6403 16.6922 10.7526 16.6349 10.8239C16.5552 10.9233 16.3909 10.9828 16.2845 10.8852C16.2425 10.8483 15.9917 10.0744 15.7108 10.405C15.5409 10.6034 16.1564 11.0068 15.2308 11.5853C14.8866 11.801 14.9959 12.1024 14.9874 12.447C14.9778 12.8452 14.2386 14.2482 13.7465 14.2068C13.6401 14.198 13.6357 14.0639 13.5729 13.9937C13.4943 13.9084 13.32 13.8459 13.4681 13.4466C13.5083 13.3384 13.4123 13.2416 13.4042 13.1293C13.3846 12.856 13.704 12.723 13.7468 12.4644C13.8971 11.5616 13.0276 11.7921 12.9855 11.7936C12.1787 11.8113 12.0081 11.2133 12.168 10.6381C12.3589 9.95143 13.0205 9.29798 13.6335 9.7623C14.1393 10.1457 14.6839 10.1668 14.8556 9.89418C14.8124 9.41877 14.208 9.88974 13.9325 9.54621C13.7734 9.3471 13.6863 9.17017 13.3787 9.19713C13.2103 9.21228 13.101 9.28542 13.0006 9.41212C12.6834 9.81365 12.425 9.5355 12.4324 9.40547C12.4416 9.23223 12.5767 9.25772 12.7012 9.23962C13.0364 9.1916 12.744 8.79006 12.9936 8.6146C13.1852 8.47977 13.5533 8.64194 13.7276 8.42991C13.8055 8.33497 13.7645 8.10965 13.6431 8.05793C13.4821 7.98923 13.4215 8.17651 13.3503 8.26073C13.2055 8.42991 12.7964 8.42584 12.9592 7.81154C13.0408 7.50532 13.3366 7.50754 13.55 7.62685C13.9743 7.86104 13.9909 7.4344 13.7302 7.29698C13.6073 7.23234 13.4488 7.20057 13.4932 7.00147C13.5072 6.91802 13.5535 6.84345 13.622 6.79387C14.4234 7.08069 15.1349 7.57433 15.6842 8.22477C16.2335 8.87522 16.6013 9.65935 16.7501 10.4978Z" fill="#C1D73B"/>
</svg>
