<svg width="22" height="18" viewBox="0 0 22 18" fill="none" xmlns="http://www.w3.org/2000/svg">
<path d="M22 2.08602C21.2326 2.46877 20.3372 2.72393 19.4419 2.85152C20.4012 2.2774 21.1047 1.38432 21.4884 0.299865C20.593 0.810195 19.6337 1.19294 18.6105 1.38432C17.9145 0.673321 17.0061 0.206636 16.0217 0.0542991C15.0373 -0.0980379 14.0298 0.0721898 13.1506 0.539436C12.2714 1.00668 11.5678 1.74574 11.1455 2.64571C10.7231 3.54567 10.6047 4.55799 10.8081 5.53075C7.22674 5.33938 3.77326 3.6808 1.53488 0.810195C1.23031 1.29543 1.02504 1.836 0.930917 2.40074C0.836792 2.96548 0.85567 3.54322 0.986463 4.10064C1.11726 4.65807 1.35738 5.18416 1.69298 5.64858C2.02859 6.113 2.45304 6.50656 2.94186 6.80658C2.23837 6.80658 1.53488 6.679 0.895349 6.36004C0.959302 8.46515 2.43023 10.3151 4.47674 10.7616C3.83721 10.953 3.13372 10.953 2.43023 10.8254C3.06977 12.6754 4.79651 13.9512 6.71512 14.015C4.86047 15.546 2.36628 16.2477 0 15.8649C1.97739 17.1811 4.28481 17.9185 6.66082 17.9936C9.03683 18.0688 11.3864 17.4786 13.4434 16.29C15.5004 15.1015 17.1826 13.362 18.2993 11.2687C19.4159 9.17544 19.9225 6.81204 19.7616 4.4463C20.657 3.80839 21.4244 3.04289 22 2.08602Z" fill="white"/>
</svg>
