<svg width="20" height="24" viewBox="0 0 20 24" fill="none" xmlns="http://www.w3.org/2000/svg">
<path d="M3.82963 16.1012C2.16315 13.1745 1.35476 9.83762 1.49707 6.47276C3.1005 6.01196 4.65965 5.4091 6.15598 4.67132C7.56913 3.89985 8.86321 2.92797 9.99803 1.7859V0.0186157C9.99803 0.0186157 7.87357 2.22073 5.4882 3.43515C3.7305 4.30074 1.90031 5.01058 0.0186389 5.55652C-0.147764 9.5079 0.802747 13.4262 2.76119 16.8621C5.90751 22.4094 9.99803 23.748 9.99803 23.748V21.9745C9.99803 21.9745 6.51627 20.8222 3.82963 16.1012Z" fill="#2C5871"/>
<path d="M19.9805 5.53789C18.0988 4.99195 16.2686 4.28212 14.5109 3.41654C12.1256 2.21454 10.0011 0 10.0011 0V1.78592C11.1341 2.93214 12.4272 3.90822 13.84 4.68376C15.3364 5.42153 16.8955 6.02441 18.499 6.48521C18.641 9.85043 17.8315 13.1875 16.1633 16.1136C13.4891 20.8347 10.0073 21.9745 10.0073 21.9745V23.7418C10.0073 23.7418 14.0978 22.4032 17.2411 16.8559C19.2013 13.4163 20.1509 9.49322 19.9805 5.53789Z" fill="#0F303F"/>
<path d="M16.1541 16.1012C17.8223 13.1751 18.6318 9.83801 18.4898 6.47278C16.8863 6.01198 15.3272 5.40912 13.8308 4.67134C12.421 3.89911 11.1301 2.92727 9.99811 1.78592V21.9745C9.99811 21.9745 13.4799 20.8222 16.1541 16.1012Z" fill="#03AAB6"/>
<path d="M6.15906 4.67755C4.66273 5.41533 3.10358 6.01819 1.50015 6.47899C1.35783 9.84385 2.16622 13.1808 3.83271 16.1074C6.51003 20.8284 9.99179 21.9683 9.99179 21.9683V1.78592C8.86024 2.92946 7.56931 3.90341 6.15906 4.67755Z" fill="#4BCDD6"/>
<path d="M5.36399 10.4112C5.36399 9.95562 5.54495 9.51875 5.86705 9.19664C6.18916 8.87453 6.62604 8.69357 7.08157 8.69357V7.4046C6.78103 7.40778 6.48953 7.30189 6.26109 7.10658C6.03265 6.91126 5.88276 6.63976 5.8392 6.34238C5.21295 6.53348 4.63908 6.8661 4.16199 7.31453C4.40048 7.49911 4.56369 7.76414 4.62119 8.06019C4.67868 8.35624 4.62652 8.66309 4.47445 8.92352C4.32237 9.18395 4.08077 9.38016 3.79468 9.47558C3.5086 9.571 3.19757 9.5591 2.91961 9.4421C2.77053 10.0795 2.77053 10.7428 2.91961 11.3802C3.19757 11.2632 3.5086 11.2513 3.79468 11.3467C4.08077 11.4422 4.32237 11.6384 4.47445 11.8988C4.62652 12.1592 4.67868 12.4661 4.62119 12.7621C4.56369 13.0582 4.40048 13.3232 4.16199 13.5078C4.63827 13.9573 5.21241 14.2901 5.8392 14.4799C5.88276 14.1826 6.03265 13.9111 6.26109 13.7157C6.48953 13.5204 6.78103 13.4145 7.08157 13.4177V12.1287C6.62604 12.1287 6.18916 11.9478 5.86705 11.6257C5.54495 11.3036 5.36399 10.8667 5.36399 10.4112Z" fill="#2C5871"/>
<path d="M11.2156 9.4421C10.939 9.54962 10.6329 9.55454 10.353 9.45597C10.073 9.3574 9.83759 9.16185 9.68932 8.90472C9.54105 8.64759 9.48973 8.34588 9.54466 8.05419C9.59959 7.7625 9.75713 7.50012 9.98877 7.31453C9.51058 6.86596 8.93567 6.53335 8.30845 6.34238C8.26526 6.6371 8.11761 6.90649 7.89242 7.10147C7.66723 7.29645 7.37948 7.40403 7.0816 7.4046V8.69357C7.53714 8.69357 7.97401 8.87453 8.29612 9.19664C8.61823 9.51875 8.79919 9.95562 8.79919 10.4112C8.79919 10.8667 8.61823 11.3036 8.29612 11.6257C7.97401 11.9478 7.53714 12.1287 7.0816 12.1287V13.4177C7.37948 13.4183 7.66723 13.5259 7.89242 13.7208C8.11761 13.9158 8.26526 14.1852 8.30845 14.4799C8.93621 14.2902 9.51139 13.9574 9.98877 13.5078C9.75713 13.3222 9.59959 13.0598 9.54466 12.7681C9.48973 12.4764 9.54105 12.1747 9.68932 11.9176C9.83759 11.6605 10.073 11.4649 10.353 11.3663C10.6329 11.2678 10.939 11.2727 11.2156 11.3802C11.3647 10.7428 11.3647 10.0795 11.2156 9.4421Z" fill="#0F303F"/>
<path d="M5.7243 10.4111C5.7243 10.7711 5.8673 11.1163 6.12185 11.3709C6.37639 11.6254 6.72162 11.7684 7.0816 11.7684V9.0538C6.72162 9.0538 6.37639 9.1968 6.12185 9.45134C5.8673 9.70589 5.7243 10.0511 5.7243 10.4111Z" fill="#2C5871"/>
<path d="M8.43579 10.4111C8.4358 10.0517 8.29322 9.7069 8.03935 9.45244C7.78548 9.19799 7.44104 9.05463 7.0816 9.0538V11.7684C7.44104 11.7676 7.78548 11.6242 8.03935 11.3698C8.29322 11.1153 8.4358 10.7705 8.43579 10.4111Z" fill="#0F303F"/>
<path d="M11.8491 13.8556C11.8487 13.6871 11.8816 13.5201 11.9459 13.3643C12.0102 13.2084 12.1047 13.0669 12.2239 12.9477C12.3431 12.8285 12.4847 12.734 12.6405 12.6697C12.7963 12.6054 12.9633 12.5725 13.1318 12.5729V10.6814C12.8872 10.6823 12.6435 10.7104 12.4051 10.7652C12.4859 10.9717 12.4904 11.2003 12.4179 11.4098C12.3453 11.6194 12.2004 11.7962 12.0091 11.9085C11.8179 12.0207 11.5929 12.0611 11.3745 12.0224C11.1562 11.9836 10.9588 11.8682 10.8179 11.697C10.4827 12.0493 10.2339 12.4746 10.0911 12.9394C10.3071 12.9772 10.5028 13.09 10.6438 13.2579C10.7848 13.4257 10.8621 13.6379 10.8621 13.8572C10.8621 14.0764 10.7848 14.2887 10.6438 14.4565C10.5028 14.6244 10.3071 14.7372 10.0911 14.775C10.2347 15.2395 10.4834 15.6646 10.8179 16.0174C10.9592 15.8516 11.1541 15.7406 11.3688 15.7037C11.5834 15.6667 11.8042 15.7061 11.9928 15.815C12.1814 15.9239 12.3259 16.0954 12.4013 16.2997C12.4766 16.5041 12.4779 16.7284 12.4051 16.9336C12.6432 16.9899 12.8871 17.0181 13.1318 17.0175V15.1415C12.963 15.1419 12.7958 15.1089 12.6397 15.0444C12.4837 14.9799 12.342 14.8851 12.2228 14.7656C12.1035 14.6461 12.0091 14.5041 11.945 14.348C11.8809 14.1918 11.8483 14.0245 11.8491 13.8556Z" fill="#2C5871"/>
<path d="M15.3774 13.8556C15.3786 13.6336 15.4591 13.4193 15.6043 13.2513C15.7495 13.0833 15.9499 12.9727 16.1694 12.9394C16.0265 12.4753 15.7789 12.0503 15.4458 11.697C15.3057 11.8709 15.1078 11.9886 14.8882 12.0289C14.6686 12.0691 14.4418 12.0292 14.2492 11.9163C14.0565 11.8034 13.9108 11.6251 13.8386 11.4139C13.7663 11.2026 13.7723 10.9724 13.8555 10.7652C13.6182 10.7104 13.3754 10.6823 13.1318 10.6814V12.5729C13.472 12.5729 13.7983 12.708 14.0389 12.9486C14.2794 13.1891 14.4146 13.5154 14.4146 13.8556C14.4146 14.1958 14.2794 14.5221 14.0389 14.7627C13.7983 15.0032 13.472 15.1384 13.1318 15.1384V17.0299C13.3755 17.0304 13.6184 17.0023 13.8555 16.946C13.7807 16.7401 13.7809 16.5144 13.856 16.3086C13.9311 16.1028 14.0763 15.93 14.2662 15.8206C14.456 15.7112 14.6783 15.6722 14.894 15.7105C15.1098 15.7488 15.3051 15.8618 15.4458 16.0298C15.7783 15.6761 16.0258 15.2512 16.1694 14.7874C15.9473 14.7537 15.7447 14.6409 15.5992 14.4696C15.4537 14.2984 15.3749 14.0803 15.3774 13.8556Z" fill="#0F303F"/>
<path d="M12.1194 13.8556C12.1194 14.1244 12.226 14.3823 12.4158 14.5727C12.6056 14.7631 12.8632 14.8704 13.132 14.8713V12.8431C12.8634 12.8431 12.6059 12.9498 12.416 13.1396C12.2261 13.3295 12.1194 13.5871 12.1194 13.8556Z" fill="#2C5871"/>
<path d="M14.1446 13.8556C14.1446 13.5897 14.0401 13.3345 13.8535 13.1451C13.667 12.9556 13.4134 12.8472 13.1476 12.8431V14.8713C13.4137 14.8664 13.6673 14.7572 13.8537 14.5673C14.0402 14.3773 14.1446 14.1218 14.1446 13.8556Z" fill="#0F303F"/>
</svg>
