<svg width="25" height="19" viewBox="0 0 25 19" fill="none" xmlns="http://www.w3.org/2000/svg">
<rect width="25" height="19" rx="4" fill="#FFBC4D"/>
<path d="M0 4H8C9.10457 4 10 4.89543 10 6V6C10 7.10457 9.10457 8 8 8H0" stroke="#A45A59" stroke-width="0.25"/>
<path d="M0 8H8C9.10457 8 10 8.89543 10 10V10C10 11.1046 9.10457 12 8 12H0" stroke="#A45A59" stroke-width="0.25"/>
<path d="M0 12H8C9.10457 12 10 12.8954 10 14V14C10 15.1046 9.10457 16 8 16H0" stroke="#A45A59" stroke-width="0.25"/>
<path d="M25 4H17C15.8954 4 15 4.89543 15 6V6C15 7.10457 15.8954 8 17 8H25" stroke="#A45A59" stroke-width="0.25"/>
<path d="M25 8H17C15.8954 8 15 8.89543 15 10V10C15 11.1046 15.8954 12 17 12H25" stroke="#A45A59" stroke-width="0.25"/>
<path d="M25 12H17C15.8954 12 15 12.8954 15 14V14C15 15.1046 15.8954 16 17 16H25" stroke="#A45A59" stroke-width="0.25"/>
</svg>
