<svg width="37" height="36" viewBox="0 0 37 36" fill="none" xmlns="http://www.w3.org/2000/svg">
<path d="M31.6532 15.5329C32.4517 15.402 32.9998 14.6459 32.7941 13.8633C32.0541 11.0474 30.5326 8.48633 28.392 6.48387C25.8934 4.14655 22.6917 2.70161 19.286 2.3743C15.8803 2.047 12.462 2.85572 9.56401 4.6744C6.66602 6.49308 4.4512 9.21951 3.26485 12.4286C2.07849 15.6378 1.98726 19.1492 3.00539 22.4156C4.02352 25.682 6.09378 28.5198 8.89343 30.4865C11.6931 32.4532 15.0648 33.4383 18.4829 33.2883C21.4113 33.1598 24.2328 32.2042 26.6265 30.5468C27.2918 30.0862 27.3673 29.1554 26.846 28.5366C26.3246 27.9178 25.4043 27.8469 24.729 28.2928C22.838 29.5413 20.6362 30.2606 18.3544 30.3608C15.5825 30.4825 12.8482 29.6836 10.5778 28.0887C8.30748 26.4938 6.6286 24.1925 5.80296 21.5437C4.97731 18.8948 5.05129 16.0472 6.01336 13.4447C6.97543 10.8423 8.77153 8.63129 11.1217 7.15644C13.4718 5.68159 16.2438 5.02575 19.0057 5.29118C21.7675 5.5566 24.3639 6.72838 26.3902 8.62382C28.0582 10.1842 29.2626 12.1627 29.8867 14.341C30.1096 15.1189 30.8547 15.6638 31.6532 15.5329Z" fill="#FD7F23"/>
<path d="M30.3032 28.3032V18.3032" stroke="#FD7F23" stroke-width="2.5" stroke-linecap="round"/>
<path d="M25.3032 23.3032H35.3032" stroke="#FD7F23" stroke-width="2.5" stroke-linecap="round"/>
<path d="M25.2161 16.7342C25.3028 16.5243 25.3254 16.2932 25.2811 16.0704C25.2368 15.8475 25.1275 15.6428 24.9671 15.4822L21.1482 11.6535C21.0424 11.5438 20.916 11.4564 20.7761 11.3963C20.6363 11.3361 20.486 11.3045 20.3339 11.3033C20.1817 11.302 20.0309 11.3311 19.8901 11.389C19.7493 11.4468 19.6215 11.5321 19.5139 11.64C19.4064 11.7479 19.3214 11.8762 19.2639 12.0174C19.2063 12.1586 19.1774 12.3099 19.1788 12.4624C19.1802 12.6149 19.2119 12.7656 19.272 12.9057C19.3321 13.0458 19.4194 13.1725 19.5289 13.2784L21.3918 15.1461L10.4489 15.1461C10.1451 15.1461 9.85365 15.2671 9.63879 15.4825C9.42393 15.6979 9.30322 15.9901 9.30322 16.2947C9.30322 16.5993 9.42393 16.8915 9.63879 17.1069C9.85365 17.3223 10.1451 17.4433 10.4489 17.4433L24.1575 17.4433C24.384 17.4432 24.6054 17.3758 24.7937 17.2496C24.9819 17.1234 25.1295 16.944 25.2161 16.7342ZM15.0775 22.3135L13.2139 20.4458L24.1575 20.4458C24.4614 20.4458 24.7528 20.3248 24.9676 20.1094C25.1825 19.894 25.3032 19.6018 25.3032 19.2972C25.3032 18.9926 25.1825 18.7004 24.9676 18.485C24.7528 18.2696 24.4614 18.1486 24.1575 18.1486L10.4489 18.1486C10.2225 18.1488 10.0012 18.2163 9.81293 18.3425C9.62471 18.4687 9.47802 18.648 9.39139 18.8578C9.30475 19.0675 9.28207 19.2983 9.32619 19.521C9.37032 19.7437 9.47927 19.9483 9.63929 20.1089L13.4583 23.9376C13.5632 24.0505 13.6896 24.141 13.8302 24.2038C13.9707 24.2666 14.1224 24.3003 14.2763 24.303C14.4301 24.3058 14.5829 24.2774 14.7256 24.2196C14.8682 24.1619 14.9978 24.0759 15.1066 23.9668C15.2154 23.8577 15.3012 23.7278 15.3588 23.5848C15.4164 23.4418 15.4447 23.2886 15.442 23.1343C15.4393 22.9801 15.4056 22.828 15.343 22.6871C15.2804 22.5462 15.1901 22.4186 15.0775 22.3135Z" fill="#FD7F23"/>
</svg>
