<svg width="24" height="24" viewBox="0 0 24 24" fill="none" xmlns="http://www.w3.org/2000/svg">
<circle cx="12" cy="12" r="11" stroke="#00B3EB" stroke-width="2"/>
<path d="M18.9238 10.5955C18.9996 10.4178 19.0194 10.2223 18.9806 10.0337C18.9419 9.84516 18.8463 9.67197 18.7059 9.53609L15.3643 6.29638C15.2718 6.2036 15.1611 6.1296 15.0388 6.07872C14.9165 6.02784 14.7849 6.00109 14.6518 6.00003C14.5187 5.99897 14.3867 6.02362 14.2635 6.07255C14.1404 6.12147 14.0285 6.19369 13.9344 6.28499C13.8403 6.37629 13.7659 6.48484 13.7156 6.60431C13.6652 6.72377 13.6399 6.85176 13.6411 6.98081C13.6424 7.10986 13.6701 7.23738 13.7227 7.35594C13.7753 7.47449 13.8517 7.5817 13.9475 7.67131L15.5775 9.25164L6.00248 9.25164C5.73661 9.25164 5.48162 9.35404 5.29362 9.53631C5.10562 9.71858 5 9.96579 5 10.2236C5 10.4813 5.10562 10.7285 5.29362 10.9108C5.48162 11.0931 5.73661 11.1955 6.00248 11.1955L17.9975 11.1955C18.1957 11.1954 18.3894 11.1383 18.5541 11.0315C18.7189 10.9247 18.848 10.773 18.9238 10.5955ZM10.0525 15.3164L8.4218 13.736L17.9975 13.736C18.2634 13.736 18.5184 13.6337 18.7064 13.4514C18.8944 13.2691 19 13.0219 19 12.7641C19 12.5064 18.8944 12.2592 18.7064 12.0769C18.5184 11.8946 18.2634 11.7922 17.9975 11.7922L6.00248 11.7922C5.80434 11.7924 5.61069 11.8495 5.446 11.9563C5.2813 12.0631 5.15295 12.2148 5.07714 12.3923C5.00134 12.5698 4.98149 12.7651 5.0201 12.9535C5.05871 13.1419 5.15404 13.315 5.29406 13.451L8.63567 16.6907C8.72744 16.7862 8.83812 16.8627 8.96109 16.9159C9.08406 16.969 9.2168 16.9975 9.35141 16.9998C9.48601 17.0022 9.61971 16.9781 9.74454 16.9293C9.86937 16.8804 9.98276 16.8076 10.078 16.7153C10.1731 16.623 10.2482 16.5131 10.2986 16.3921C10.349 16.2711 10.3738 16.1414 10.3714 16.0109C10.369 15.8804 10.3396 15.7517 10.2848 15.6325C10.23 15.5133 10.151 15.4054 10.0525 15.3164Z" fill="#FD7F23"/>
</svg>
