<svg width="24" height="19" viewBox="0 0 24 19" fill="none" xmlns="http://www.w3.org/2000/svg">
<g clip-path="url(#clip0_14_659)">
<path d="M8.42349 10.0905C8.28066 10.0956 8.19386 9.93759 8.01529 9.95805C7.91323 9.95805 7.73486 9.71332 7.6427 9.7952C7.60703 9.90216 7.37225 9.85116 7.47438 9.69319C7.58655 9.63203 7.51951 9.35004 7.31133 9.33643C7.01016 9.31597 6.96412 8.99087 6.64279 9.06115C6.58664 9.04584 6.44883 8.7707 6.2601 9.14779C5.91816 9.02037 6.16305 8.6584 5.92833 8.70438C6.01507 8.49034 5.99466 8.43419 5.99466 8.43419C5.93342 8.44448 5.64249 8.64315 5.73947 8.76894C5.98449 8.90312 5.94366 9.0816 6.11205 9.17847C6.3621 9.27526 6.15947 9.36594 6.16305 9.60148C6.16814 10.3506 6.59173 10.5395 6.60712 10.6413C6.78568 10.9981 6.62238 11.8033 7.14797 12.0379C7.12247 11.9818 7.12762 11.849 7.17862 11.8288C7.48514 11.5638 7.79603 11.5451 7.75018 11.4211C7.70936 11.2783 7.79094 11.1561 8.02573 11.151C8.1227 11.1662 8.32677 10.9114 8.19927 10.6158C8.3674 10.5187 8.59625 10.1482 8.42349 10.0905Z" fill="#20A0DC"/>
<path d="M19.3916 10.4661C19.7164 10.1193 19.6987 9.57516 19.3514 9.25377C19.0041 8.93237 18.4576 8.95302 18.1323 9.30047C17.807 9.64792 17.8246 10.1914 18.1719 10.5128C18.5191 10.8343 19.0663 10.8136 19.3916 10.4661Z" fill="#20A0DC"/>
<path d="M19.7187 10.7693C19.5258 10.9753 19.2715 11.1137 18.9935 11.164L18.8622 12.5514C18.8565 12.6249 18.8284 12.6949 18.7818 12.752C18.7352 12.8091 18.6722 12.8507 18.6013 12.8711C18.2693 16.2826 16.0344 18.41 13.7836 18.8003H19.2245C20.4332 16.035 20.2795 12.1774 20.063 10.022C20.0322 10.3017 19.9114 10.5639 19.7187 10.7693Z" fill="#20A0DC"/>
<path d="M8.82634 13.7876C6.17036 13.6232 4.0598 11.4132 4.0598 8.71975C4.0598 7.62425 4.40323 6.58157 5.05299 5.70454C5.06546 5.68719 5.07327 5.66693 5.07567 5.64571C5.07807 5.62449 5.07497 5.603 5.06669 5.58332C5.0605 5.56778 5.05929 5.55071 5.06323 5.53446C5.10282 5.358 5.1773 5.17815 5.25236 5.03941L0.355056 8.96188C-0.110792 9.33486 -0.119335 10.0972 0.335947 10.6643C0.79123 11.2314 1.53803 11.3886 2.00401 11.0153L4.00462 9.4129C3.76671 11.3707 3.44225 15.7501 4.77549 18.8002H12.3131C10.5223 18.4707 9.00484 16.886 8.82634 13.7876Z" fill="#20A0DC"/>
<path d="M5.83624 8.13318C5.89741 8.01084 5.82084 7.7611 6.01989 7.60829C6.04545 7.46049 6.42671 6.87945 6.49304 6.98647C6.4318 7.05278 6.66802 7.03207 6.74452 6.87938C6.53028 6.8743 6.67317 6.7519 6.48437 6.78767C6.57619 6.62964 7.17834 6.53278 7.05587 6.44614C6.78541 6.41045 6.80582 6.10462 6.74452 6.23203C6.67317 6.36452 6.58148 6.41553 6.56595 6.36967C6.53537 6.23718 6.21378 6.32896 6.27508 6.57863C6.25982 6.57863 6.16298 6.63544 6.14752 6.71634C6.09645 6.93032 6.08628 6.70097 6.06071 6.76194C6.03521 6.82825 5.61678 7.31242 5.50956 8.00563C5.48406 8.21994 5.75452 7.65408 5.83624 8.13318Z" fill="#20A0DC"/>
<path d="M23.645 8.96187L12.7015 0.197433C12.5039 0.0390149 12.255 -0.0185677 11.9997 0.00514289C11.7443 -0.0185677 11.4954 0.0390149 11.2979 0.197433L5.72413 4.66153C5.75003 4.65752 5.77618 4.65534 5.80239 4.65502C5.90874 4.6551 6.0129 4.68526 6.10282 4.74199C6.19273 4.79872 6.26473 4.87972 6.31049 4.97561C6.35625 5.07151 6.37389 5.17838 6.36138 5.28387C6.34887 5.38936 6.30672 5.48915 6.2398 5.57172C6.23328 5.5798 6.22604 5.5882 6.21835 5.5968C6.11439 5.71281 5.88796 5.88888 5.65637 6.00066C5.64541 6.00745 5.63281 6.01114 5.61991 6.01134C5.61054 6.01126 5.60127 6.00941 5.59259 6.00587C5.58447 6.00256 5.57579 6.00086 5.56702 6.00085C5.55688 6.00079 5.54688 6.00312 5.53781 6.00765C5.52875 6.01217 5.52088 6.01877 5.51485 6.02691C4.93128 6.80949 4.6228 7.74052 4.6228 8.71943C4.6228 11.2093 6.65106 13.2349 9.14374 13.2349C11.6364 13.2349 13.6647 11.2091 13.6647 8.71943C13.6647 7.7372 13.3543 6.80363 12.767 6.01948C12.7617 6.0123 12.7547 6.00646 12.7467 6.00242C12.7388 5.99839 12.7299 5.99627 12.721 5.99623C12.714 5.99622 12.7072 5.99752 12.7007 6.00007C12.6891 6.00483 12.6767 6.00732 12.6641 6.00743C12.6521 6.00744 12.6403 6.00491 12.6293 6.00001C12.388 5.88315 12.1696 5.70897 12.0691 5.5968C12.0613 5.5882 12.0543 5.5798 12.0477 5.57165C11.9547 5.45767 11.9102 5.31188 11.9236 5.1655C11.9369 5.01912 12.0071 4.88378 12.1192 4.78847C12.2312 4.69315 12.3762 4.64544 12.523 4.65555C12.6698 4.66566 12.8068 4.73279 12.9047 4.84255C12.9112 4.84946 12.9171 4.85662 12.923 4.86405C13.0372 5.00521 13.1668 5.29331 13.2245 5.53433C13.231 5.55895 13.2293 5.57934 13.2203 5.59504C13.2115 5.60945 13.2071 5.62614 13.2078 5.64302C13.2084 5.6599 13.2141 5.6762 13.224 5.68988C13.8807 6.56991 14.2278 7.61754 14.2278 8.71943C14.2278 11.3853 12.1604 13.5778 9.54287 13.7818C9.77609 20.8616 17.537 18.8503 18.283 12.7994C18.2408 12.7623 18.2078 12.7158 18.1869 12.6637C18.1659 12.6116 18.1575 12.5552 18.1624 12.4992L18.2943 11.1045C18.1353 11.0453 17.9894 10.9556 17.8649 10.8404C17.3372 10.3519 17.31 9.52519 17.8045 8.99757C18.2991 8.46994 19.1307 8.43809 19.6584 8.9267C19.8133 9.07 19.9305 9.24917 19.9996 9.4484C19.9982 9.43687 19.9968 9.42436 19.9954 9.41296L21.996 11.0154C22.462 11.3886 23.209 11.2314 23.6641 10.6644C24.1191 10.0974 24.1109 9.33486 23.645 8.96187ZM13.1439 8.76867C13.1439 10.9752 11.3531 12.764 9.14393 12.764C6.93476 12.764 5.14389 10.9752 5.14389 8.76867C5.14389 6.56216 6.93476 4.77344 9.14393 4.77344C11.3531 4.77344 13.1439 6.56216 13.1439 8.76867Z" fill="#11BBDE"/>
<path d="M7.17834 5.66116V5.68155C7.34674 5.69177 7.55595 5.76825 7.36206 5.81919C7.20378 5.94158 7.64784 6.21165 7.82648 5.98737C7.93871 5.71216 8.36732 5.80902 8.31124 5.702C8.35206 5.54905 9.28082 5.55922 8.9593 5.51342C8.61743 5.5032 9.11243 5.32452 9.52584 5.16167C8.93895 5.17685 8.17343 4.92216 7.17834 5.66116Z" fill="#20A0DC"/>
<path d="M9.74351 7.67447C9.6822 7.70847 9.15831 7.80364 9.34203 8.857C9.46451 9.35994 10.0496 9.45511 10.2812 9.39941C10.8322 9.1356 10.6485 9.41433 10.7302 9.40072C10.8731 9.33955 11.1249 9.4755 10.9684 9.66583C10.88 9.82216 11.3154 10.3046 11.1521 10.4745C10.9071 10.7531 11.2541 11.3579 11.2678 11.5958C11.3357 11.7318 12.0298 11.1814 12.1048 10.8686C12.1048 10.5357 12.438 10.5494 12.3904 10.2358C12.2681 9.43459 12.9349 9.44156 12.7579 8.89778C12.5402 9.0745 12.4514 8.62589 12.1253 7.87158C12.2884 8.06192 12.3842 8.1081 12.622 8.76867C12.6909 8.7348 12.8594 8.72464 12.8942 8.57834C12.7785 7.47065 12.0776 6.28134 11.5537 5.9279C11.057 5.60872 11.0638 5.81241 10.7917 5.88712C10.3086 5.92113 10.6352 6.17263 10.8665 6.1114C11.0231 6.36967 11.2747 6.26122 11.1454 6.07362C11.3564 6.063 11.3224 5.9279 11.3224 6.07362C11.3224 6.21933 11.5046 6.20858 11.4313 6.31528C11.3293 6.492 11.1863 6.3629 11.0707 6.31385C10.9482 6.26486 10.7285 6.21933 10.8052 6.32212C10.4987 6.2745 10.5467 6.44445 10.0432 6.53278C10.6487 7.04249 9.85268 6.66189 9.79835 6.79783C9.75746 6.90655 9.70301 7.22599 10.0092 7.2396C9.98846 7.40948 9.74618 7.39157 9.74351 7.67447ZM10.1381 7.23394C10.4915 7.12209 10.3626 6.92016 10.6552 6.87939C10.9747 6.84773 11.1859 7.27354 11.3832 7.12405C11.3832 7.12405 11.0838 6.94055 11.0158 6.78422C11.3368 6.85509 11.4445 7.11727 11.6077 7.35509C11.6077 7.35509 11.7779 7.34154 11.6077 7.16482C11.5397 7.015 11.8323 7.34155 11.948 6.91339C11.9684 6.78422 12.3222 7.1376 12.3358 7.29393C12.3376 7.40173 11.5397 6.97475 11.9412 7.42987C12.0229 7.5182 12.2635 7.30709 12.2066 7.75609C12.0364 7.89197 11.5193 7.29393 11.5466 7.70847C11.342 7.70756 11.2676 7.53175 11.0567 7.53859C10.9965 7.27953 10.9954 7.21237 10.6892 7.2396C10.5056 7.25999 9.91568 7.37802 10.1382 7.23394H10.1381Z" fill="#20A0DC"/>
</g>
<defs>
<clipPath id="clip0_14_659">
<rect width="24" height="18.8" fill="white"/>
</clipPath>
</defs>
</svg>
