<svg width="24" height="24" viewBox="0 0 24 24" fill="none" xmlns="http://www.w3.org/2000/svg">
<path d="M9.06814 3.22803C7.70465 3.07564 6.29561 3.07564 4.93212 3.22803C4.05493 3.32606 3.34563 4.01682 3.24219 4.90125C3.0791 6.29567 3.0791 7.70435 3.24219 9.09876C3.34563 9.9832 4.05493 10.6739 4.93212 10.772C6.29561 10.9244 7.70465 10.9244 9.06814 10.772C9.94532 10.6739 10.6546 9.9832 10.758 9.09876C10.9211 7.70435 10.9211 6.29567 10.758 4.90125C10.6546 4.01682 9.94532 3.32606 9.06814 3.22803Z" fill="#20A0DC"/>
<path d="M9.06814 13.228C7.70465 13.0756 6.29561 13.0756 4.93212 13.228C4.05493 13.3261 3.34563 14.0168 3.24219 14.9012C3.0791 16.2957 3.0791 17.7043 3.24219 19.0988C3.34563 19.9832 4.05493 20.6739 4.93212 20.772C6.29561 20.9244 7.70465 20.9244 9.06814 20.772C9.94532 20.6739 10.6546 19.9832 10.758 19.0988C10.9211 17.7043 10.9211 16.2957 10.758 14.9012C10.6546 14.0168 9.94532 13.3261 9.06814 13.228Z" fill="#20A0DC"/>
<path d="M19.0681 3.22803C17.7046 3.07564 16.2956 3.07564 14.9321 3.22803C14.0549 3.32606 13.3456 4.01682 13.2422 4.90125C13.0791 6.29567 13.0791 7.70435 13.2422 9.09876C13.3456 9.9832 14.0549 10.6739 14.9321 10.772C16.2956 10.9244 17.7046 10.9244 19.0681 10.772C19.9453 10.6739 20.6546 9.9832 20.7581 9.09876C20.9212 7.70435 20.9212 6.29567 20.7581 4.90125C20.6546 4.01682 19.9453 3.32606 19.0681 3.22803Z" fill="#77D4FC"/>
<path d="M19.0681 13.228C17.7046 13.0756 16.2956 13.0756 14.9321 13.228C14.0549 13.3261 13.3456 14.0168 13.2422 14.9012C13.0791 16.2957 13.0791 17.7043 13.2422 19.0988C13.3456 19.9832 14.0549 20.6739 14.9321 20.772C16.2956 20.9244 17.7046 20.9244 19.0681 20.772C19.9453 20.6739 20.6546 19.9832 20.7581 19.0988C20.9212 17.7043 20.9212 16.2957 20.7581 14.9012C20.6546 14.0168 19.9453 13.3261 19.0681 13.228Z" fill="#20A0DC"/>
</svg>
