<svg width="24" height="23" viewBox="0 0 24 23" fill="none" xmlns="http://www.w3.org/2000/svg">
<path d="M21.974 4.05195H2.02597C0.903896 4.05195 0 3.14805 0 2.02597C0 0.903896 0.903896 0 2.02597 0H21.974C23.0961 0 24 0.903896 24 2.02597C24 3.14805 23.0961 4.05195 21.974 4.05195ZM24 11.0649C24 9.94286 23.0961 9.03896 21.974 9.03896H2.02597C0.903896 9.03896 0 9.94286 0 11.0649C0 12.187 0.903896 13.0909 2.02597 13.0909H21.974C23.0961 13.0909 24 12.187 24 11.0649ZM24 20.1039C24 18.9818 23.0961 18.0779 21.974 18.0779H2.02597C0.903896 18.0779 0 18.9818 0 20.1039C0 21.226 0.903896 22.1299 2.02597 22.1299H21.974C23.0961 22.1299 24 21.226 24 20.1039Z" fill="#365864"/>
</svg>
