<svg width="24" height="26" viewBox="0 0 24 26" fill="none" xmlns="http://www.w3.org/2000/svg">
<path d="M10.85 19.9216V22.1188H7.57257V23.1733H0V24.9222H7.57257V25.9179H10.85H12V24.9222V23.1733V22.1188V19.9216H10.85Z" fill="#2C5871"/>
<path d="M16.4274 23.1733V22.1188H13.15V19.9216H12V22.1188V23.1733V24.9222V25.9179H13.15H16.4274V24.9222H24V23.1733H16.4274Z" fill="#0F303F"/>
<path d="M12 1.59828V0H1.21249C0.89092 0 0.582519 0.127744 0.355133 0.355131C0.127746 0.582517 0 0.890919 0 1.21249V18.7128C0 19.0344 0.127746 19.3428 0.355133 19.5702C0.582519 19.7975 0.89092 19.9253 1.21249 19.9253H12V16.9088H0.848744V1.59828H12Z" fill="#2C5871"/>
<path d="M22.7875 0H12V1.59828H23.1549V16.9088H12V19.9253H22.7875C23.1091 19.9253 23.4175 19.7975 23.6449 19.5702C23.8723 19.3428 24 19.0344 24 18.7128V1.21249C24 0.890919 23.8723 0.582517 23.6449 0.355131C23.4175 0.127744 23.1091 0 22.7875 0Z" fill="#0F303F"/>
<path d="M23.1513 1.59829H12V16.9088H23.1513V1.59829Z" fill="#FDA014"/>
<path d="M11.9999 1.59829H0.848633V16.9088H11.9999V1.59829Z" fill="#FDC63A"/>
</svg>
