<svg width="18" height="18" viewBox="0 0 18 18" fill="none" xmlns="http://www.w3.org/2000/svg">
<rect width="18" height="18" rx="4" fill="#FF7E20"/>
<path d="M14.6875 7.39584L9 14.3958L3.3125 7.39584L6.08333 3.89584H11.9167L14.6875 7.39584Z" fill="white"/>
<path fill-rule="evenodd" clip-rule="evenodd" d="M9.00004 14.6875C8.91221 14.6875 8.82907 14.6479 8.77368 14.5797L3.08617 7.57975C2.99998 7.47367 2.99902 7.32196 3.08386 7.21479L5.85469 3.71479C5.91001 3.6449 5.99426 3.60416 6.08337 3.60416H11.9167C12.0058 3.60416 12.0901 3.6449 12.1454 3.71479L14.9162 7.21479C15.0011 7.32196 15.0001 7.47367 14.9139 7.57975L9.2264 14.5797C9.17102 14.6479 9.08788 14.6875 9.00004 14.6875ZM6.08337 3.89582H11.9167L14.6875 7.39582L9.00004 14.3958L3.31254 7.39582L6.08337 3.89582Z" fill="#FF7E20"/>
<path d="M14.6875 7.39584L9 14.3958L8.5625 7.39584L9 3.89584H11.9167L14.6875 7.39584Z" fill="white"/>
<path d="M3.3125 7.39584L9 14.3958L4.33333 7.39584L7.25 3.89584H6.08333L3.3125 7.39584Z" fill="white"/>
<path d="M14.6875 7.39584L9 14.3958L11.9167 7.39584L9 3.89584H11.9167L14.6875 7.39584Z" fill="white"/>
<path d="M13.2292 7.39584L9 14.3958L11.9167 7.39584L9 3.89584H10.4583L13.2292 7.39584Z" fill="white"/>
<path fill-rule="evenodd" clip-rule="evenodd" d="M6.21834 4.29447C6.27374 4.22677 6.35659 4.1875 6.44407 4.1875H8.12496C8.20551 4.1875 8.2708 4.25279 8.2708 4.33333C8.2708 4.41388 8.20551 4.47917 8.12496 4.47917H6.44407L4.51909 6.83193C4.46809 6.89427 4.3762 6.90346 4.31387 6.85246C4.25153 6.80145 4.24234 6.70957 4.29335 6.64724L6.21834 4.29447Z" fill="white"/>
<path fill-rule="evenodd" clip-rule="evenodd" d="M3.16663 7.39583C3.16663 7.31529 3.23192 7.25 3.31246 7.25H14.6875C14.768 7.25 14.8333 7.31529 14.8333 7.39583C14.8333 7.47638 14.768 7.54167 14.6875 7.54167H3.31246C3.23192 7.54167 3.16663 7.47638 3.16663 7.39583Z" fill="#FF7E20"/>
<path fill-rule="evenodd" clip-rule="evenodd" d="M8.99996 14.5417C9.05931 14.5417 9.11273 14.5057 9.13507 14.4507L11.9788 7.45073C11.9988 7.40143 11.9904 7.34516 11.9569 7.30387L9.11314 3.80387C9.08544 3.76979 9.04387 3.75 8.99996 3.75C8.95605 3.75 8.91447 3.76979 8.88678 3.80387L6.04303 7.30387C6.00948 7.34516 6.00108 7.40143 6.02109 7.45073L8.86484 14.4507C8.88718 14.5057 8.94062 14.5417 8.99996 14.5417ZM6.32378 7.42086L8.99996 4.1271L11.6761 7.42086L8.99996 14.0084L6.32378 7.42086Z" fill="#FF7E20"/>
</svg>
