<svg width="24" height="20" viewBox="0 0 24 20" fill="none" xmlns="http://www.w3.org/2000/svg">
<g clip-path="url(#clip0_83_32)">
<path fill-rule="evenodd" clip-rule="evenodd" d="M16.9219 8.79102C17.5527 8.79102 18.1133 9.0957 18.4629 9.56445C18.8125 9.09375 19.373 8.79102 20.0039 8.79102C21.0645 8.79102 21.9238 9.65039 21.9238 10.7109C21.9238 11.7715 21.0645 12.6309 20.0039 12.6309C19.373 12.6309 18.8125 12.3262 18.4629 11.8574C18.1133 12.3281 17.5527 12.6309 16.9219 12.6309C15.8613 12.6309 15.002 11.7715 15.002 10.7109C15.002 9.65039 15.8613 8.79102 16.9219 8.79102ZM7.65234 7.21289C9.7793 8.56055 11.7012 9.19922 13.3496 9.04883C13.4551 11.1855 13.2324 13.002 12.7207 14.5137H22.6816C22.834 14.5137 22.9727 14.4512 23.0742 14.3496C23.1758 14.248 23.2383 14.1094 23.2383 13.957V6.63867H0.763672V13.957C0.763672 14.1094 0.826172 14.248 0.927734 14.3496C1.0293 14.4512 1.16797 14.5137 1.32031 14.5137H2.66602C2.16211 13.002 1.91992 11.1641 1.97656 8.95898C3.91211 9.0625 5.8125 8.64258 7.65234 7.21289ZM12.4277 15.2773C11.4785 17.4668 9.8457 18.9336 7.67383 19.752C5.54102 18.9727 3.91406 17.5391 2.95312 15.2773H1.32031C0.957031 15.2773 0.626953 15.1289 0.388672 14.8906C0.148438 14.6523 0 14.3223 0 13.959V1.32031C0 0.957031 0.148438 0.626953 0.386719 0.386719C0.626953 0.148438 0.957031 0 1.32031 0H22.6816C23.0449 0 23.375 0.148438 23.6133 0.386719C23.8516 0.625 24 0.957031 24 1.31836V13.9551C24 14.3184 23.8516 14.6484 23.6133 14.8867C23.375 15.125 23.0449 15.2754 22.6816 15.2754H12.4277V15.2773ZM7.65625 8.38086C9.42383 9.50195 11.0215 10.0312 12.3906 9.90625C12.4844 11.7891 12.2695 13.3555 11.7871 14.6387L11.7734 14.6738C11.7578 14.7129 11.7441 14.752 11.7285 14.7891L11.7109 14.832C11.6973 14.8672 11.6816 14.9023 11.668 14.9375L11.6504 14.9785C11.6348 15.0137 11.6191 15.0488 11.6035 15.084L11.582 15.1328C11.5684 15.1621 11.5547 15.1914 11.541 15.2207L11.5117 15.2793C10.709 16.9355 9.39453 18.0449 7.67188 18.6934C5.97656 18.0742 4.66602 16.9922 3.85547 15.2793L3.84961 15.2676L3.84766 15.2539L3.8418 15.2422C3.82812 15.2109 3.81445 15.1816 3.80078 15.1504L3.79492 15.1387L3.78906 15.127L3.7832 15.1152L3.77734 15.1035L3.77148 15.0918C3.75781 15.0605 3.74414 15.0293 3.73047 14.998L3.72461 14.9863L3.71875 14.9746L3.71289 14.9629C3.69336 14.916 3.67383 14.8672 3.6543 14.8203L3.65039 14.8086L3.64648 14.7969C3.63281 14.7598 3.61719 14.7246 3.60352 14.6875L3.59961 14.6758L3.5957 14.6641L3.5918 14.6523L3.58789 14.6406C3.57422 14.6035 3.56055 14.5664 3.54688 14.5293L3.54297 14.5176C3.10156 13.2598 2.88672 11.7148 2.93555 9.83398C4.54883 9.91602 6.12695 9.56836 7.65625 8.38086ZM0.763672 2.84375H23.2363V1.32031C23.2363 1.16797 23.1738 1.0293 23.0723 0.927734C22.9707 0.826172 22.832 0.763672 22.6797 0.763672H1.32031C1.16797 0.763672 1.0293 0.826172 0.927734 0.927734C0.826172 1.0293 0.763672 1.16797 0.763672 1.32031V2.84375Z" fill="#20A0DC"/>
<path d="M4.80859 13.1523L5.81836 13.1387L5.89453 13.1582C6.09766 13.2754 6.29102 13.4102 6.4707 13.5625C6.59961 13.6719 6.72461 13.791 6.8418 13.9219C7.20508 13.3379 7.58984 12.8027 7.99805 12.3105C8.44531 11.7715 8.91992 11.2813 9.41797 10.834L9.51563 10.7969H10.6191L10.3965 11.043C9.71289 11.8027 9.09375 12.5859 8.5332 13.3965C7.97266 14.207 7.47266 15.043 7.02734 15.9023L6.88867 16.1699L6.76172 15.8984C6.52734 15.3945 6.24609 14.9316 5.91016 14.5176C5.57422 14.1035 5.18359 13.7363 4.72852 13.4238L4.80859 13.1523Z" fill="#69C229"/>
</g>
<defs>
<clipPath id="clip0_83_32">
<rect width="24" height="19.752" fill="white"/>
</clipPath>
</defs>
</svg>
