<svg width="24" height="28" viewBox="0 0 24 28" fill="none" xmlns="http://www.w3.org/2000/svg">
<g clip-path="url(#clip0_14_598)">
<path d="M12.0201 4.91115C12.2981 4.9115 12.5758 4.92861 12.8518 4.96239V2.47765H11.149V4.96712C11.438 4.93054 11.7289 4.91185 12.0201 4.91115Z" fill="#E94E1B"/>
<path d="M4.84417 12.0871C4.84481 11.7733 4.86667 11.4599 4.9096 11.149H2.48004V12.851H4.88674C4.85864 12.5973 4.84442 12.3423 4.84417 12.0871Z" fill="#E94E1B"/>
<path d="M12.0201 19.2631C11.7301 19.2623 11.4405 19.2434 11.153 19.2063V21.52H12.8557V19.2118C12.5784 19.2454 12.2994 19.2625 12.0201 19.2631Z" fill="#E94E1B"/>
<path d="M19.1306 11.149C19.1735 11.4599 19.1954 11.7733 19.196 12.0871C19.1954 12.3423 19.1812 12.5973 19.1535 12.851H21.5184V11.149H19.1306Z" fill="#E94E1B"/>
<path d="M7.00171 6.97099C7.19862 6.77476 7.40711 6.59049 7.62605 6.41918L5.87049 4.66599L4.66675 5.86736L6.42546 7.62687C6.60357 7.39635 6.79604 7.17729 7.00171 6.97099Z" fill="#E94E1B"/>
<path d="M7.00171 17.122C6.78002 16.8999 6.57379 16.6628 6.38447 16.4125L4.66675 18.1303L5.87049 19.334L7.57166 17.6328C7.37259 17.473 7.18233 17.3025 7.00171 17.122Z" fill="#E94E1B"/>
<path d="M17.1496 17.122C16.9434 17.3272 16.7246 17.5194 16.4945 17.6975L18.1302 19.3332L19.334 18.1295L17.7014 16.4969C17.5301 16.7161 17.3458 16.9248 17.1496 17.122Z" fill="#E94E1B"/>
<path d="M16.4401 6.35611C16.6901 6.54585 16.9271 6.75205 17.1496 6.97336C17.33 7.15406 17.5003 7.3446 17.6596 7.54409L19.334 5.86736L18.1303 4.66599L16.4401 6.35611Z" fill="#E94E1B"/>
<path d="M23.9858 12.5806C23.9945 12.3875 24 12.1943 24 11.9996C24 11.8049 23.9945 11.6118 23.9858 11.4202C21.5121 10.1124 21.1243 8.73996 22.6252 6.42234C22.4549 6.09913 22.271 5.78538 22.0734 5.4811C19.3238 5.65925 18.3384 4.67624 18.5189 1.92583C18.2146 1.72876 17.9009 1.54482 17.5777 1.37402C15.264 2.8718 13.8876 2.4879 12.5837 0.0141895C12.3922 0.00551817 12.199 0 12.0043 0C11.8096 0 11.6165 0.00551817 11.4241 0.0141895C10.1124 2.4879 8.73759 2.8718 6.42234 1.37402C6.09965 1.54377 5.78591 1.72771 5.4811 1.92583C5.66004 4.67545 4.67702 5.65847 1.92741 5.48031C1.73033 5.78854 1.54745 6.09913 1.3756 6.41918C2.87338 8.73444 2.4879 10.1092 0.014978 11.417C0.00551834 11.6086 0 11.8025 0 11.9965C0 12.1904 0.00551834 12.3843 0.014978 12.5774C2.4879 13.8844 2.87574 15.2577 1.3756 17.5737C1.54534 17.8969 1.72928 18.2122 1.92741 18.5197C4.67702 18.3415 5.66004 19.3246 5.4811 22.0734C5.78643 22.271 6.10044 22.4549 6.42312 22.6252C8.73759 21.1274 10.1124 21.5129 11.4202 23.9858C11.6125 23.9953 11.8057 24.0008 12.0004 24.0008C12.1951 24.0008 12.3882 23.9953 12.5806 23.9858C13.8876 21.5129 15.2608 21.125 17.5777 22.6252C17.9009 22.456 18.2146 22.272 18.5189 22.0734C18.3407 19.3246 19.3238 18.3415 22.0726 18.5197C22.2702 18.2144 22.4541 17.899 22.6244 17.5737C21.125 15.2624 21.5121 13.8876 23.9858 12.5806ZM12.0035 20.8334C10.2562 20.8342 8.5479 20.3167 7.09472 19.3464C5.64155 18.3761 4.50879 16.9966 3.83975 15.3824C3.17072 13.7683 2.99546 11.9919 3.33616 10.2781C3.67686 8.56433 4.5182 6.99009 5.75375 5.75454C6.9893 4.51899 8.56355 3.67764 10.2773 3.33695C11.9911 2.99625 13.7675 3.17151 15.3817 3.84054C16.9958 4.50958 18.3753 5.64233 19.3456 7.09551C20.3159 8.54869 20.8334 10.257 20.8326 12.0043C20.8313 14.3461 19.9003 16.5916 18.2441 18.2471C16.5879 19.9027 14.3422 20.833 12.0004 20.8334H12.0035Z" fill="#11BBDE"/>
<path d="M12.0004 19.8472C10.4482 19.8474 8.93083 19.3872 7.64018 18.525C6.34953 17.6627 5.34356 16.4371 4.74949 15.0031C4.15543 13.5691 3.99996 11.9912 4.30273 10.4688C4.60551 8.94645 5.35294 7.54807 6.45049 6.45052C7.54804 5.35297 8.94642 4.60554 10.4688 4.30276C11.9911 3.99999 13.5691 4.15546 15.0031 4.74953C16.4371 5.34359 17.6627 6.34956 18.5249 7.64021C19.3872 8.93086 19.8473 10.4482 19.8472 12.0004C19.8447 14.0807 19.0171 16.0751 17.5461 17.5462C16.0751 19.0172 14.0807 19.8447 12.0004 19.8472ZM12.0004 5.22805C10.6609 5.22789 9.35145 5.62495 8.23764 6.36901C7.12383 7.11307 6.25568 8.17071 5.74297 9.40818C5.23027 10.6457 5.09604 12.0074 5.35726 13.3211C5.61849 14.6349 6.26343 15.8417 7.21053 16.7889C8.15762 17.7361 9.36434 18.3812 10.6781 18.6426C11.9918 18.9039 13.3535 18.7699 14.5911 18.2573C15.8286 17.7447 16.8863 16.8767 17.6305 15.763C18.3747 14.6493 18.7719 13.3399 18.7719 12.0004C18.77 10.205 18.056 8.48361 16.7865 7.21398C15.5171 5.94434 13.7958 5.23014 12.0004 5.22805Z" fill="#11BBDE"/>
<path opacity="0.01" d="M22.9192 25.687C22.9192 26.4682 18.2816 27.1012 12.5601 27.1012C6.83854 27.1012 2.20093 26.4706 2.20093 25.687C2.20093 24.9034 6.83933 24.2735 12.5601 24.2735C18.2808 24.2735 22.9192 24.9066 22.9192 25.687Z" fill="#878787"/>
<path opacity="0.02" d="M22.5015 25.687C22.5015 26.4367 18.0507 27.0444 12.5601 27.0444C7.06956 27.0444 2.61957 26.4367 2.61957 25.687C2.61957 24.9373 7.07035 24.3303 12.5601 24.3303C18.0499 24.3303 22.5015 24.9373 22.5015 25.687Z" fill="#878787"/>
<path opacity="0.03" d="M22.0828 25.687C22.0828 26.4051 17.8197 26.9877 12.5601 26.9877C7.30052 26.9877 3.03815 26.4051 3.03815 25.687C3.03815 24.9688 7.3021 24.3871 12.5601 24.3871C17.8181 24.3871 22.0828 24.9696 22.0828 25.687Z" fill="#878787"/>
<path opacity="0.03" d="M21.7841 25.687C21.7841 26.383 17.6541 26.9483 12.5609 26.9483C7.46765 26.9483 3.33771 26.3846 3.33771 25.687C3.33771 24.9893 7.46765 24.4257 12.5609 24.4257C17.6541 24.4257 21.7841 24.9925 21.7841 25.687Z" fill="#878787"/>
<path opacity="0.03" d="M21.3339 25.687C21.3339 26.3492 17.405 26.8852 12.5577 26.8852C7.71042 26.8852 3.78229 26.3492 3.78229 25.687C3.78229 25.0248 7.71121 24.4887 12.5577 24.4887C17.4042 24.4887 21.3339 25.0232 21.3339 25.687Z" fill="#878787"/>
<path opacity="0.03" d="M21.0391 25.687C21.0391 26.3263 17.2434 26.8442 12.5601 26.8442C7.87676 26.8442 4.08185 26.3263 4.08185 25.687C4.08185 25.0477 7.87754 24.5297 12.5601 24.5297C17.2426 24.5297 21.0391 25.0477 21.0391 25.687Z" fill="#878787"/>
<path opacity="0.03" d="M20.5914 25.7185C20.5914 26.3405 16.8958 26.8442 12.3362 26.8442C7.77664 26.8442 4.08185 26.3405 4.08185 25.7185C4.08185 25.0965 7.77507 24.5904 12.3362 24.5904C16.8974 24.5904 20.5914 25.0957 20.5914 25.7185Z" fill="#878787"/>
<path opacity="0.03" d="M19.9938 25.7185C19.9938 26.2963 16.5662 26.7638 12.3354 26.7638C8.10456 26.7638 4.677 26.2963 4.677 25.7185C4.677 25.1407 8.10614 24.6716 12.3354 24.6716C16.5647 24.6716 19.9938 25.1399 19.9938 25.7185Z" fill="#878787"/>
<path opacity="0.03" d="M19.5476 25.7185C19.5476 26.2624 16.3195 26.7023 12.3362 26.7023C8.35288 26.7023 5.12555 26.2624 5.12555 25.7185C5.12555 25.1746 8.35761 24.7331 12.3362 24.7331C16.3148 24.7331 19.5476 25.1738 19.5476 25.7185Z" fill="#878787"/>
<path opacity="0.03" d="M19.2489 25.7185C19.2489 26.2388 16.154 26.6645 12.3362 26.6645C8.51842 26.6645 5.42432 26.2419 5.42432 25.7185C5.42432 25.1951 8.51921 24.7725 12.3362 24.7725C16.1532 24.7725 19.2489 25.1966 19.2489 25.7185Z" fill="#878787"/>
<path opacity="0.03" d="M18.9501 25.7185C18.9501 26.2167 15.9884 26.6211 12.3362 26.6211C8.68398 26.6211 5.72546 26.2167 5.72546 25.7185C5.72546 25.2203 8.68556 24.8143 12.3378 24.8143C15.99 24.8143 18.9501 25.2195 18.9501 25.7185Z" fill="#878787"/>
<path opacity="0.03" d="M18.6261 25.7185C18.6261 26.1915 15.8103 26.5762 12.3362 26.5762C8.86216 26.5762 6.04712 26.1923 6.04712 25.7185C6.04712 25.2447 8.86295 24.8593 12.3362 24.8593C15.8095 24.8593 18.6261 25.2432 18.6261 25.7185Z" fill="#878787"/>
<path opacity="0.03" d="M18.0286 25.7185C18.0286 26.1481 15.4808 26.4942 12.3362 26.4942C9.19167 26.4942 6.64465 26.1481 6.64465 25.7185C6.64465 25.2889 9.19404 24.9444 12.3362 24.9444C15.4784 24.9444 18.0286 25.2881 18.0286 25.7185Z" fill="#878787"/>
<path opacity="0.03" d="M18.8043 25.687C18.8043 26.16 16.0089 26.5399 12.5601 26.5399C9.11125 26.5399 6.31592 26.1584 6.31592 25.687C6.31592 25.2156 9.11519 24.8348 12.5601 24.8348C16.005 24.8348 18.8043 25.2164 18.8043 25.687Z" fill="#878787"/>
<path opacity="0.03" d="M18.6088 25.687C18.6088 26.1434 15.901 26.5131 12.5601 26.5131C9.21926 26.5131 6.51379 26.1434 6.51379 25.687C6.51379 25.2305 9.22005 24.8656 12.5601 24.8656C15.9002 24.8656 18.6088 25.2313 18.6088 25.687Z" fill="#878787"/>
<path opacity="0.03" d="M18.3155 25.687C18.3155 26.1213 15.7385 26.4753 12.5609 26.4753C9.38319 26.4753 6.80621 26.1237 6.80621 25.687C6.80621 25.2503 9.3824 24.8987 12.5609 24.8987C15.7393 24.8987 18.3155 25.2534 18.3155 25.687Z" fill="#878787"/>
<path opacity="0.03" d="M18.12 25.687C18.12 26.1071 15.6314 26.4469 12.5601 26.4469C9.48887 26.4469 7.00018 26.1071 7.00018 25.687C7.00018 25.2668 9.48966 24.9278 12.5601 24.9278C15.6306 24.9278 18.12 25.2684 18.12 25.687Z" fill="#878787"/>
<path opacity="0.03" d="M17.8268 25.7075C17.8268 26.1158 15.4027 26.4469 12.4135 26.4469C9.42423 26.4469 7.00018 26.1158 7.00018 25.7075C7.00018 25.2991 9.42423 24.968 12.4135 24.968C15.4027 24.968 17.8268 25.2991 17.8268 25.7075Z" fill="#878787"/>
<path opacity="0.03" d="M17.4358 25.7075C17.4358 26.0859 15.1875 26.3925 12.4135 26.3925C9.63942 26.3925 7.39117 26.0859 7.39117 25.7075C7.39117 25.3291 9.63942 25.0216 12.4135 25.0216C15.1875 25.0216 17.4358 25.3283 17.4358 25.7075Z" fill="#878787"/>
<path opacity="0.03" d="M17.1433 25.7075C17.1433 26.0638 15.0252 26.3531 12.4135 26.3531C9.80183 26.3531 7.68365 26.0638 7.68365 25.7075C7.68365 25.3512 9.80183 25.0618 12.4135 25.0618C15.0252 25.0618 17.1433 25.3504 17.1433 25.7075Z" fill="#878787"/>
<path opacity="0.03" d="M16.9462 25.7075C16.9462 26.0496 14.9171 26.3263 12.4134 26.3263C9.90978 26.3263 7.88068 26.0496 7.88068 25.7075C7.88068 25.3653 9.91057 25.0886 12.4134 25.0886C14.9163 25.0886 16.9462 25.3653 16.9462 25.7075Z" fill="#878787"/>
<path opacity="0.03" d="M16.7499 25.7075C16.7499 26.0346 14.8083 26.3003 12.4142 26.3003C10.0202 26.3003 8.07855 26.0346 8.07855 25.7075C8.07855 25.3803 10.0202 25.1155 12.4142 25.1155C14.8083 25.1155 16.7499 25.3803 16.7499 25.7075Z" fill="#878787"/>
<path opacity="0.03" d="M16.5379 25.7075C16.5379 26.0181 14.6917 26.2703 12.4135 26.2703C10.1353 26.2703 8.28906 26.0181 8.28906 25.7075C8.28906 25.3969 10.1361 25.1438 12.4135 25.1438C14.6909 25.1438 16.5379 25.3961 16.5379 25.7075Z" fill="#878787"/>
<path opacity="0.03" d="M16.1461 25.7075C16.1461 25.9889 14.4749 26.2167 12.4135 26.2167C10.3521 26.2167 8.68164 25.9889 8.68164 25.7075C8.68164 25.426 10.3521 25.1982 12.4135 25.1982C14.4749 25.1982 16.1461 25.4253 16.1461 25.7075Z" fill="#878787"/>
<path opacity="0.03" d="M16.7988 25.687C16.7988 26.007 14.9006 26.2664 12.5601 26.2664C10.2196 26.2664 8.32135 26.007 8.32135 25.687C8.32135 25.3669 10.2196 25.1084 12.5601 25.1084C14.9006 25.1084 16.7988 25.3677 16.7988 25.687Z" fill="#878787"/>
<path opacity="0.03" d="M16.6656 25.687C16.6656 25.996 14.8281 26.2475 12.5601 26.2475C10.2921 26.2475 8.45459 25.996 8.45459 25.687C8.45459 25.378 10.2921 25.1265 12.5601 25.1265C14.8281 25.1265 16.6656 25.3772 16.6656 25.687Z" fill="#878787"/>
<path opacity="0.03" d="M16.467 25.687C16.467 25.9818 14.7177 26.2207 12.5601 26.2207C10.4025 26.2207 8.65326 25.9842 8.65326 25.687C8.65326 25.3898 10.4025 25.1533 12.5601 25.1533C14.7177 25.1533 16.467 25.3921 16.467 25.687Z" fill="#878787"/>
<path opacity="0.03" d="M16.3353 25.687C16.3353 25.9723 14.6451 26.2025 12.5601 26.2025C10.475 26.2025 8.78644 25.9723 8.78644 25.687C8.78644 25.4016 10.4758 25.1714 12.5601 25.1714C14.6443 25.1714 16.3353 25.4032 16.3353 25.687Z" fill="#878787"/>
<path opacity="0.03" d="M16.1358 25.7012C16.1358 25.9779 14.4906 26.2025 12.4607 26.2025C10.4308 26.2025 8.78644 25.9779 8.78644 25.7012C8.78644 25.4245 10.4308 25.1998 12.4607 25.1998C14.4906 25.1998 16.1358 25.4237 16.1358 25.7012Z" fill="#878787"/>
<path opacity="0.03" d="M15.8702 25.7012C15.8702 25.9582 14.3432 26.1663 12.4608 26.1663C10.5783 26.1663 9.05133 25.9582 9.05133 25.7012C9.05133 25.4442 10.5783 25.2353 12.4608 25.2353C14.3432 25.2353 15.8702 25.4434 15.8702 25.7012Z" fill="#878787"/>
<path opacity="0.03" d="M15.6708 25.7012C15.6708 25.944 14.2337 26.1387 12.4608 26.1387C10.6879 26.1387 9.25 25.944 9.25 25.7012C9.25 25.4584 10.6918 25.2597 12.4608 25.2597C14.2297 25.2597 15.6708 25.4584 15.6708 25.7012Z" fill="#878787"/>
<path opacity="0.03" d="M15.5375 25.7012C15.5375 25.9329 14.1604 26.1205 12.4631 26.1205C10.7659 26.1205 9.38873 25.9329 9.38873 25.7012C9.38873 25.4694 10.7659 25.281 12.4631 25.281C14.1604 25.281 15.5375 25.4686 15.5375 25.7012Z" fill="#878787"/>
<path opacity="0.03" d="M15.4043 25.7012C15.4043 25.9227 14.0862 26.1024 12.4607 26.1024C10.8353 26.1024 9.51721 25.9227 9.51721 25.7012C9.51721 25.4796 10.8345 25.2991 12.4607 25.2991C14.087 25.2991 15.4043 25.4789 15.4043 25.7012Z" fill="#878787"/>
<path opacity="0.03" d="M15.264 25.7012C15.264 25.9124 14.0098 26.0827 12.4639 26.0827C10.9181 26.0827 9.66388 25.9124 9.66388 25.7012C9.66388 25.4899 10.9173 25.3188 12.4639 25.3188C14.0106 25.3188 15.264 25.4891 15.264 25.7012Z" fill="#878787"/>
<path opacity="0.03" d="M14.9951 25.7012C14.9951 25.8919 13.86 26.0472 12.4607 26.0472C11.0615 26.0472 9.92712 25.8896 9.92712 25.7012C9.92712 25.5128 11.0607 25.3551 12.4607 25.3551C13.8608 25.3551 14.9951 25.5104 14.9951 25.7012Z" fill="#878787"/>
<path opacity="0.03" d="M15.3428 25.687C15.3428 25.8967 14.0989 26.0669 12.5633 26.0669C11.0276 26.0669 9.78369 25.8967 9.78369 25.687C9.78369 25.4773 11.0284 25.3078 12.5633 25.3078C14.0981 25.3078 15.3428 25.4781 15.3428 25.687Z" fill="#878787"/>
<path opacity="0.03" d="M15.253 25.687C15.253 25.8904 14.0476 26.0551 12.5601 26.0551C11.0726 26.0551 9.86804 25.8904 9.86804 25.687C9.86804 25.4836 11.0734 25.3196 12.5601 25.3196C14.0469 25.3196 15.253 25.4836 15.253 25.687Z" fill="#878787"/>
<path opacity="0.03" d="M15.1221 25.687C15.1221 25.8809 13.9751 26.037 12.5601 26.037C11.1451 26.037 9.99811 25.8793 9.99811 25.687C9.99811 25.4946 11.1459 25.3385 12.5601 25.3385C13.9743 25.3385 15.1221 25.4962 15.1221 25.687Z" fill="#878787"/>
<path opacity="0.03" d="M15.0353 25.687C15.0353 25.8746 13.927 26.0252 12.5601 26.0252C11.1931 26.0252 10.0856 25.8746 10.0856 25.687C10.0856 25.4994 11.1939 25.3496 12.5601 25.3496C13.9262 25.3496 15.0353 25.5009 15.0353 25.687Z" fill="#878787"/>
<path opacity="0.03" d="M14.9053 25.6964C14.9053 25.8777 13.8261 26.0252 12.4954 26.0252C11.1648 26.0252 10.0856 25.8777 10.0856 25.6964C10.0856 25.5151 11.1648 25.3677 12.4954 25.3677C13.8261 25.3677 14.9053 25.5151 14.9053 25.6964Z" fill="#878787"/>
<path opacity="0.03" d="M14.7303 25.6964C14.7303 25.8651 13.73 26.0007 12.4955 26.0007C11.261 26.0007 10.2598 25.8651 10.2598 25.6964C10.2598 25.5277 11.2602 25.3914 12.4955 25.3914C13.7307 25.3914 14.7303 25.5269 14.7303 25.6964Z" fill="#878787"/>
<path opacity="0.03" d="M14.6002 25.6964C14.6002 25.8541 13.6543 25.9834 12.4955 25.9834C11.3367 25.9834 10.3907 25.8549 10.3907 25.6964C10.3907 25.538 11.3327 25.4087 12.4955 25.4087C13.6582 25.4087 14.6002 25.5372 14.6002 25.6964Z" fill="#878787"/>
<path opacity="0.03" d="M14.5127 25.6964C14.5127 25.8486 13.6085 25.9723 12.4954 25.9723C11.3823 25.9723 10.4774 25.8486 10.4774 25.6964C10.4774 25.5443 11.3808 25.4205 12.4954 25.4205C13.6101 25.4205 14.5127 25.5443 14.5127 25.6964Z" fill="#878787"/>
<path opacity="0.03" d="M14.4252 25.6964C14.4252 25.8415 13.5581 25.9597 12.4954 25.9597C11.4328 25.9597 10.5641 25.8415 10.5641 25.6964C10.5641 25.5514 11.4312 25.4331 12.4954 25.4331C13.5597 25.4331 14.4252 25.5506 14.4252 25.6964Z" fill="#878787"/>
<path opacity="0.03" d="M14.3314 25.6964C14.3314 25.8352 13.5092 25.9471 12.4954 25.9471C11.4817 25.9471 10.6587 25.8352 10.6587 25.6964C10.6587 25.5577 11.4817 25.445 12.4954 25.445C13.5092 25.445 14.3314 25.5577 14.3314 25.6964Z" fill="#878787"/>
<path opacity="0.03" d="M14.1604 25.6964C14.1604 25.8218 13.4162 25.9227 12.4994 25.9227C11.5826 25.9227 10.8369 25.8218 10.8369 25.6964C10.8369 25.5711 11.5818 25.4694 12.4994 25.4694C13.417 25.4694 14.1604 25.5703 14.1604 25.6964Z" fill="#878787"/>
<path d="M14.8186 17.2198L16.1051 16.385L12.8841 11.4762L11.5983 12.3102L14.8186 17.2198Z" fill="#2E2D2C"/>
<path d="M13.4958 12.417L12.2098 13.2518L12.8691 14.2674L14.1551 13.4326L13.4958 12.417Z" fill="#706F6F"/>
<path d="M13.4942 8.06437C13.1568 7.54412 12.6726 7.13564 12.103 6.89058C11.5333 6.64552 10.9038 6.5749 10.294 6.68764C9.68426 6.80039 9.12162 7.09144 8.67726 7.52397C8.23291 7.95651 7.92681 8.51111 7.79767 9.11763C7.66854 9.72415 7.72217 10.3553 7.95179 10.9314C8.18142 11.5074 8.57671 12.0024 9.08767 12.3538C9.59864 12.7051 10.2023 12.8971 10.8224 12.9053C11.4424 12.9135 12.051 12.7377 12.5711 12.4001C12.9165 12.176 13.2143 11.8861 13.4475 11.547C13.6808 11.2078 13.845 10.826 13.9307 10.4234C14.0164 10.0208 14.022 9.60525 13.9471 9.20048C13.8722 8.79571 13.7183 8.40966 13.4942 8.06437ZM12.1321 11.7237C11.7456 11.974 11.2937 12.1041 10.8333 12.0975C10.3729 12.091 9.92487 11.948 9.54575 11.6868C9.16662 11.4256 8.87346 11.0578 8.70335 10.63C8.53324 10.2022 8.49381 9.73351 8.59006 9.28327C8.6863 8.83304 8.91389 8.42146 9.24404 8.10057C9.5742 7.77968 9.9921 7.5639 10.4449 7.48052C10.8977 7.39713 11.365 7.44988 11.7878 7.63211C12.2106 7.81433 12.5699 8.11784 12.8202 8.50425C13.1557 9.02249 13.2717 9.65273 13.1426 10.2564C13.0136 10.8601 12.6501 11.3879 12.1321 11.7237Z" fill="#2E2D2C"/>
<path opacity="0.5" d="M8.90391 11.0394C9.15461 11.4257 9.51422 11.7289 9.93726 11.9107C10.3603 12.0925 10.8277 12.1448 11.2805 12.0609C11.7332 11.9771 12.151 11.7608 12.4808 11.4395C12.8106 11.1182 13.0378 10.7064 13.1335 10.256C13.2292 9.80556 13.1892 9.3369 13.0186 8.90923C12.8479 8.48157 12.5543 8.11413 12.1748 7.85337C11.7953 7.59262 11.3469 7.45027 10.8865 7.44433C10.4261 7.43839 9.97427 7.56913 9.58816 7.82C9.33182 7.98644 9.11077 8.20175 8.93764 8.45363C8.76451 8.70551 8.6427 8.98903 8.57916 9.28799C8.51562 9.58695 8.5116 9.89551 8.56732 10.196C8.62304 10.4965 8.73742 10.7831 8.90391 11.0394Z" fill="#CDEAFC"/>
</g>
<defs>
<clipPath id="clip0_14_598">
<rect width="24" height="27.1012" fill="white"/>
</clipPath>
</defs>
</svg>
