<svg width="24" height="20" viewBox="0 0 24 20" fill="none" xmlns="http://www.w3.org/2000/svg">
<path d="M9.27936 4.20275C8.921 4.07032 8.542 4.00247 8.15996 4.00235C7.39226 4.00562 6.64997 4.27777 6.0621 4.77151C5.47422 5.26524 5.07791 5.94934 4.94205 6.70493C3.75704 6.76348 2.63945 7.27367 1.81894 8.13067C0.998432 8.98767 0.537317 10.1264 0.530353 11.3128C0.52339 12.4993 0.971102 13.6433 1.7815 14.5099C2.59189 15.3764 3.70341 15.8997 4.88765 15.9722H12.1337V0.941895C11.4431 1.23552 10.8278 1.68126 10.3336 2.24588C9.83936 2.8105 9.47898 3.47942 9.27936 4.20275Z" fill="#4BCDD6"/>
<path d="M21.2949 9.60793C21.1691 8.92033 20.9002 8.26684 20.5056 7.68981C20.1111 7.11278 19.5997 6.62508 19.0046 6.25832C19.0401 6.01274 19.0583 5.76496 19.059 5.51683C19.0614 4.69168 18.8585 3.87891 18.4684 3.15177C18.0784 2.42462 17.5136 1.80595 16.8248 1.35152C16.1361 0.897096 15.3451 0.621197 14.5231 0.548688C13.7012 0.476179 12.8741 0.609339 12.1165 0.93617V15.9779H20.1727C20.9453 15.9772 21.693 15.7044 22.2844 15.2073C22.8759 14.7102 23.2733 14.0206 23.4069 13.2596C23.5405 12.4986 23.4018 11.7149 23.015 11.0461C22.6283 10.3772 22.0183 9.86602 21.2921 9.6022L21.2949 9.60793Z" fill="#03AAB6"/>
<path d="M21.7617 9.21857C21.4492 7.91361 20.6728 6.76682 19.5773 5.99207C19.5916 5.83461 19.6002 5.67428 19.6002 5.51682C19.5987 4.05414 19.0169 2.65179 17.9827 1.61752C16.9484 0.58324 15.546 0.00151709 14.0833 1.34749e-06C13.4119 -0.000470118 12.7461 0.122781 12.1194 0.363588V1.53166C12.191 1.4973 12.2597 1.46295 12.3312 1.43432C12.8843 1.19491 13.4807 1.07211 14.0833 1.07359C15.2613 1.07511 16.3906 1.54372 17.2235 2.37666C18.0564 3.2096 18.5251 4.33887 18.5266 5.51682C18.5261 5.73815 18.5099 5.95916 18.4779 6.17816L18.4235 6.52744L18.7241 6.71352C19.2547 7.041 19.7106 7.47627 20.0622 7.99116C20.4138 8.50604 20.6534 9.08904 20.7654 9.7024L20.8198 10.0059L21.1061 10.1118C21.7147 10.3314 22.2264 10.7588 22.5509 11.3186C22.8754 11.8784 22.992 12.5348 22.8801 13.1721C22.7683 13.8095 22.4351 14.3869 21.9393 14.8027C21.4436 15.2186 20.817 15.4462 20.1699 15.4454H12.1194V16.519H20.1756C21.0487 16.5195 21.8957 16.2211 22.5756 15.6734C23.2556 15.1257 23.7275 14.3616 23.9128 13.5084C24.0982 12.6552 23.9858 11.7643 23.5945 10.9838C23.2031 10.2033 22.5563 9.58035 21.7617 9.21857Z" fill="#0F303F"/>
<path d="M5.06234 15.4454H4.90774C3.86284 15.3777 2.8833 14.9133 2.1695 14.1472C1.4557 13.3811 1.0616 12.3713 1.06782 11.3242C1.07403 10.2771 1.4801 9.272 2.20295 8.51445C2.92579 7.75689 3.91078 7.30417 4.9564 7.24888L5.38012 7.22885L5.45456 6.808C5.52449 6.41378 5.68006 6.03969 5.9103 5.71214C6.14054 5.38459 6.43985 5.11154 6.7871 4.91225C7.13436 4.71296 7.52111 4.59228 7.92008 4.55873C8.31905 4.52518 8.72052 4.57958 9.09618 4.71807L9.64299 4.91562L9.79759 4.34303C9.96606 3.73792 10.2598 3.17496 10.6598 2.69065C11.0598 2.20633 11.5571 1.81147 12.1194 1.53165V0.363586L11.9075 0.446613C11.231 0.740289 10.6195 1.16531 10.1084 1.69704C9.59729 2.22877 9.1968 2.85665 8.93012 3.54428C8.67663 3.49292 8.41864 3.46703 8.16 3.46698C7.33502 3.46582 6.53191 3.73223 5.87118 4.22623C5.21045 4.72022 4.72774 5.41517 4.49548 6.20679C3.26661 6.3704 2.1372 6.9694 1.31243 7.89495C0.487665 8.82051 0.0222631 10.0112 0.000778447 11.2507C-0.0207062 12.4903 0.403153 13.6964 1.19535 14.65C1.98755 15.6035 3.09552 16.2413 4.31798 16.4474C4.31798 16.4474 4.51552 16.4789 4.58136 16.4818C6.41935 16.5505 12.1194 16.519 12.1194 16.519V15.4454H5.06234Z" fill="#2C5871"/>
<path d="M6.49678 19.7741V15.2679H4.79907L8.10573 11.9612L11.4124 15.2679H9.71469V19.7741H6.49678Z" fill="#8DC63F"/>
<path d="M8.1056 12.2647L10.8969 15.0532H9.49985V19.5594H6.71137V15.0532H5.31713L8.1056 12.2647ZM8.1056 11.6578L7.805 11.9612L5.01367 14.7383L4.28076 15.4712H6.2848V19.9774H9.93214V15.4826H11.9362L11.2004 14.7383L8.40907 11.9498L8.1056 11.6463V11.6578Z" fill="white"/>
<path d="M13.5967 16.3787H15.2944V11.8696H18.5152V16.3787H20.2129L16.9033 19.6854L13.5967 16.3787Z" fill="#FDA014"/>
<path d="M18.3005 12.0872V16.5934H19.6947L16.9063 19.3819L14.1035 16.5934H15.4977V12.0872H18.289H18.3005ZM18.7299 11.6578H15.0797V16.1697H13.0757L13.8086 16.9026L16.5999 19.6911L16.9034 19.9946L17.2069 19.6911L19.9953 16.9026L20.7282 16.1697H18.7242V11.6578H18.7299Z" fill="white"/>
</svg>
