<svg width="24" height="24" viewBox="0 0 24 24" fill="none" xmlns="http://www.w3.org/2000/svg">
<g clip-path="url(#clip0_14_668)">
<path d="M14.9206 11.9066C15.1764 11.9689 15.4532 12.0328 15.5689 12.0474C16.302 12.1414 17.0469 12.0698 17.7486 11.838C18.4504 11.6061 19.0912 11.2198 19.6238 10.7076C20.3781 11.1817 21.0086 11.8079 21.4951 12.5555C22.026 13.371 22.3862 14.3353 22.5513 15.4097L22.5529 15.4114L22.5658 15.4947L23.5298 15.3458L23.5168 15.2649H23.5185C23.3323 14.0546 22.9211 12.9592 22.3133 12.0247C21.7014 11.0838 20.8929 10.3088 19.9176 9.74567L19.9136 9.74405L19.7833 9.67043L19.4514 9.48192L19.1884 9.75861L19.0864 9.86621C18.7123 10.2602 18.2621 10.5743 17.7631 10.7893C17.266 11.0022 16.7305 11.1112 16.1897 11.1097C16.0214 11.1097 15.8533 11.0994 15.6863 11.079C15.6037 11.0684 15.3917 11.0191 15.1812 10.9673C15.1195 11.2868 15.0323 11.6009 14.9206 11.9066Z" fill="#333333"/>
<path d="M9.13614 15.4599C10.699 15.4599 12.1162 14.824 13.1425 13.7981C14.1687 12.7723 14.8041 11.3557 14.8041 9.79259C14.8041 8.22953 14.1687 6.81371 13.1425 5.78786C12.1146 4.76038 10.6974 4.12366 9.13533 4.12366C7.57327 4.12366 6.15527 4.75876 5.12819 5.78462C4.10112 6.81048 3.46577 8.2271 3.46577 9.78935C3.46577 11.3516 4.10192 12.7674 5.12819 13.7941C6.1577 14.8232 7.57488 15.4599 9.13614 15.4599ZM12.4505 13.1056C11.6014 13.9543 10.4295 14.4802 9.13695 14.4802C7.84278 14.4802 6.67083 13.9543 5.82262 13.1064C4.9736 12.2569 4.44752 11.0838 4.44752 9.79016C4.44752 8.49813 4.9736 7.32664 5.82262 6.47796C6.67164 5.62928 7.8444 5.10341 9.13695 5.10341C10.4311 5.10341 11.6031 5.62847 12.4513 6.47635C13.2995 7.32422 13.8264 8.49813 13.8264 9.79259C13.8256 11.0854 13.2995 12.2569 12.4505 13.1056Z" fill="#333333"/>
<path d="M14.1129 22.9831H0.978578C0.967247 21.4759 1.24405 20.0827 1.87211 18.8651C2.48479 17.6767 3.43984 16.6468 4.79632 15.8272C5.35721 16.3798 6.00146 16.8126 6.70075 17.1136C7.47038 17.4419 8.29851 17.6111 9.1353 17.6111C9.97208 17.6111 10.8002 17.4419 11.5698 17.1136C12.2691 16.8134 12.9134 16.3798 13.4743 15.8272C13.7316 15.9825 13.9739 16.1446 14.2011 16.3134C14.3621 16.4332 14.7506 16.7786 15.0954 17.0917L15.8028 16.4154C15.424 16.0707 14.9756 15.6727 14.7822 15.5295C14.4671 15.2957 14.1388 15.0804 13.7988 14.8847L13.7948 14.8831L13.6297 14.7892L13.2978 14.6007L13.034 14.8774L12.9045 15.0133C12.4067 15.5351 11.8224 15.9405 11.1822 16.2155C10.5345 16.491 9.83792 16.633 9.13408 16.633C8.43024 16.633 7.73365 16.491 7.086 16.2155C6.4458 15.9405 5.86144 15.5351 5.36368 15.0133L5.35964 15.0093L5.22771 14.8733L4.96305 14.6007L4.63283 14.7916L4.47015 14.8855C2.85467 15.8183 1.724 17.0197 1.00205 18.4185C0.226683 19.9209 -0.0703506 21.6418 0.0138226 23.4953L0.0348644 23.9637H14.52L14.1129 22.9831Z" fill="#333333"/>
<path fill-rule="evenodd" clip-rule="evenodd" d="M19.0499 16.0198L20.1927 17.1111H19.7444L19.6189 17.9469C19.4481 19.0876 18.9957 20.1111 18.1548 20.9144C18.1378 20.9306 18.12 20.9468 18.103 20.9638C18.4235 20.0439 18.5441 19.0698 18.5441 18.0909V17.112H17.9079L19.0499 16.0198Z" fill="#373435"/>
<path d="M19.0492 15.3426L21.4141 17.6006H20.1653L20.1029 18.0197C19.8893 19.4476 19.2952 20.5018 18.4931 21.2688C17.9986 21.7413 17.4223 22.1086 16.8048 22.3901C17.0229 22.0964 17.2126 21.7827 17.3714 21.4532C17.8335 20.497 18.0536 19.387 18.0536 18.0909V17.6014H16.6858L19.0492 15.3426ZM22.9713 17.7365L19.3859 14.3135L19.0492 13.9915L18.7125 14.3135L15.1302 17.7365L15.4669 18.5795H17.0622C17.0152 19.5188 16.8283 20.3287 16.4916 21.0277C16.1015 21.8351 15.5034 22.5066 14.6786 23.0689L15.0461 23.9524C16.5321 23.6676 18.0237 23.0673 19.1665 21.9759C20.0374 21.1442 20.6994 20.0358 20.9973 18.5795H22.6346L22.9713 17.7365Z" fill="#333333"/>
<path fill-rule="evenodd" clip-rule="evenodd" d="M14.2019 16.3134C14.363 16.4332 14.7515 16.7786 15.0963 17.0917L14.5532 17.6111L15.1351 19.0698H16.5312C16.4616 19.6726 16.3152 20.2672 16.0505 20.8157C15.6774 21.5875 15.1084 22.1838 14.4026 22.666L14.0732 22.8909L14.1121 22.9848H0.977799C0.966469 21.4775 1.24327 20.0844 1.87133 18.8668C2.48402 17.6783 3.43906 16.6484 4.79555 15.8288C5.35643 16.3814 6.00068 16.8142 6.69997 17.1152C7.4696 17.4435 8.29773 17.6127 9.13452 17.6127C9.9713 17.6127 10.7994 17.4435 11.5691 17.1152C12.2684 16.815 12.9126 16.3814 13.4735 15.8288C13.7245 15.9776 13.9677 16.1394 14.2019 16.3134Z" fill="#11BBDE"/>
<path fill-rule="evenodd" clip-rule="evenodd" d="M12.4504 13.1056C11.6014 13.9543 10.4295 14.4802 9.13693 14.4802C7.84276 14.4802 6.67081 13.9543 5.8226 13.1064C4.97359 12.2569 4.4475 11.0838 4.4475 9.79016C4.4475 8.49813 4.97359 7.32664 5.8226 6.47796C6.67162 5.62928 7.84438 5.10341 9.13693 5.10341C10.4311 5.10341 11.603 5.62847 12.4513 6.47635C13.2995 7.32422 13.8264 8.49813 13.8264 9.79259C13.8255 11.0854 13.2995 12.2569 12.4504 13.1056Z" fill="#FFD3B3"/>
<path fill-rule="evenodd" clip-rule="evenodd" d="M16.6866 17.6006L19.05 15.3426L21.4149 17.6006H20.1661L20.1038 18.0197C19.8901 19.4476 19.296 20.5018 18.4939 21.2688C17.9994 21.7413 17.4232 22.1086 16.8056 22.3901C17.0237 22.0964 17.2134 21.7827 17.3722 21.4532C17.8343 20.497 18.0545 19.387 18.0545 18.0909V17.6014H17.5648L16.6866 17.6006Z" fill="#F45A52"/>
<path d="M16.0238 1.19171C14.7685 1.19171 13.6313 1.7006 12.8082 2.52339C12.3306 3.00046 11.9651 3.57776 11.7382 4.21347C12.0407 4.35498 12.3311 4.52084 12.6067 4.70941C12.8071 4.04646 13.1964 3.45625 13.727 3.01093C14.2576 2.5656 14.9065 2.28447 15.5943 2.20189C16.2822 2.11932 16.9793 2.23888 17.6003 2.54596C18.2212 2.85305 18.7393 3.33434 19.091 3.93101C19.4427 4.52767 19.6129 5.21385 19.5807 5.90565C19.5486 6.59745 19.3154 7.2649 18.9099 7.82638C18.5043 8.38786 17.9438 8.81905 17.297 9.06723C16.6502 9.31542 15.9451 9.36984 15.2678 9.22384C15.2857 9.41261 15.2946 9.60247 15.2946 9.7934C15.2946 9.93741 15.2897 10.0798 15.28 10.2222C15.5261 10.2626 15.7752 10.2829 16.0246 10.2829C17.2799 10.2829 18.4171 9.77398 19.2402 8.95119C20.0633 8.1284 20.5724 6.99251 20.5724 5.73689C20.5724 4.48126 20.0633 3.34537 19.2402 2.52258C18.4171 1.69979 17.2799 1.19171 16.0238 1.19171Z" fill="#333333"/>
<path fill-rule="evenodd" clip-rule="evenodd" d="M13.501 3.21512C13.9387 2.77859 14.4825 2.46334 15.0789 2.3003C15.6753 2.13727 16.3039 2.13205 16.9029 2.28516C17.502 2.43827 18.0509 2.74444 18.4958 3.17364C18.9407 3.60283 19.2664 4.1403 19.4407 4.73327C19.6151 5.32625 19.6323 5.95436 19.4905 6.55595C19.3487 7.15755 19.0529 7.71196 18.632 8.16477C18.2112 8.61757 17.6798 8.95321 17.09 9.13874C16.5002 9.32427 15.8723 9.35332 15.2678 9.22303C15.1359 7.7975 14.5111 6.46421 13.4889 5.44159C13.218 5.17037 12.9223 4.92498 12.6059 4.7086C12.7765 4.14461 13.084 3.63156 13.501 3.21512Z" fill="#FFD3B3"/>
<path fill-rule="evenodd" clip-rule="evenodd" d="M13.2995 14.5991L13.4654 14.1671C13.4735 14.159 13.4816 14.1517 13.4889 14.1436C14.1233 13.5108 14.6117 12.7471 14.9198 11.9058C15.1756 11.9681 15.4524 12.032 15.5681 12.0466C16.3012 12.1406 17.0461 12.069 17.7478 11.8372C18.4496 11.6053 19.0904 11.219 19.623 10.7068C20.3773 11.1809 21.0078 11.8071 21.4943 12.5546C22.0252 13.3702 22.3854 14.3345 22.5505 15.4089L22.5521 15.4105C22.6104 15.7843 22.6541 15.9388 22.6622 16.163C22.667 16.3005 22.667 16.4623 22.6209 16.726L19.0484 13.3151L18.3734 13.9599L15.8028 16.4162C15.4241 16.0715 14.9757 15.6735 14.7822 15.5303C14.4672 15.2965 14.1388 15.0813 13.7989 14.8855L13.7948 14.8839L13.6297 14.79L13.2995 14.5991Z" fill="#20A0DC"/>
</g>
<defs>
<clipPath id="clip0_14_668">
<rect width="24" height="23.9637" fill="white" transform="matrix(-1 0 0 1 24 0)"/>
</clipPath>
</defs>
</svg>
