<svg width="24" height="26" viewBox="0 0 24 26" fill="none" xmlns="http://www.w3.org/2000/svg">
<path d="M4.02025 16.8249C2.27668 13.7649 1.42992 10.2757 1.5769 6.75687C3.25267 6.27231 4.88253 5.64115 6.4476 4.87071C7.92442 4.05727 9.27679 3.03598 10.4633 1.83812V0C10.4633 0 8.24089 2.30566 5.74309 3.56417C3.90447 4.46546 1.98944 5.20168 0.0205705 5.76415C-0.158442 9.90431 0.833829 14.011 2.88343 17.6127C6.17541 23.4217 10.4537 24.8211 10.4537 24.8211V22.9573C10.4537 22.9573 6.82227 21.7757 4.02025 16.8249Z" fill="#2C5871"/>
<path d="M20.9093 5.76415C18.939 5.19621 17.0229 4.45464 15.1836 3.54816C12.689 2.29285 10.4634 0 10.4634 0V1.85093C11.6499 3.04879 13.0022 4.07007 14.4791 4.88352C16.0451 5.65426 17.6761 6.28542 19.353 6.76968C19.4998 10.2889 18.6519 13.7783 16.9064 16.8377C14.1076 21.7757 10.4634 22.9573 10.4634 22.9573V24.8083C10.4634 24.8083 14.7321 23.4089 18.0368 17.6127C20.0898 14.012 21.0854 9.90524 20.9093 5.76415Z" fill="#0F303F"/>
<path d="M16.9064 16.8249C18.6519 13.7655 19.4998 10.2761 19.353 6.75686C17.6761 6.27261 16.0451 5.64144 14.4791 4.8707C13.0022 4.05726 11.6499 3.03598 10.4634 1.83812V22.9734C10.4634 22.9734 14.1076 21.7757 16.9064 16.8249Z" fill="#9EB603"/>
<path d="M6.4476 4.8707C4.88253 5.64115 3.25267 6.2723 1.57689 6.75686C1.42992 10.2757 2.27667 13.7649 4.02024 16.8249C6.82226 21.7757 10.4633 22.9573 10.4633 22.9573V1.83812C9.27678 3.03598 7.92441 4.05726 6.4476 4.8707Z" fill="#C3D64B"/>
<path d="M14.8601 8.14987C15.6902 8.97964 16.2556 10.037 16.4848 11.1881C16.7139 12.3392 16.5965 13.5324 16.1475 14.6168C15.6985 15.7013 14.9379 16.6282 13.962 17.2803C12.9861 17.9324 11.8388 18.2805 10.6651 18.2805C9.49136 18.2805 8.34401 17.9324 7.36814 17.2803C6.39226 16.6282 5.63171 15.7013 5.18266 14.6168C4.73361 13.5324 4.61624 12.3392 4.8454 11.1881C5.07456 10.037 5.63995 8.97964 6.47006 8.14987C7.58322 7.03836 9.09199 6.41406 10.6651 6.41406C12.2382 6.41406 13.7469 7.03836 14.8601 8.14987Z" fill="white"/>
<path d="M7.5589 15.4479C7.96638 15.8561 8.45032 16.1798 8.98305 16.4007C9.51577 16.6216 10.0868 16.7354 10.6635 16.7354C11.2403 16.7354 11.8113 16.6216 12.344 16.4007C12.8768 16.1798 13.3607 15.8561 13.7682 15.4479L7.5589 9.24187C6.73642 10.0651 6.27441 11.1812 6.27441 12.3449C6.27441 13.5086 6.73642 14.6247 7.5589 15.4479Z" fill="#FDC63A"/>
<path d="M13.7713 9.24186C13.3638 8.83374 12.8799 8.50997 12.3471 8.28906C11.8144 8.06815 11.2434 7.95444 10.6667 7.95444C10.0899 7.95444 9.51889 8.06815 8.98616 8.28906C8.45344 8.50997 7.96949 8.83374 7.56201 9.24186L13.7713 15.4479C14.1793 15.0407 14.503 14.5571 14.7239 14.0246C14.9447 13.4921 15.0584 12.9213 15.0584 12.3449C15.0584 11.7684 14.9447 11.1977 14.7239 10.6652C14.503 10.1327 14.1793 9.64906 13.7713 9.24186Z" fill="#FDA014"/>
<path d="M15.7726 19.1114L15.7534 19.0922L15.0938 19.7326L20.6626 25.3046C20.7741 25.4165 20.9066 25.5052 21.0525 25.5657C21.1984 25.6263 21.3548 25.6574 21.5128 25.6574C21.6707 25.6574 21.8271 25.6263 21.973 25.5657C22.1189 25.5052 22.2514 25.4165 22.363 25.3046L23.0034 24.6642L16.5988 18.2596L15.7726 19.1114Z" fill="#2C5871"/>
<path d="M16.6021 18.282L23.0067 24.6866L23.6471 24.0461C23.759 23.9346 23.8477 23.8021 23.9082 23.6562C23.9688 23.5103 23.9999 23.3539 23.9999 23.1959C23.9999 23.038 23.9688 22.8816 23.9082 22.7357C23.8477 22.5898 23.759 22.4573 23.6471 22.3457L18.0751 16.7737L17.4186 17.4334L17.4379 17.4526L16.6021 18.282Z" fill="#0F303F"/>
<path d="M16.583 18.2531L15.5455 17.2156L15.0523 16.7417L14.3222 16.0115C13.8419 16.4918 13.2718 16.8727 12.6443 17.1326C12.0169 17.3926 11.3443 17.5263 10.6651 17.5263C9.98597 17.5263 9.31345 17.3926 8.68598 17.1326C8.0585 16.8727 7.48837 16.4918 7.00812 16.0115C6.52787 15.5313 6.14692 14.9611 5.88701 14.3337C5.6271 13.7062 5.49333 13.0337 5.49333 12.3545C5.49333 11.6753 5.6271 11.0028 5.88701 10.3753C6.14692 9.74785 6.52787 9.17771 7.00812 8.69746L5.78163 7.47418C4.56242 8.69771 3.84612 10.3338 3.77408 12.0596C3.70204 13.7854 4.2795 15.4755 5.3925 16.7963C6.5055 18.1172 8.07319 18.9729 9.78618 19.1946C11.4992 19.4163 13.2331 18.9878 14.6456 17.9938L15.7536 19.1018L15.7728 19.121L16.6022 18.2916L16.583 18.2531Z" fill="#2C5871"/>
<path d="M16.3043 16.3318C17.2985 14.9189 17.727 13.1846 17.505 11.4712C17.283 9.75789 16.4266 8.19004 15.1051 7.07723C13.7836 5.96441 12.0928 5.38751 10.3667 5.46041C8.64058 5.53331 7.0045 6.25071 5.78149 7.47099L7.00798 8.69427C7.48844 8.21402 8.05879 7.83311 8.68646 7.57328C9.31413 7.31345 9.98682 7.1798 10.6661 7.17995C11.3455 7.1801 12.0181 7.31405 12.6457 7.57415C13.2732 7.83425 13.8434 8.21541 14.3237 8.69587C14.8039 9.17633 15.1848 9.74668 15.4446 10.3743C15.7045 11.002 15.8381 11.6747 15.838 12.354C15.8378 13.0334 15.7039 13.706 15.4438 14.3336C15.1837 14.9611 14.8025 15.5313 14.3221 16.0115L15.0522 16.7417L15.5357 17.2252L16.5829 18.2532L16.6021 18.2724L17.4315 17.443L17.4123 17.4238L16.3043 16.3318Z" fill="#0F303F"/>
</svg>
