<svg width="24" height="31" viewBox="0 0 24 31" fill="none" xmlns="http://www.w3.org/2000/svg">
<path d="M1.80997 10.1244H0V26.0586C0.00108186 26.4989 0.17676 26.9208 0.488493 27.2318C0.800227 27.5427 1.22257 27.7174 1.66288 27.7174H8.91909V10.1489L1.80997 10.1244Z" fill="#FDC63A"/>
<path d="M16.0283 10.1244H8.91919V27.6929H16.1795C16.6194 27.6929 17.0413 27.5181 17.3524 27.207C17.6635 26.8959 17.8383 26.474 17.8383 26.0341V10.0998L16.0283 10.1244Z" fill="#FDA014"/>
<path d="M16.0283 10.1244V0H8.91919V10.1244H16.0283ZM13.5401 3.49327V6.20618H10.8313V3.49327H13.5401Z" fill="#8E8E8E"/>
<path d="M8.91917 0H1.81006V10.1244H8.91917V0ZM4.30233 6.198V3.49327H7.01115V6.20618L4.30233 6.198Z" fill="#C1C1C1"/>
<path d="M7.00692 3.4851H4.2981V6.19801H7.00692V3.4851Z" fill="#8E8E8E"/>
<path d="M13.536 3.4851H10.8271V6.19801H13.536V3.4851Z" fill="#D1D1D1"/>
<path d="M12.3102 25.1475C11.1019 23.0378 10.5101 20.6312 10.6023 18.2018C11.7626 17.8689 12.8907 17.4327 13.973 16.8985C14.9938 16.3369 15.9282 15.631 16.7472 14.8025V13.5237C15.7815 14.4939 14.6806 15.3196 13.4787 15.9751C12.2086 16.6025 10.885 17.1153 9.52371 17.5072C9.40458 20.3635 10.0928 23.1955 11.5094 25.6786C13.7851 29.6949 16.7432 30.6632 16.7432 30.6632V29.3803C16.7432 29.3803 14.2468 28.5795 12.3102 25.1475Z" fill="#2C5871"/>
<path d="M8.9191 10.7862H0.633301V11.5339H8.9191V10.7862Z" fill="#FFD37B"/>
<path d="M17.205 10.7862H8.91919V11.5339H17.205V10.7862Z" fill="#FDC63A"/>
<path d="M23.9871 17.5154C22.6246 17.1231 21.2997 16.6104 20.0281 15.9833C18.827 15.3265 17.7263 14.501 16.7595 13.5318V14.8107C17.5805 15.6388 18.5161 16.3446 19.5378 16.9066C20.6202 17.4409 21.7483 17.8771 22.9085 18.21C23.0066 20.6343 22.4235 23.0377 21.2252 25.1475C19.2886 28.5631 16.7677 29.3844 16.7677 29.3844V30.6673C16.7677 30.6673 19.7298 29.699 22.0056 25.6827C23.4177 23.1995 24.1043 20.3697 23.9871 17.5154Z" fill="#0F303F"/>
<path d="M21.2253 25.1475C22.4279 23.0361 23.014 20.6297 22.9168 18.2018C21.7566 17.8689 20.6285 17.4327 19.5461 16.8985C18.5244 16.3364 17.5888 15.6306 16.7678 14.8025V29.4048C16.7678 29.4048 19.2846 28.5795 21.2253 25.1475Z" fill="#9EB603"/>
<path d="M13.9895 16.8944C12.902 17.4309 11.7684 17.8685 10.6024 18.2018C10.5053 20.6297 11.0913 23.0361 12.2939 25.1475C14.2305 28.5631 16.7473 29.3843 16.7473 29.3843V14.7984C15.9333 15.6256 15.0045 16.3315 13.9895 16.8944Z" fill="#C3D64B"/>
</svg>
