<svg width="41" height="41" viewBox="0 0 41 41" fill="none" xmlns="http://www.w3.org/2000/svg">
<path d="M13.9142 8.73259C13.4542 7.9344 12.4275 7.65305 11.6853 8.19881C9.49676 9.80815 7.77769 11.9892 6.72616 14.5166C5.46015 17.5595 5.23233 20.9348 6.07796 24.1202C6.92359 27.3056 8.79552 30.1236 11.4041 32.1379C14.0126 34.1522 17.2123 35.2506 20.5081 35.2632C23.8038 35.2757 27.0118 34.2017 29.6356 32.2073C32.2594 30.2129 34.1527 27.4093 35.0226 24.2305C35.8925 21.0516 35.6904 17.6746 34.4476 14.6222C33.4153 12.0868 31.7129 9.89276 29.5367 8.2668C28.7987 7.7154 27.7699 7.98892 27.3038 8.78359C26.8378 9.57826 27.1137 10.5916 27.8337 11.1662C29.3852 12.4044 30.6023 14.0247 31.3578 15.8802C32.324 18.2532 32.4811 20.8786 31.8048 23.3499C31.1285 25.8213 29.6566 28.0009 27.6168 29.5514C25.577 31.1019 23.083 31.9369 20.5208 31.9271C17.9586 31.9174 15.471 31.0634 13.443 29.4974C11.4151 27.9314 9.9598 25.7407 9.30238 23.2642C8.64496 20.7878 8.82208 18.1637 9.80631 15.7981C10.5759 13.9484 11.8053 12.3374 13.3662 11.1111C14.0906 10.542 14.3741 9.53079 13.9142 8.73259Z" fill="url(#paint0_linear_4_190)"/>
<g filter="url(#filter0_f_4_190)">
<path d="M13.7113 8.83358C13.28 8.085 12.3171 7.82112 11.621 8.33296C10.9982 8.79095 10.4142 9.29956 9.87503 9.85358C9.27244 10.4727 9.40158 11.4627 10.0838 11.9928C10.7661 12.5229 11.7419 12.3898 12.3639 11.7901C12.6293 11.5343 12.9075 11.292 13.1974 11.0643C13.8768 10.5305 14.1427 9.58216 13.7113 8.83358Z" fill="url(#paint1_linear_4_190)"/>
</g>
<g filter="url(#filter1_f_4_190)">
<path d="M27.5316 9.04785C27.9916 8.24966 29.0183 7.96829 29.7605 8.51405C30.4246 9.00241 31.0473 9.54472 31.6222 10.1355C32.2647 10.7956 32.127 11.8513 31.3996 12.4165C30.6721 12.9817 29.6315 12.8397 28.9683 12.2004C28.6853 11.9275 28.3887 11.6692 28.0796 11.4264C27.3552 10.8573 27.0717 9.84605 27.5316 9.04785Z" fill="url(#paint2_linear_4_190)"/>
</g>
<g filter="url(#filter2_f_4_190)">
<path d="M9.37659 16.2959C9.22634 16.2416 9.06012 16.3192 9.0093 16.4707C8.39725 18.2951 8.22122 20.2391 8.49716 22.1462C8.78691 24.1489 9.5661 26.0493 10.7657 27.6789C11.9653 29.3085 13.5483 30.6172 15.3745 31.4889C17.2006 32.3606 19.2136 32.7685 21.235 32.6764C23.2565 32.5843 25.224 31.9952 26.9634 30.9611C28.7028 29.927 30.1603 28.4799 31.2068 26.7479C32.2533 25.016 32.8565 23.0527 32.963 21.032C33.0645 19.1076 32.7125 17.1877 31.9371 15.4265C31.8727 15.2803 31.7001 15.218 31.5555 15.2858C31.4108 15.3536 31.3488 15.5258 31.413 15.6721C32.1481 17.3471 32.4817 19.1722 32.3852 21.0015C32.2837 22.9273 31.7089 24.7982 30.7115 26.4487C29.7142 28.0992 28.3253 29.4782 26.6677 30.4637C25.0101 31.4492 23.1351 32.0107 21.2087 32.0984C19.2823 32.1861 17.364 31.7974 15.6237 30.9667C13.8834 30.136 12.3749 28.8889 11.2317 27.3359C10.0885 25.7829 9.34594 23.9719 9.06981 22.0634C8.8075 20.2504 8.97378 18.4025 9.55355 16.6676C9.6042 16.5161 9.52683 16.3503 9.37659 16.2959Z" fill="url(#paint3_linear_4_190)"/>
</g>
<g filter="url(#filter3_f_4_190)">
<path d="M33.7726 25.8675C33.9485 25.9421 34.152 25.8602 34.2225 25.6826C35.4066 22.6992 35.5837 19.407 34.7213 16.3087C33.8588 13.2104 32.0061 10.4832 29.4509 8.54072C29.2988 8.42508 29.0822 8.46005 28.9702 8.61484C28.8581 8.76962 28.8931 8.98559 29.0451 9.1014C31.4734 10.9519 33.2343 13.5469 34.0547 16.4943C34.8751 19.4416 34.7083 22.5731 33.5854 25.4122C33.5151 25.5899 33.5967 25.7929 33.7726 25.8675Z" fill="url(#paint4_linear_4_190)"/>
</g>
<rect x="22.9307" y="0.488876" width="20.4469" height="5.11173" rx="2.55587" transform="rotate(90 22.9307 0.488876)" fill="url(#paint5_linear_4_190)"/>
<rect x="22.9307" y="0.488876" width="5.96369" height="5.11174" rx="2.55587" transform="rotate(90 22.9307 0.488876)" fill="url(#paint6_linear_4_190)"/>
<defs>
<filter id="filter0_f_4_190" x="8.48926" y="7.0681" width="6.43164" height="6.2563" filterUnits="userSpaceOnUse" color-interpolation-filters="sRGB">
<feFlood flood-opacity="0" result="BackgroundImageFix"/>
<feBlend mode="normal" in="SourceGraphic" in2="BackgroundImageFix" result="shape"/>
<feGaussianBlur stdDeviation="0.5" result="effect1_foregroundBlur_4_190"/>
</filter>
<filter id="filter1_f_4_190" x="26.3083" y="7.23164" width="6.7251" height="6.53839" filterUnits="userSpaceOnUse" color-interpolation-filters="sRGB">
<feFlood flood-opacity="0" result="BackgroundImageFix"/>
<feBlend mode="normal" in="SourceGraphic" in2="BackgroundImageFix" result="shape"/>
<feGaussianBlur stdDeviation="0.5" result="effect1_foregroundBlur_4_190"/>
</filter>
<filter id="filter2_f_4_190" x="7.37036" y="14.2584" width="26.6096" height="19.4307" filterUnits="userSpaceOnUse" color-interpolation-filters="sRGB">
<feFlood flood-opacity="0" result="BackgroundImageFix"/>
<feBlend mode="normal" in="SourceGraphic" in2="BackgroundImageFix" result="shape"/>
<feGaussianBlur stdDeviation="0.5" result="effect1_foregroundBlur_4_190"/>
</filter>
<filter id="filter3_f_4_190" x="27.9043" y="7.47227" width="8.35596" height="19.4228" filterUnits="userSpaceOnUse" color-interpolation-filters="sRGB">
<feFlood flood-opacity="0" result="BackgroundImageFix"/>
<feBlend mode="normal" in="SourceGraphic" in2="BackgroundImageFix" result="shape"/>
<feGaussianBlur stdDeviation="0.5" result="effect1_foregroundBlur_4_190"/>
</filter>
<linearGradient id="paint0_linear_4_190" x1="26.5607" y1="5.28535" x2="13.0707" y2="35.2633" gradientUnits="userSpaceOnUse">
<stop stop-color="#4CBBE6"/>
<stop offset="1" stop-color="#1B9DDB"/>
</linearGradient>
<linearGradient id="paint1_linear_4_190" x1="12.9202" y1="8.41207" x2="10.9522" y2="10.6612" gradientUnits="userSpaceOnUse">
<stop stop-color="#2E677E"/>
<stop offset="1" stop-color="#3092B9" stop-opacity="0"/>
</linearGradient>
<linearGradient id="paint2_linear_4_190" x1="28.3751" y1="8.59841" x2="30.4736" y2="10.9966" gradientUnits="userSpaceOnUse">
<stop stop-color="#2E677E"/>
<stop offset="1" stop-color="#2E677E" stop-opacity="0"/>
</linearGradient>
<linearGradient id="paint3_linear_4_190" x1="20.7229" y1="20.4319" x2="20.7229" y2="33.0227" gradientUnits="userSpaceOnUse">
<stop stop-color="#2E677E" stop-opacity="0"/>
<stop offset="1" stop-color="#214E61"/>
</linearGradient>
<linearGradient id="paint4_linear_4_190" x1="30.4579" y1="29.8673" x2="25.9612" y2="4.6858" gradientUnits="userSpaceOnUse">
<stop stop-color="#2E677E" stop-opacity="0"/>
<stop offset="1" stop-color="#2E677E"/>
</linearGradient>
<linearGradient id="paint5_linear_4_190" x1="34.4321" y1="3.04474" x2="43.3776" y2="3.04474" gradientUnits="userSpaceOnUse">
<stop stop-color="#3CB1E2"/>
<stop offset="1" stop-color="#20A0DC"/>
</linearGradient>
<linearGradient id="paint6_linear_4_190" x1="23.3566" y1="3.04475" x2="28.8944" y2="3.04475" gradientUnits="userSpaceOnUse">
<stop stop-color="#327E9C"/>
<stop offset="0.799942" stop-color="#327E9C" stop-opacity="0"/>
</linearGradient>
</defs>
</svg>
