<svg width="24" height="24" viewBox="0 0 24 24" fill="none" xmlns="http://www.w3.org/2000/svg">
<path d="M15.5924 15.8655H8.40747V17.2174H15.5924V15.8655Z" fill="#3F3F3E"/>
<path d="M16.8083 16.8825H7.19263V17.5523H16.8083V16.8825Z" fill="#706F6F"/>
<path d="M23.15 0H0.850037C0.380575 0 0 0.380575 0 0.850037V15.2012C0 15.6706 0.380575 16.0512 0.850037 16.0512H23.15C23.6194 16.0512 24 15.6706 24 15.2012V0.850037C24 0.380575 23.6194 0 23.15 0Z" fill="#706F6F"/>
<path d="M23.15 0.944H0.850098V14.2572H23.15V0.944Z" fill="white"/>
<path d="M21.2531 22.4326C21.2531 22.5156 21.2367 22.5978 21.205 22.6745C21.1732 22.7513 21.1266 22.821 21.0679 22.8797C21.0092 22.9384 20.9395 22.985 20.8628 23.0167C20.7861 23.0485 20.7039 23.0649 20.6208 23.0649H3.3769C3.2093 23.0646 3.04865 22.9979 2.93014 22.8793C2.81163 22.7608 2.74492 22.6002 2.74463 22.4326V18.9208C2.74463 18.753 2.81121 18.5921 2.92975 18.4733C3.04829 18.3546 3.20911 18.2877 3.3769 18.2874H20.6208C20.7886 18.2877 20.9494 18.3546 21.068 18.4733C21.1865 18.5921 21.2531 18.753 21.2531 18.9208V22.4326Z" fill="#706F6F"/>
<path d="M4.02691 18.9827H3.35815V19.6503H4.02691V18.9827Z" fill="white"/>
<path d="M4.9489 18.9827H4.28125V19.6503H4.9489V18.9827Z" fill="white"/>
<path d="M5.87175 18.9827H5.2041V19.6503H5.87175V18.9827Z" fill="white"/>
<path d="M6.79473 18.9827H6.12598V19.6503H6.79473V18.9827Z" fill="white"/>
<path d="M7.7177 18.9827H7.05005V19.6503H7.7177V18.9827Z" fill="white"/>
<path d="M8.6419 18.9827H7.97314V19.6503H8.6419V18.9827Z" fill="white"/>
<path d="M9.56486 18.9827H8.89722V19.6503H9.56486V18.9827Z" fill="white"/>
<path d="M10.4891 18.9827H9.82031V19.6503H10.4891V18.9827Z" fill="white"/>
<path d="M11.4119 18.9827H10.7432V19.6503H11.4119V18.9827Z" fill="white"/>
<path d="M12.3339 18.9827H11.6663V19.6503H12.3339V18.9827Z" fill="white"/>
<path d="M13.2568 18.9827H12.5891V19.6503H13.2568V18.9827Z" fill="white"/>
<path d="M14.1808 18.9827H13.5132V19.6503H14.1808V18.9827Z" fill="white"/>
<path d="M15.1039 18.9827H14.4363V19.6503H15.1039V18.9827Z" fill="white"/>
<path d="M16.0281 18.9827H15.3594V19.6503H16.0281V18.9827Z" fill="white"/>
<path d="M16.9499 18.9827H16.2822V19.6503H16.9499V18.9827Z" fill="white"/>
<path d="M17.873 18.9827H17.2053V19.6503H17.873V18.9827Z" fill="white"/>
<path d="M18.7958 18.9827H18.1282V19.6503H18.7958V18.9827Z" fill="white"/>
<path d="M19.7189 18.9827H19.0513V19.6503H19.7189V18.9827Z" fill="white"/>
<path d="M20.6429 18.9827H19.9741V19.6503H20.6429V18.9827Z" fill="white"/>
<path d="M4.43701 19.8968H3.35815V20.5645H4.43701V19.8968Z" fill="white"/>
<path d="M5.36114 19.8968H4.69238V20.5645H5.36114V19.8968Z" fill="white"/>
<path d="M6.28289 19.8968H5.61523V20.5645H6.28289V19.8968Z" fill="white"/>
<path d="M7.2061 19.8968H6.53955V20.5645H7.2061V19.8968Z" fill="white"/>
<path d="M8.13005 19.8968H7.4624V20.5645H8.13005V19.8968Z" fill="white"/>
<path d="M9.05425 19.8968H8.3855V20.5645H9.05425V19.8968Z" fill="white"/>
<path d="M9.97612 19.8968H9.30957V20.5645H9.97612V19.8968Z" fill="white"/>
<path d="M10.9002 19.8968H10.2314V20.5645H10.9002V19.8968Z" fill="white"/>
<path d="M11.8232 19.8968H11.1555V20.5645H11.8232V19.8968Z" fill="white"/>
<path d="M12.7461 19.8968H12.0774V20.5645H12.7461V19.8968Z" fill="white"/>
<path d="M13.6681 19.8968H13.0005V20.5645H13.6681V19.8968Z" fill="white"/>
<path d="M14.5922 19.8968H13.9246V20.5645H14.5922V19.8968Z" fill="white"/>
<path d="M15.5151 19.8968H14.8474V20.5645H15.5151V19.8968Z" fill="white"/>
<path d="M16.4391 19.8968H15.7715V20.5645H16.4391V19.8968Z" fill="white"/>
<path d="M17.3622 19.8968H16.6946V20.5645H17.3622V19.8968Z" fill="white"/>
<path d="M18.2853 19.8968H17.6177V20.5645H18.2853V19.8968Z" fill="white"/>
<path d="M19.2093 19.8968H18.5405V20.5645H19.2093V19.8968Z" fill="white"/>
<path d="M20.6431 19.8968H19.4636V20.5645H20.6431V19.8968Z" fill="white"/>
<path d="M4.02691 20.7889H3.35815V21.4565H4.02691V20.7889Z" fill="white"/>
<path d="M4.9489 20.7889H4.28125V21.4565H4.9489V20.7889Z" fill="white"/>
<path d="M5.87175 20.7889H5.2041V21.4565H5.87175V20.7889Z" fill="white"/>
<path d="M6.79473 20.7889H6.12598V21.4565H6.79473V20.7889Z" fill="white"/>
<path d="M7.7177 20.7889H7.05005V21.4565H7.7177V20.7889Z" fill="white"/>
<path d="M8.6419 20.7889H7.97314V21.4565H8.6419V20.7889Z" fill="white"/>
<path d="M9.56486 20.7889H8.89722V21.4565H9.56486V20.7889Z" fill="white"/>
<path d="M10.4891 20.7889H9.82031V21.4565H10.4891V20.7889Z" fill="white"/>
<path d="M11.4119 20.7889H10.7432V21.4565H11.4119V20.7889Z" fill="white"/>
<path d="M12.3339 20.7889H11.6663V21.4565H12.3339V20.7889Z" fill="white"/>
<path d="M13.2568 20.7889H12.5891V21.4565H13.2568V20.7889Z" fill="white"/>
<path d="M14.1808 20.7889H13.5132V21.4565H14.1808V20.7889Z" fill="white"/>
<path d="M15.1039 20.7889H14.4363V21.4565H15.1039V20.7889Z" fill="white"/>
<path d="M16.0281 20.7889H15.3594V21.4565H16.0281V20.7889Z" fill="white"/>
<path d="M16.9499 20.7889H16.2822V21.4565H16.9499V20.7889Z" fill="white"/>
<path d="M17.873 20.7889H17.2053V21.4565H17.873V20.7889Z" fill="white"/>
<path d="M18.7958 20.7889H18.1282V21.4565H18.7958V20.7889Z" fill="white"/>
<path d="M20.6419 20.7889H19.0513V21.4565H20.6419V20.7889Z" fill="white"/>
<path d="M4.43701 21.7019H3.35815V22.3707H4.43701V21.7019Z" fill="white"/>
<path d="M5.36114 21.7019H4.69238V22.3707H5.36114V21.7019Z" fill="white"/>
<path d="M6.28289 21.7019H5.61523V22.3707H6.28289V21.7019Z" fill="white"/>
<path d="M7.2061 21.7019H6.53955V22.3707H7.2061V21.7019Z" fill="white"/>
<path d="M8.13005 21.7019H7.4624V22.3707H8.13005V21.7019Z" fill="white"/>
<path d="M14.5922 21.7019H8.3855V22.3707H14.5922V21.7019Z" fill="white"/>
<path d="M15.5151 21.7019H14.8474V22.3707H15.5151V21.7019Z" fill="white"/>
<path d="M16.4391 21.7019H15.7715V22.3707H16.4391V21.7019Z" fill="white"/>
<path d="M17.3622 21.7019H16.6946V22.3707H17.3622V21.7019Z" fill="white"/>
<path d="M18.2853 21.7019H17.6177V22.3707H18.2853V21.7019Z" fill="white"/>
<path d="M19.2093 21.7019H18.5405V22.3707H19.2093V21.7019Z" fill="white"/>
<path d="M20.6431 21.7019H19.4636V22.3707H20.6431V21.7019Z" fill="white"/>
<path d="M16.9753 4.69565L13.6536 2.01289H10.0534L6.72949 4.69565C6.72949 4.69565 6.96826 10.7752 11.8518 13.4414C16.7365 10.7752 16.9753 4.69565 16.9753 4.69565Z" fill="#706F6F"/>
<path d="M13.4513 2.50589H10.2557L7.30542 4.88909V4.97531C7.37934 5.97813 7.59481 6.96545 7.94543 7.90788C8.47601 9.38025 9.57255 11.3865 11.7745 12.5881L11.8574 12.6334L11.9392 12.5881C14.1411 11.3865 15.2365 9.38246 15.7693 7.90788C16.1177 6.96516 16.3305 5.97781 16.4016 4.97531V4.88909L13.4513 2.50589Z" fill="#3C3C3B"/>
<path d="M16.1794 4.99631L13.3739 2.73029H10.333L7.52759 4.99631C7.52759 4.99631 7.72877 10.133 11.854 12.3847C15.9782 10.133 16.1794 4.99631 16.1794 4.99631Z" fill="#E30613"/>
<path d="M7.81941 7.87252C7.81941 7.90138 7.81085 7.92959 7.79481 7.95358C7.77878 7.97758 7.756 7.99628 7.72934 8.00733C7.70268 8.01837 7.67333 8.02125 7.64503 8.01562C7.61673 8.00999 7.59073 7.9961 7.57032 7.9757C7.54992 7.95529 7.53602 7.92929 7.53039 7.90098C7.52476 7.87268 7.52765 7.84335 7.5387 7.81668C7.54974 7.79002 7.56844 7.76723 7.59243 7.7512C7.61643 7.73517 7.64464 7.72661 7.6735 7.72661C7.7121 7.7269 7.74905 7.74236 7.77635 7.76967C7.80365 7.79697 7.81912 7.83391 7.81941 7.87252Z" fill="#3C3C3B"/>
<path d="M16.1795 7.87251C16.1795 7.90141 16.1709 7.92967 16.1548 7.95368C16.1388 7.9777 16.1159 7.9964 16.0892 8.00742C16.0625 8.01843 16.0331 8.02125 16.0047 8.01553C15.9764 8.00981 15.9504 7.9958 15.93 7.97529C15.9097 7.95477 15.8959 7.92867 15.8904 7.90029C15.8849 7.87191 15.8879 7.84254 15.8991 7.8159C15.9103 7.78926 15.9292 7.76655 15.9534 7.75065C15.9775 7.73475 16.0058 7.72638 16.0347 7.7266C16.0732 7.72689 16.11 7.74239 16.1372 7.76972C16.1643 7.79705 16.1795 7.834 16.1795 7.87251Z" fill="#3C3C3B"/>
<path d="M9.51057 10.9609C9.51057 10.9898 9.50204 11.0179 9.48606 11.0419C9.47007 11.0659 9.44735 11.0846 9.42075 11.0956C9.39415 11.1067 9.36487 11.1097 9.3366 11.1041C9.30833 11.0986 9.28233 11.0848 9.26188 11.0645C9.24143 11.0442 9.22744 11.0183 9.22169 10.9901C9.21594 10.9619 9.21867 10.9326 9.22954 10.9059C9.24042 10.8792 9.25895 10.8563 9.28279 10.8402C9.30664 10.824 9.33475 10.8153 9.36356 10.815C9.38281 10.8149 9.4019 10.8186 9.41973 10.8258C9.43756 10.8331 9.45378 10.8438 9.46744 10.8574C9.48111 10.8709 9.49196 10.8871 9.49936 10.9049C9.50677 10.9226 9.51057 10.9417 9.51057 10.9609Z" fill="#3C3C3B"/>
<path d="M14.4881 10.9609C14.4881 10.9899 14.4795 11.0181 14.4634 11.0421C14.4474 11.0661 14.4245 11.0848 14.3978 11.0959C14.3711 11.1069 14.3417 11.1097 14.3133 11.104C14.285 11.0983 14.259 11.0842 14.2386 11.0637C14.2183 11.0432 14.2045 11.0171 14.199 10.9887C14.1935 10.9604 14.1965 10.931 14.2077 10.9043C14.2189 10.8777 14.2378 10.855 14.2619 10.8391C14.2861 10.8232 14.3144 10.8148 14.3433 10.815C14.3818 10.8153 14.4186 10.8308 14.4458 10.8582C14.4729 10.8855 14.4881 10.9224 14.4881 10.9609Z" fill="#3C3C3B"/>
<path d="M7.1717 4.85814C7.1717 4.887 7.16314 4.91521 7.14711 4.93921C7.13108 4.9632 7.10829 4.9819 7.08163 4.99294C7.05497 5.00399 7.02563 5.00688 6.99733 5.00125C6.96902 4.99562 6.94303 4.98172 6.92262 4.96132C6.90222 4.94091 6.88832 4.91491 6.88269 4.88661C6.87706 4.85831 6.87994 4.82896 6.89099 4.8023C6.90203 4.77564 6.92074 4.75285 6.94473 4.73682C6.96873 4.72079 6.99693 4.71223 7.02579 4.71223C7.0644 4.71252 7.10134 4.72798 7.12865 4.75529C7.15595 4.78259 7.17141 4.81953 7.1717 4.85814Z" fill="#3C3C3B"/>
<path d="M16.8282 4.85814C16.8284 4.88726 16.82 4.9158 16.804 4.94012C16.788 4.96444 16.7651 4.98346 16.7382 4.99475C16.7114 5.00605 16.6818 5.00912 16.6532 5.00357C16.6246 4.99802 16.5983 4.98411 16.5776 4.9636C16.557 4.94308 16.5428 4.91688 16.5371 4.88834C16.5313 4.85979 16.5342 4.83018 16.5453 4.80325C16.5564 4.77632 16.5752 4.75329 16.5994 4.73709C16.6236 4.72089 16.6521 4.71224 16.6812 4.71223C16.72 4.71223 16.7572 4.72757 16.7848 4.7549C16.8123 4.78223 16.8279 4.81934 16.8282 4.85814Z" fill="#3C3C3B"/>
<path d="M12.0001 13.0424C12.0001 13.0712 11.9915 13.0994 11.9755 13.1234C11.9594 13.1474 11.9367 13.1661 11.91 13.1772C11.8833 13.1882 11.854 13.1911 11.8257 13.1855C11.7974 13.1799 11.7714 13.166 11.751 13.1456C11.7306 13.1251 11.7167 13.0991 11.7111 13.0708C11.7054 13.0425 11.7083 13.0132 11.7194 12.9865C11.7304 12.9599 11.7491 12.9371 11.7731 12.9211C11.7971 12.905 11.8253 12.8965 11.8542 12.8965C11.8928 12.8968 11.9297 12.9122 11.957 12.9395C11.9843 12.9668 11.9998 13.0038 12.0001 13.0424Z" fill="#3C3C3B"/>
<path d="M10.2955 2.26382C10.2955 2.29267 10.2869 2.32088 10.2709 2.34488C10.2549 2.36887 10.2321 2.38758 10.2054 2.39862C10.1787 2.40966 10.1494 2.41255 10.1211 2.40692C10.0928 2.40129 10.0668 2.3874 10.0464 2.36699C10.026 2.34659 10.0121 2.32058 10.0065 2.29228C10.0008 2.26398 10.0037 2.23464 10.0148 2.20798C10.0258 2.18132 10.0445 2.15853 10.0685 2.1425C10.0925 2.12646 10.1207 2.1179 10.1496 2.1179C10.1882 2.11819 10.2251 2.13366 10.2524 2.16096C10.2797 2.18826 10.2952 2.22521 10.2955 2.26382Z" fill="#3C3C3B"/>
<path d="M13.7034 2.26382C13.7034 2.29267 13.6949 2.32088 13.6789 2.34488C13.6628 2.36887 13.64 2.38758 13.6134 2.39862C13.5867 2.40966 13.5574 2.41255 13.5291 2.40692C13.5008 2.40129 13.4748 2.3874 13.4544 2.36699C13.434 2.34659 13.4201 2.32058 13.4144 2.29228C13.4088 2.26398 13.4117 2.23464 13.4227 2.20798C13.4338 2.18132 13.4525 2.15853 13.4765 2.1425C13.5005 2.12646 13.5287 2.1179 13.5575 2.1179C13.5767 2.1179 13.5957 2.12168 13.6134 2.12901C13.6311 2.13634 13.6472 2.14709 13.6607 2.16064C13.6743 2.17419 13.685 2.19028 13.6923 2.20798C13.6997 2.22568 13.7034 2.24465 13.7034 2.26382Z" fill="#3C3C3B"/>
<path d="M7.5498 4.96978L15.262 8.56447C15.44 8.16681 15.5932 7.75851 15.7208 7.34192L8.67729 4.05894L7.5498 4.96978Z" fill="#E6361D"/>
<path d="M14.8883 9.30951C14.9989 9.11607 15.095 8.92152 15.1857 8.72919L7.52759 5.16103C7.54085 5.3191 7.5696 5.58438 7.62818 5.92595L14.8883 9.30951Z" fill="#E6361D"/>
<g style="mix-blend-mode:multiply">
<path d="M15.3151 4.29662C15.2178 5.34562 14.5921 9.67208 10.8748 11.7425C11.1834 11.9823 11.5109 12.1967 11.8541 12.3836C15.9794 10.1319 16.1806 4.99522 16.1806 4.99522L15.3151 4.29662Z" fill="#C6C6C6"/>
</g>
<path d="M12.2984 10.6326C12.2404 10.6908 12.1715 10.7369 12.0956 10.7682C12.0197 10.7995 11.9383 10.8154 11.8562 10.815C11.69 10.815 11.5306 10.749 11.4131 10.6315C11.2955 10.5139 11.2295 10.3545 11.2295 10.1883C11.2295 10.0221 11.2955 9.86264 11.4131 9.7451C11.5306 9.62756 11.69 9.56153 11.8562 9.56153C11.9387 9.56094 12.0204 9.57676 12.0966 9.60806C12.1729 9.63936 12.2421 9.68552 12.3003 9.74385C12.3586 9.80219 12.4046 9.87152 12.4358 9.94782C12.4669 10.0241 12.4826 10.1059 12.4819 10.1883C12.4831 10.2709 12.4675 10.353 12.4359 10.4294C12.4044 10.5058 12.3576 10.5749 12.2984 10.6326ZM11.2461 4.04347L11.3566 9.12822H12.2498L12.4642 4.04347H11.2461Z" fill="white"/>
</svg>
