<svg width="24" height="29" viewBox="0 0 24 29" fill="none" xmlns="http://www.w3.org/2000/svg">
<path d="M4.59654 19.5943C2.59532 16.085 1.62318 12.0829 1.79151 8.04655C3.71461 7.48975 5.58501 6.76488 7.38109 5.88032C9.07713 4.94738 10.63 3.77513 11.992 2.39963V0.266174C11.992 0.266174 9.44084 2.9115 6.57438 4.36111C4.46913 5.40014 2.27676 6.25242 0.022492 6.90816C-0.177952 11.6544 0.964619 16.3609 3.31892 20.487C7.09445 27.1494 12.0084 28.7546 12.0084 28.7546V26.6335C12.0084 26.6335 7.81106 25.2657 4.59654 19.5943Z" fill="#2C5871"/>
<path d="M7.38112 5.87623C5.58518 6.76219 3.71478 7.48842 1.79154 8.04654C1.62244 12.0842 2.59461 16.0878 4.59657 19.5983C7.8111 25.2698 11.992 26.6375 11.992 26.6375V2.39554C10.6301 3.77104 9.07716 4.94329 7.38112 5.87623Z" fill="#C12106"/>
<path d="M23.9778 6.90815C21.7235 6.25242 19.5312 5.40013 17.4259 4.3611L16.7257 5.93765C18.4828 6.79567 20.3104 7.50122 22.1883 8.04654C22.3574 12.0842 21.3853 16.0878 19.3833 19.5983C16.1688 25.2698 11.9919 26.6375 11.9919 26.6375V28.7587C11.9919 28.7587 16.9059 27.1535 20.6814 20.491C23.0342 16.3629 24.1766 11.6555 23.9778 6.90815Z" fill="#0F303F"/>
<path d="M19.3835 19.5943C21.3847 16.0849 22.3568 12.0828 22.1885 8.04654C20.3106 7.50122 18.483 6.79567 16.7259 5.93765L15.9478 7.71485L19.4367 8.12434L14.3917 14.5083L16.3573 9.63537H13.2656L14.9036 4.83611C13.8683 4.10201 12.8984 3.27998 12.0044 2.37915V26.6171C12.0044 26.6171 16.1689 25.2657 19.3835 19.5943Z" fill="#A81D05"/>
<path d="M15.4564 1.94509C15.3858 1.94509 15.3181 1.91704 15.2681 1.86713C15.2182 1.81721 15.1902 1.74952 15.1902 1.67893V0.266168C15.1902 0.195575 15.2182 0.127871 15.2681 0.0779547C15.3181 0.028038 15.3858 0 15.4564 0C15.5269 0 15.5947 0.028038 15.6446 0.0779547C15.6945 0.127871 15.7225 0.195575 15.7225 0.266168V1.67073C15.7236 1.70636 15.7175 1.74186 15.7047 1.7751C15.6918 1.80834 15.6724 1.83867 15.6475 1.86426C15.6227 1.88985 15.593 1.91019 15.5601 1.92407C15.5273 1.93796 15.492 1.94511 15.4564 1.94509Z" fill="#C12106"/>
<path d="M17.2989 2.19898C17.2675 2.18416 17.2395 2.16316 17.2164 2.13725C17.1933 2.11133 17.1757 2.08102 17.1646 2.04814C17.1536 2.01527 17.1492 1.98049 17.1519 1.9459C17.1546 1.9113 17.1642 1.8776 17.1802 1.84681L17.7944 0.581476C17.8253 0.517942 17.8803 0.469312 17.9471 0.446274C18.0139 0.423235 18.0871 0.427681 18.1507 0.458633C18.2142 0.489585 18.2628 0.544507 18.2859 0.611318C18.3089 0.67813 18.3045 0.751357 18.2735 0.81489L17.6552 2.08022C17.6235 2.14309 17.5683 2.19088 17.5016 2.21314C17.4348 2.23539 17.3619 2.2303 17.2989 2.19898Z" fill="#C12106"/>
<path d="M18.0687 3.54211C18.0563 3.5096 18.0505 3.47495 18.0517 3.44017C18.0528 3.40539 18.0608 3.37118 18.0753 3.33955C18.0898 3.30791 18.1104 3.27947 18.136 3.25589C18.1616 3.23232 18.1916 3.21408 18.2244 3.20223L19.5388 2.70265C19.5721 2.68637 19.6083 2.6772 19.6453 2.67573C19.6823 2.67426 19.7192 2.68052 19.7536 2.69411C19.7881 2.70771 19.8193 2.72834 19.8453 2.75469C19.8713 2.78103 19.8915 2.8125 19.9047 2.8471C19.9178 2.8817 19.9236 2.91867 19.9217 2.95563C19.9198 2.9926 19.9101 3.02876 19.8934 3.06179C19.8767 3.09483 19.8533 3.12402 19.8247 3.1475C19.7961 3.17097 19.7629 3.18822 19.7272 3.19813L18.4127 3.69772C18.3464 3.7218 18.2733 3.719 18.2091 3.68993C18.1448 3.66086 18.0944 3.6078 18.0687 3.54211Z" fill="#C12106"/>
<path d="M10.7144 14.9056C10.7139 14.7697 10.7402 14.6351 10.7918 14.5094C10.8434 14.3837 10.9193 14.2695 11.0152 14.1732C11.1111 14.077 11.225 14.0006 11.3505 13.9485C11.476 13.8964 11.6105 13.8695 11.7463 13.8695H12.2213C12.3572 13.8695 12.4917 13.8964 12.6172 13.9485C12.7427 14.0006 12.8566 14.077 12.9525 14.1732C13.0484 14.2695 13.1243 14.3837 13.1759 14.5094C13.2275 14.6351 13.2538 14.7697 13.2533 14.9056V15.4788H14.1214V14.9056C14.1214 14.4013 13.9213 13.9176 13.5651 13.5606C13.2089 13.2036 12.7256 13.0025 12.2213 13.0014H11.734C11.2297 13.0025 10.7465 13.2036 10.3903 13.5606C10.034 13.9176 9.834 14.4013 9.83401 14.9056V16.6459H9.15015V20.8227H14.8052V16.6459H10.7103L10.7144 14.9056Z" fill="white"/>
</svg>
