<svg width="24" height="24" viewBox="0 0 24 24" fill="none" xmlns="http://www.w3.org/2000/svg">
<path d="M8.77907 2.48419H5.06787V21.3025H8.77907C9.13863 21.3017 9.48324 21.1585 9.73749 20.9042C9.99173 20.65 10.1349 20.3054 10.1357 19.9458V3.84084C10.1357 3.48104 9.99279 3.13596 9.73837 2.88154C9.48395 2.62712 9.13887 2.48419 8.77907 2.48419Z" fill="#0F303F"/>
<path d="M1.35967 2.4842C1.18125 2.4838 1.00452 2.51859 0.839573 2.5866C0.674628 2.6546 0.524716 2.75446 0.398419 2.88048C0.272123 3.0065 0.171923 3.15619 0.103556 3.32098C0.0351895 3.48577 -4.4052e-07 3.66244 0 3.84085V19.9458C0.000798413 20.3059 0.144401 20.651 0.399301 20.9053C0.654202 21.1596 0.999582 21.3025 1.35967 21.3025H5.06785V2.4842H1.35967Z" fill="#2C5871"/>
<path d="M7.12707 3.23486H3.00586V3.57252H7.12707V3.23486Z" fill="white"/>
<path d="M5.06787 20.7779C4.84593 20.7785 4.62881 20.7132 4.44398 20.5903C4.25916 20.4675 4.11494 20.2925 4.0296 20.0876C3.94425 19.8828 3.92161 19.6572 3.96454 19.4394C4.00748 19.2217 4.11405 19.0216 4.27077 18.8644C4.4275 18.7073 4.62732 18.6002 4.84495 18.5567C5.06259 18.5131 5.28824 18.5352 5.49334 18.62C5.69844 18.7048 5.87377 18.8485 5.99714 19.033C6.12051 19.2175 6.18636 19.4344 6.18636 19.6564C6.18636 19.9533 6.06862 20.2381 5.85895 20.4483C5.64927 20.6586 5.36479 20.7771 5.06787 20.7779ZM5.06787 18.7821C4.89423 18.7821 4.7245 18.8336 4.58016 18.9302C4.43582 19.0267 4.32338 19.1639 4.25707 19.3244C4.19076 19.4848 4.17356 19.6614 4.20766 19.8317C4.24175 20.0019 4.32561 20.1582 4.4486 20.2808C4.5716 20.4034 4.7282 20.4867 4.89858 20.5202C5.06895 20.5537 5.24544 20.5359 5.4057 20.469C5.56595 20.4022 5.70275 20.2893 5.79879 20.1446C5.89483 19.9999 5.94577 19.83 5.94518 19.6564C5.94518 19.5413 5.92246 19.4274 5.87834 19.3211C5.83421 19.2148 5.76954 19.1183 5.68804 19.0371C5.60653 18.9559 5.5098 18.8915 5.40337 18.8478C5.29695 18.804 5.18294 18.7817 5.06787 18.7821Z" fill="white"/>
<path d="M5.11613 4.52219H0.491455V17.8596H5.11613V4.52219Z" fill="#FDC63A"/>
<path d="M7.81123 16.1321C6.13971 13.2003 5.32886 9.85658 5.47176 6.4848C7.07692 6.02128 8.63769 5.41594 10.1356 4.67593C12.1706 3.6509 13.9825 1.77269 13.9825 1.77269V0C13.9825 0 11.8541 2.20984 9.46031 3.41274C7.69787 4.27586 5.86281 4.98204 3.97642 5.52308C3.81082 9.48324 4.7648 13.4099 6.72892 16.8526C9.87937 22.4149 13.9644 23.7535 13.9644 23.7535V21.9838C13.9644 21.9838 10.4944 20.8623 7.81123 16.1321Z" fill="#2C5871"/>
<path d="M23.9825 5.5442C22.0972 5.00286 20.2632 4.29668 18.5017 3.43385C16.1109 2.22794 13.9795 0.0211182 13.9795 0.0211182V1.79381C13.9795 1.79381 15.7884 3.67202 17.8233 4.69704C19.3224 5.4368 20.8842 6.04213 22.4902 6.50591C22.6312 9.87789 21.8194 13.2214 20.1477 16.1532C17.4586 20.8623 13.9825 22.0049 13.9825 22.0049V23.7746C13.9825 23.7746 18.0796 22.436 21.218 16.8738C23.1854 13.4319 24.1435 9.50542 23.9825 5.5442Z" fill="#0F303F"/>
<path d="M20.1509 16.1321C21.8226 13.2003 22.6344 9.85678 22.4934 6.48481C20.8873 6.02102 19.3256 5.41569 17.8265 4.67594C15.7946 3.65091 13.9827 1.77271 13.9827 1.77271V21.9959C13.9827 21.9959 17.4587 20.8623 20.1509 16.1321Z" fill="#03AAB6"/>
<path d="M10.1358 4.68497C8.63784 5.42498 7.07708 6.03032 5.47191 6.49384C5.32901 9.86562 6.13986 13.2094 7.81138 16.1411C10.4945 20.8713 13.9826 22.0139 13.9826 22.0139V1.78174C13.9826 1.78174 12.1708 3.65994 10.1358 4.68497Z" fill="#4BCDD6"/>
<path d="M18.0615 8.09772C17.9223 8.00779 17.7531 7.97665 17.591 8.01111C17.4288 8.04557 17.2869 8.14283 17.1963 8.28162L14.0911 13.048V15.303V15.3211L18.2334 8.96296C18.2793 8.89498 18.3112 8.81858 18.3274 8.73818C18.3436 8.65778 18.3437 8.57497 18.3278 8.49453C18.3118 8.41408 18.28 8.3376 18.2343 8.26949C18.1886 8.20139 18.1299 8.143 18.0615 8.09772Z" fill="white"/>
<path d="M14.067 13.0661L12.0682 10.1417C11.9719 10.0105 11.8283 9.92187 11.6678 9.89456C11.5073 9.86726 11.3425 9.90344 11.2082 9.99545C11.0739 10.0875 10.9807 10.2281 10.9482 10.3876C10.9157 10.5471 10.9465 10.713 11.0341 10.8502L14.079 15.3V13.045L14.067 13.0661Z" fill="white"/>
</svg>
